<svg xmlns="http://www.w3.org/2000/svg" width="47.151" height="47.15" viewBox="0 0 47.151 47.15">
  <g id="Group_831" data-name="Group 831" transform="translate(1 1)">
    <path id="Path_1312" data-name="Path 1312" d="M19.223,31.909h0A14.83,14.83,0,0,1,4.5,17.186V.5H33.946V17.186A14.83,14.83,0,0,1,19.223,31.909Z" transform="translate(3.352 -0.5)" fill="none" stroke="#6c63ff" stroke-linecap="round" stroke-linejoin="round" stroke-miterlimit="10" stroke-width="2"/>
    <path id="Path_1313" data-name="Path 1313" d="M16.141,16.5c-.982,3.926.393,11.189-8.441,13.741H24.779C15.749,27.689,17.123,20.426,16.141,16.5Z" transform="translate(6.434 14.909)" fill="none" stroke="#6c63ff" stroke-linecap="round" stroke-linejoin="round" stroke-miterlimit="10" stroke-width="2"/>
    <path id="Path_1314" data-name="Path 1314" d="M19.5,17.2h0V1.5h7.852V9.352A7.875,7.875,0,0,1,19.5,17.2Z" transform="translate(17.799 0.463)" fill="none" stroke="#6c63ff" stroke-linecap="round" stroke-linejoin="round" stroke-miterlimit="10" stroke-width="2"/>
    <path id="Path_1315" data-name="Path 1315" d="M8.352,17.2h0V1.5H.5V9.352A7.875,7.875,0,0,0,8.352,17.2Z" transform="translate(-0.5 0.463)" fill="none" stroke="#6c63ff" stroke-linecap="round" stroke-linejoin="round" stroke-miterlimit="10" stroke-width="2"/>
  </g>
</svg>
