<svg xmlns="http://www.w3.org/2000/svg" width="19" height="18.217" viewBox="0 0 19 18.217">
  <g id="Group_693" data-name="Group 693" transform="translate(-1224 -1128)" opacity="0.3">
    <path id="Path_755" data-name="Path 755" d="M1239.37,1130.5h3.13v14.87a.783.783,0,0,1-.783.782h-16.435a.783.783,0,0,1-.783-.782V1130.5h3.13" transform="translate(0 -0.435)" fill="none" stroke="#3f3d56" stroke-linecap="round" stroke-linejoin="round" stroke-width="1"/>
    <line id="Line_11" data-name="Line 11" x2="7.826" transform="translate(1229.685 1130.065)" fill="none" stroke="#3f3d56" stroke-linecap="round" stroke-linejoin="round" stroke-width="1"/>
    <path id="Path_756" data-name="Path 756" d="M1229.283,1128.5h0a.783.783,0,0,1,.783.783v1.565a.783.783,0,0,1-.783.783h0a.783.783,0,0,1-.783-.783v-1.565A.783.783,0,0,1,1229.283,1128.5Z" transform="translate(-0.87)" fill="none" stroke="#3f3d56" stroke-linecap="round" stroke-linejoin="round" stroke-width="1"/>
    <path id="Path_757" data-name="Path 757" d="M1242.283,1128.5h0a.783.783,0,0,1,.783.783v1.565a.783.783,0,0,1-.783.783h0a.783.783,0,0,1-.783-.783v-1.565A.783.783,0,0,1,1242.283,1128.5Z" transform="translate(-3.696)" fill="none" stroke="#3f3d56" stroke-linecap="round" stroke-linejoin="round" stroke-width="1"/>
    <line id="Line_12" data-name="Line 12" x2="17.217" transform="translate(1224.989 1134.761)" fill="none" stroke="#3f3d56" stroke-linecap="round" stroke-linejoin="round" stroke-width="1"/>
  </g>
</svg>
