<svg xmlns="http://www.w3.org/2000/svg" width="19" height="17.435" viewBox="0 0 19 17.435">
  <g id="Group_271" data-name="Group 271" transform="translate(-1584 -193)" opacity="0.3">
    <path id="Path_715" data-name="Path 715" d="M1586.5,211.457h15.652a.783.783,0,0,0,.783-.783v-8.609a1.565,1.565,0,0,0-1.565-1.565H1589.63a1.565,1.565,0,0,0-1.565,1.565v7.043" transform="translate(-0.435 -1.522)" fill="none" stroke="#3f3d56" stroke-linecap="round" stroke-linejoin="round" stroke-width="1"/>
    <path id="Path_716" data-name="Path 716" d="M1587.63,200.543v7.826a1.565,1.565,0,0,1-1.565,1.565h0a1.565,1.565,0,0,1-1.565-1.565V194.283a.783.783,0,0,1,.783-.783h3.273a.782.782,0,0,1,.733.508l.5,1.332a.782.782,0,0,0,.733.508h8.849a1.565,1.565,0,0,1,1.565,1.565v1.565H1589.2A1.565,1.565,0,0,0,1587.63,200.543Z" fill="none" stroke="#3f3d56" stroke-linecap="round" stroke-linejoin="round" stroke-width="1"/>
  </g>
</svg>
