<svg xmlns="http://www.w3.org/2000/svg" width="34.586" height="47.346" viewBox="0 0 34.586 47.346">
  <path id="Path_1316" data-name="Path 1316" d="M13.279.5c9.03,6.282,33.372,35.335,9.815,45.15,3.926-4.122,5.3-7.46,4.319-12.76-1.374-5.693-4.908-10.012-8.834-13.741.393,6.674-.589,11.778-3.337,14.919a9.918,9.918,0,0,0-3.73-6.478c-1.963,4.122-3.926,8.637-3.73,10.8.2,3.141,2.945,4.908,5.5,7.46C8.764,44.669,3.856,43.491,1.5,37.994-3.8,24.842,13.279,10.315,13.279.5Z" transform="translate(0.505 0.5)" fill="none" stroke="#6c63ff" stroke-linecap="round" stroke-linejoin="round" stroke-miterlimit="10" stroke-width="2"/>
</svg>
