<svg xmlns="http://www.w3.org/2000/svg" xmlns:xlink="http://www.w3.org/1999/xlink" width="510" height="425.102" viewBox="0 0 510 425.102">
  <defs>
    <linearGradient id="linear-gradient" x1="0.5" y1="1" x2="0.5" gradientUnits="objectBoundingBox">
      <stop offset="0" stop-color="gray" stop-opacity="0.251"/>
      <stop offset="0.54" stop-color="gray" stop-opacity="0.122"/>
      <stop offset="1" stop-color="gray" stop-opacity="0.102"/>
    </linearGradient>
  </defs>
  <g id="Group_778" data-name="Group 778" transform="translate(-0.004 0)">
    <ellipse id="Ellipse_182" data-name="Ellipse 182" cx="52.103" cy="5.136" rx="52.103" ry="5.136" transform="translate(310.376 414.83)" fill="#6c63ff" opacity="0.1"/>
    <path id="Path_1045" data-name="Path 1045" d="M341.61,800.389s24.517-1.478,21.627,15.7a4.185,4.185,0,0,1-2.179,4.415s-.041-1.275-2.515-.843a11.08,11.08,0,0,1-2.662.132,5.553,5.553,0,0,1-3.256-1.346h0s-6.894-2.845-9.571-14.113c0,0-1.986-2.454-1.905-3.089l4.135,1.768s-1.412,2.987-.3,5.466c0,0,.132-5.355.93-5.233.157.025,2.149,1.016,2.149,1.016s-2.433,5.2-.6,8.977c0,0-.7-6.406,1.356-8.6l2.916,1.7s-2.845,5.37-.914,9.749c0,0-.508-6.721,1.524-9.338l2.642,2.032s-2.672,5.294-1.041,8.931c0,0,.208-7.829,1.61-8.418a15.841,15.841,0,0,1,2.662,2.875s-1.829,3.841-.7,5.868c0,0,.7-5.212,1.27-5.238,0,0,2.3,3.455,2.54,5.822a12.572,12.572,0,0,0-1.986-6.152,6.936,6.936,0,0,1,3.526,1.824s-.361-2.444-4.09-2.657c0,0-1.9-2.616-2.413-2.779,0,0,3.714-.31,5.964.691,0,0-1.981-2.306-6.645-1.26l-2.606-2.124s4.892-.671,6.96.071c0,0-2.383-2.032-7.661-.554l-2.835-1.7a25.652,25.652,0,0,1,6.65-.574s-2.621-1.412-7.483.117l-2.032-.909s3.048-.6,3.947-.7.94-.34.94-.34a10.577,10.577,0,0,0-5.736.635S341.534,800.684,341.61,800.389Z" transform="translate(-217.639 -409.813)" fill="#6c63ff"/>
    <ellipse id="Ellipse_183" data-name="Ellipse 183" cx="17.354" cy="2.931" rx="17.354" ry="2.931" transform="translate(123.504 409.262)" fill="#6c63ff" opacity="0.1"/>
    <path id="Path_1046" data-name="Path 1046" d="M277.148,777.653s13.823-.833,12.193,8.855A2.352,2.352,0,0,1,288.117,789s-.025-.716-1.417-.472a6.163,6.163,0,0,1-1.5.071,3.079,3.079,0,0,1-1.839-.757h0s-3.881-1.61-5.405-7.961c0,0-1.118-1.387-1.077-1.743l2.337,1.016a4.2,4.2,0,0,0-.173,3.084s.076-3.023.508-2.952c.091,0,1.214.584,1.214.584s-1.372,2.931-.335,5.08c0,0-.4-3.612.762-4.852l1.641.96s-1.6,3.048-.508,5.5c0,0-.279-3.79.859-5.263l1.488,1.158s-1.524,2.982-.584,5.034c0,0,.117-4.415.909-4.745a9.051,9.051,0,0,1,1.5,1.621s-1.016,2.164-.391,3.307c0,0,.391-2.936.716-2.952A9.714,9.714,0,0,1,288.249,788a7.113,7.113,0,0,0-1.118-3.47,3.876,3.876,0,0,1,1.986,1.016s-.2-1.377-2.306-1.5a8.981,8.981,0,0,0-1.356-1.565,8.5,8.5,0,0,1,3.363.386s-1.118-1.3-3.749-.711l-1.468-1.2a12.156,12.156,0,0,1,3.927.041s-1.346-1.148-4.323-.31l-1.6-.96a14.516,14.516,0,0,1,3.744-.32s-1.473-.8-4.217.066l-1.143-.508s1.722-.34,2.225-.391.533-.193.533-.193a5.99,5.99,0,0,0-3.236.361A13.394,13.394,0,0,1,277.148,777.653Z" transform="translate(-186.021 -398.634)" fill="#6c63ff"/>
    <ellipse id="Ellipse_184" data-name="Ellipse 184" cx="9.785" cy="1.656" rx="9.785" ry="1.656" transform="translate(90.863 389.545)" fill="#6c63ff" opacity="0.1"/>
    <path id="Path_1047" data-name="Path 1047" d="M946.523,795.978s16.689-1.016,14.733,10.669a2.865,2.865,0,0,1-1.483,3.008s-.031-.869-1.712-.574a7.521,7.521,0,0,1-1.814.086,3.734,3.734,0,0,1-2.215-.914h0s-4.694-1.936-6.518-9.607c0,0-1.351-1.671-1.3-2.1l2.815,1.2a5.063,5.063,0,0,0-.2,3.724s.091-3.648.63-3.556c.112,0,1.463.7,1.463.7s-1.656,3.556-.406,6.1c0,0-.473-4.359.925-5.852l1.981,1.153s-1.936,3.658-.62,6.64c0,0-.34-4.572,1.016-6.355l1.8,1.4s-1.819,3.6-.711,6.1c0,0,.147-5.324,1.1-5.731a10.953,10.953,0,0,1,1.809,1.956s-1.245,2.616-.472,4c0,0,.472-3.556.864-3.556a11.8,11.8,0,0,1,1.727,3.963,8.541,8.541,0,0,0-1.346-4.186,4.719,4.719,0,0,1,2.4,1.24s-.244-1.661-2.789-1.809a10.824,10.824,0,0,0-1.636-1.89,10.275,10.275,0,0,1,4.064.467s-1.351-1.565-4.527-.854l-1.773-1.448s3.328-.457,4.74.046c0,0-1.626-1.387-5.217-.376l-1.931-1.153a17.586,17.586,0,0,1,4.527-.391s-1.783-.96-5.08.081l-1.382-.62s2.078-.411,2.687-.472.64-.234.64-.234a7.214,7.214,0,0,0-3.9.432A16.9,16.9,0,0,1,946.523,795.978Z" transform="translate(-515.317 -407.647)" fill="#6c63ff"/>
    <ellipse id="Ellipse_185" data-name="Ellipse 185" cx="11.812" cy="1.997" rx="11.812" ry="1.997" transform="translate(430.886 401.052)" fill="#6c63ff" opacity="0.1"/>
    <path id="Path_1048" data-name="Path 1048" d="M797.115,475.394a36.231,36.231,0,0,1-.554-5.416c0-2.179-2.962-4.11-2.962-4.11s-1.829-4.232-3.048-4.857-4.984-6.162-4.984-6.162a5.034,5.034,0,0,0-1.133-2.987,42.941,42.941,0,0,1-3.084-4.654h0c-.508-.62-.254-1.057-1.016-4.669-.041-.188-.086-.371-.142-.544a.713.713,0,0,0-.081-.234,6.1,6.1,0,0,0,1.438-6.315,2.54,2.54,0,0,0-.721-1.118c-.859-.7-2.23-.411-3.114-1.077l.94-4.156c.224-1.016.34-2.3-.549-2.85a4.614,4.614,0,0,0-1.047-.351c-1.524-.508-2.408-2.118-2.8-3.668a12.57,12.57,0,0,1-.3-4.572c.173-1.473.6-2.906.762-4.384a12.04,12.04,0,0,0-1.864-7.793,6,6,0,0,0-2.464-2.327c-.94-.422-2.032-.508-2.911-1.016-1.89-1.2-1.793-4.064-3.3-5.705s-4.181-1.636-6.381-1.072-4.389,1.524-6.645,1.285c-1.453-.163-2.815-.823-4.273-.975a4.5,4.5,0,0,0-1.25.056v-.046a2.711,2.711,0,0,0-2.322,1.814,2.766,2.766,0,0,0-.071.742c0,.594.142,1.214.152,1.783a1.7,1.7,0,0,1-.411,1.255c-.29.31-.716.472-1.016.792a1.27,1.27,0,0,0-.371.935c0,.9,1.128,1.7,1.885,2.068h.03c-.2.2-.406.417-.594.635a13.381,13.381,0,0,0-3.363,8.885,13.564,13.564,0,0,0,8.25,12.386l-.107.33a18.952,18.952,0,0,1-.747,1.92,3.8,3.8,0,0,0-3.19.356c-1.453,1.016-4.293.935-5.05.747s-8.636-1.184-9.271-.935-1.89-.869-2.708.625-1.2,2.3-2.032,2.677-2.271,1.555-2.078,1.8-2.083,1.742-2.083,1.742-1.956,2.032-3.089,2.3a18.142,18.142,0,0,0-3.531,1.809l-2.779,2.174s-2.078.315-1.448-1.118-1.138-3.236-1.138-3.236-3.531-7.158-3.531-8.636-2.9-7.783-2.9-7.783l-.356-.036-.163-.462c-.533-1.5-1.224-3.338-1.753-4.415-1.016-2.057-1.641-2.271-1.641-2.271s-12.233-9.185-20.179-6.386,14.5,11.141,16.521,12.015a3.81,3.81,0,0,1,1.57,2.444,10.455,10.455,0,0,0-4.344,3.907s4.857,10.765,4.984,13.442,3.343,10.161,3.343,10.161,1.2,5.543,7.692,5.228c0,0,8.957,1.646,10.912,0s3.719-2.936,4.669-3.124a3.683,3.683,0,0,0,1.763-1.245s-2.962,18.67-4.415,20.291-14.291,22.582-9.683,26.331a92.055,92.055,0,0,0,11.537,7.62c.391.193,1.565-1.763,3.241-3.15v1.082c.03,7.458,1.016,18.8,2.378,21.337,2.032,3.734,1.2,10.953,1.2,10.953a8.637,8.637,0,0,0,3.409.818c.061.244.132.508.2.762,1.113,4.2,2.916,10.7,3.836,12.426,1.387,2.616,2.393,10.9,2.393,10.9s.823,8.128.508,9.271a54.57,54.57,0,0,0,1.25,8.128h0c-.508,5.837-1.473,17.09-1.636,21.159h0v.295a1.255,1.255,0,0,1,0,.137v.249h0a3.8,3.8,0,0,0,.031.767,2.489,2.489,0,0,1-.086,1.158,20.226,20.226,0,0,1-1.367,3.262,15.56,15.56,0,0,0-.61,1.575,2.846,2.846,0,0,0-1.473,2.093c-.63,2.428-1.575,9.144-1.575,9.144s-.381,4.11-1.133,5.045-1.524,6.782,3.846,7.529,7.692-2.845,7.692-2.845l-.188-16.3v-.03a2.469,2.469,0,0,0,.279-.442v-.041c.036-.076.076-.157.112-.249l.046-.122.081-.2a.289.289,0,0,1,0-.071,10.77,10.77,0,0,0,.457-4.852v-.686a1.928,1.928,0,0,1,.031-.335v-.061l.03-.2v-.086a.375.375,0,0,1,.041-.2.224.224,0,0,1,0-.051c.051-.234.112-.508.178-.732v-.056l.076-.244h0c.076-.259.163-.508.254-.782v-.051a.712.712,0,0,1,.086-.239v-.03c.091-.249.188-.508.279-.721l.025-.066.081-.2.025-.061.193-.452h0l1.489,4.6s.823,3.424.381,4.232.508,4.171,1.133,4.232l-.584,4.232a64.739,64.739,0,0,0-.564,7.036c-.041.269-.081.508-.112.671a15.262,15.262,0,0,0,.569,5.532c4.979,5.888,10.912.457,10.912.457s.691-3.114,0-3.734-.381-2.865-.381-2.865.315-5.543.376-9.586-3.307-7.62-3.307-7.62l-.188.168c-.615-1.585-1.316-3.434-1.168-4.262.254-1.433-.7-16.557-.7-16.557a89.681,89.681,0,0,0,.224-12.193h0c.081-.686.158-1.362.234-2.032.381-3.251.691-6.03.813-7.488h0v-.173c.03-.391.046-.671.041-.8,0-.508,0-1.087.051-1.722.117-1.748.391-3.693.391-3.693l1.321-8.032a25.106,25.106,0,0,1,2.464-6.1l.173-.274h0c.056-.1.112-.2.173-.315l.025-.046c.056-.107.117-.218.173-.335l.025-.046c.2-.4.422-.864.65-1.372,0-.041.036-.076.051-.117l.173-.386a.4.4,0,0,1,.066-.152c.025-.051.107-.259.163-.386a1.481,1.481,0,0,0,.066-.158c.066-.152.137-.31.2-.472l.1-.234c.046-.117.1-.234.147-.351l.122-.31c.036-.076.066-.152.1-.229l.137-.351c0-.051.046-.107.066-.158.361-.9.706-1.788,1.016-2.6h0c.1-.254.193-.508.279-.732,3.231.2,5.426.376,5.426.376a74.456,74.456,0,0,0,.691-12.071,44.851,44.851,0,0,1,.8-9.653c.046-.249.086-.472.127-.676l.086.071c1.58,1.245,2.713-2.865,2.713-2.865s-.427-3.836-1.016-8.484l-.061-.462a23.88,23.88,0,0,0,2.759.422s.508-.046,1.2-.132a33.329,33.329,0,0,0,6.066,2.743l3.358-6.2a25.222,25.222,0,0,1,2.21-3.673c1.016-1.245,4.6-5.228,4.542-5.974a21.03,21.03,0,0,1,2.459-6.975A15.4,15.4,0,0,0,797.115,475.394Zm-14,4.73c-1.326.559-2.586,3.673-2.647,4.608s-1.453,5.04-2.9,5.538c-1.336.457-3.886,2.8-4.293,3.18-.417.036-.889.091-1.382.173a48.411,48.411,0,0,0-1.453-7.834c-1.016-1.87,1.113-7.844,1.113-7.844s.208-6.035,1.524-7.468,1.016-5.045,1.016-5.045.315-1.494.442-2.174,1.875,0,1.89,0h0s3.4,1.864,3.912,4.664,4.227,7.656,4.227,7.656-.569,1.682,0,2.54S784.44,479.565,783.114,480.124Z" transform="translate(-382.537 -210.397)" fill="url(#linear-gradient)"/>
    <path id="Path_1049" data-name="Path 1049" d="M707,453.091a10.161,10.161,0,0,1,10.161-4.786v7.27h-4.415l-3.455-.874Z" transform="translate(-397.629 -236.56)" fill="#4c4981"/>
    <path id="Path_1050" data-name="Path 1050" d="M707,453.091a10.161,10.161,0,0,1,10.161-4.786v7.27h-4.415l-3.455-.874Z" transform="translate(-397.629 -236.56)" opacity="0.1"/>
    <path id="Path_1051" data-name="Path 1051" d="M702.756,436.7l-5.411,3.79s-.046-.757-.183-1.793c-.269-1.961-.874-4.9-2.179-5.471-1.986-.874-24.1-9.2-16.257-11.995s19.879,6.376,19.879,6.376.62.213,1.61,2.261c.508,1.077,1.2,2.911,1.727,4.41C702.426,435.633,702.756,436.7,702.756,436.7Z" transform="translate(-382.895 -223.034)" fill="#ae6e79"/>
    <path id="Path_1052" data-name="Path 1052" d="M713.258,431.8l.615-.29,1.727,1.971-1.412,3.013-2.408-.965.559-2.408Z" transform="translate(-350.174 -212.291)" fill="#4c4981"/>
    <path id="Path_1053" data-name="Path 1053" d="M791.419,811s-1.555-.183-2.174,2.24-1.555,9.145-1.555,9.145-.371,4.1-1.118,5.035-1.489,6.772,3.79,7.514,7.58-2.84,7.58-2.84l-.188-16.292Z" transform="translate(-436.519 -415.046)" fill="#444053"/>
    <path id="Path_1054" data-name="Path 1054" d="M824.994,812.44s3.323,3.556,3.262,7.59-.376,9.566-.376,9.566-.3,2.24.376,2.86,0,3.729,0,3.729-5.842,5.421-10.75-.457a15.543,15.543,0,0,1-.559-5.522c.4-2.164,1.5-11.893,1.5-11.893Z" transform="translate(-451.673 -415.757)" fill="#444053"/>
    <path id="Path_1055" data-name="Path 1055" d="M819.311,662.9s-3.353,9.378-4.786,11.552a24.871,24.871,0,0,0-2.418,6.1l-1.306,8.012a44.712,44.712,0,0,0-.437,5.405c.061,1.8-3.231,28.079-3.231,28.079l-5.217,6.65s-2.3,4.659-1.925,6.6-.249,5.035-1.016,5.964c0,0-.122,6.1-.31,7.453s.686,5.223,0,5.9-9.815.376-10.064-.747,1.118-6.523,1.118-6.523l.808-5.217s1.616-2.855,1.245-3.79.681-3.1.742-3.292,1.743-3.231,1.433-4.41,1.956-26.245,1.956-26.245l6.4-44.915Z" transform="translate(-437.76 -340.505)" fill="#ae6e79"/>
    <path id="Path_1056" data-name="Path 1056" d="M819.311,662.909s-.508,1.412-1.2,3.267a63.222,63.222,0,0,1-3.582,8.286,25.2,25.2,0,0,0-2.423,6.1l-1.306,8.017a45.056,45.056,0,0,0-.432,5.405c0,.711-.478,5.248-1.087,10.476-.94,7.991-2.144,17.6-2.144,17.6l-5.217,6.65s-.264.508-.594,1.311c-.655,1.524-1.58,4-1.331,5.273.371,1.925-.249,5.029-1.016,5.964,0,0-.127,6.1-.31,7.453s.686,5.217,0,5.9-9.815.376-10.064-.742,1.118-6.523,1.118-6.523l.808-5.223s1.616-2.855,1.24-3.79.686-3.1.747-3.292,1.742-3.231,1.433-4.41c-.239-.9,1.016-15.617,1.6-22.6.2-2.195.325-3.622.325-3.622l5.5-38.641.447-3.114.447-3.16Z" transform="translate(-437.76 -340.515)" opacity="0.1"/>
    <path id="Path_1057" data-name="Path 1057" d="M811.956,759.32c.056.686-8.763,1.682-10.023.935s0-10,0-10l.574-4.222c-.615-.066-1.549-3.419-1.118-4.227s-.371-4.222-.371-4.222l-1.463-4.572-.894-2.8c-1.453-3.206-3.556-12.35-4.862-19.178a55.536,55.536,0,0,1-1.229-8.1c.31-1.118-.508-9.256-.508-9.256s-1.016-8.266-2.357-10.872c-.909-1.727-2.682-8.215-3.78-12.4-.559-2.149-.945-3.693-.945-3.693s9.388-.787,15.083-1.062c2.616-.127,4.455-.142,4.242.071a7.727,7.727,0,0,0-.259,3c.025,4.262.62,11.761,1.25,13.778.869,2.794,1.737,11.177,1.367,11.989s-.249,6.213-.249,6.213a27.947,27.947,0,0,1,1.1,6.742,91.118,91.118,0,0,1-.213,12.137s.93,15.1.681,16.526,1.986,5.9,1.986,6.772.62,6.772.62,6.772S811.916,758.639,811.956,759.32Z" transform="translate(-435.993 -343.495)" fill="#ae6e79"/>
    <path id="Path_1058" data-name="Path 1058" d="M825.168,467.452l-1.067,1.153-.7.752-4.064,4.369-10.5,1.184-5.588-1.494-1.382-.371s0-2.8.249-6.168c.356-4.313,1.2-9.551,3.231-10.978a8.072,8.072,0,0,0,2.362-2.992,16.852,16.852,0,0,0,1.016-2.51c.041-.112.071-.218.107-.33a28.057,28.057,0,0,0,.986-4.608s1.341-.742,3.206-1.605c4.862-2.271,13.26-5.405,10.338,1.605a27.436,27.436,0,0,0-1.1,3.15c-.046.157-.086.315-.122.467-.975,3.9-.33,6.269.4,7.575h0a4.739,4.739,0,0,0,.422.645,3.391,3.391,0,0,0,.706.716l1.209,7.676.1.635Z" transform="translate(-444.303 -233.094)" fill="#ae6e79"/>
    <path id="Path_1059" data-name="Path 1059" d="M830.016,446.2c-.554,1.331.269-1.087,0,0-2.215,1.575-7.432,6.061-10.364,6.061a8.144,8.144,0,0,1-4.272-1.128,27.724,27.724,0,0,0,1.092-4.933S834.055,436.5,830.016,446.2Z" transform="translate(-450.949 -233.457)" opacity="0.1"/>
    <path id="Path_1060" data-name="Path 1060" d="M826.768,421.184a13.554,13.554,0,0,1-12.127,13.468c-.467.046-.94.076-1.417.076a13.544,13.544,0,1,1,13.544-13.544Z" transform="translate(-443.225 -216.607)" fill="#ae6e79"/>
    <path id="Path_1061" data-name="Path 1061" d="M824.32,520.039l-1.93,5.035s-1.57.066-4.018.142c-8.266.264-26.478.6-27.291-1.524a5.4,5.4,0,0,1-.284-1.671c-.107-3.236,1.4-8.2,1.4-8.2s.869-9.942.869-10.374-.747-7.4-.747-7.4l1.494-5.588,4.161-2.921s1.864,2.86,2.982,3.1a7.749,7.749,0,0,1,2.611,1.621s3.663,2.235,4.847.991,10.374-6.711,10.374-6.711l4.847,5.344Z" transform="translate(-438.852 -255.423)" opacity="0.1"/>
    <path id="Path_1062" data-name="Path 1062" d="M824.334,521.559l-1.93,5.029s-1.57.071-4.019.147h-.239c-1.057.036-2.266.071-3.556.1-6.569.152-15.617.193-20.346-.508-1.778-.254-2.942-.62-3.135-1.118a4.487,4.487,0,0,1-.224-.925c-.03-.234-.051-.508-.061-.747-.107-3.236,1.4-8.2,1.4-8.2s.869-9.942.869-10.374-.747-7.4-.747-7.4l1.494-5.588,2.86-2,1.3-.914a19.494,19.494,0,0,0,1.428,1.88,3.8,3.8,0,0,0,1.555,1.224,7.775,7.775,0,0,1,2.611,1.621s3.663,2.235,4.847.991c.9-.95,6.488-4.369,9.068-5.929.793-.483,1.306-.782,1.306-.782l.65.721,4.2,4.623Z" transform="translate(-438.866 -256.171)" fill="#fff"/>
    <path id="Path_1063" data-name="Path 1063" d="M722.233,449.853l-5.411,3.79s-.046-.757-.183-1.793a10.951,10.951,0,0,0,4.765-4.42C721.9,448.781,722.233,449.853,722.233,449.853Z" transform="translate(-402.372 -236.182)" opacity="0.1"/>
    <path id="Path_1064" data-name="Path 1064" d="M736.472,463.2l-1.179-.315s-1.93,2.032-3.048,2.3a17.787,17.787,0,0,0-3.475,1.8l-2.738,2.174s-2.032.315-1.428-1.118-1.118-3.231-1.118-3.231-3.48-7.143-3.48-8.636-2.875-7.763-2.875-7.763-3.607,7.021-10.191,4.786c0,0,4.786,10.745,4.907,13.417s3.292,10.125,3.292,10.125a7.013,7.013,0,0,0,7.58,5.223s8.824,1.641,10.75,0,3.663-2.931,4.572-3.119a3.771,3.771,0,0,0,1.737-1.24v-7.387Z" transform="translate(-397.6 -236.664)" fill="#4c4981"/>
    <path id="Path_1065" data-name="Path 1065" d="M743.3,491.33s1.554,5.781.559,6.4Z" transform="translate(-415.488 -257.78)" opacity="0.1"/>
    <path id="Path_1066" data-name="Path 1066" d="M818.376,561.046c-8.266.264-26.478.594-27.291-1.524a5.4,5.4,0,0,1-.284-1.671l27,1.422Z" transform="translate(-438.857 -290.506)" opacity="0.1"/>
    <path id="Path_1067" data-name="Path 1067" d="M817.554,662.9s-.508,1.412-1.2,3.267c-3.429-.208-7.971-.427-12.284-.457-1.524,0-3.018,0-4.43.051a33.371,33.371,0,0,0-7.239.8,19.2,19.2,0,0,1-6.452.833c-.559-2.149-.945-3.693-.945-3.693s9.388-.787,15.083-1.062l.447-3.16Z" transform="translate(-436.003 -340.505)" opacity="0.1"/>
    <path id="Path_1068" data-name="Path 1068" d="M818.886,590.815l-1.057,2.235s-.147.666-.335,1.722a44.029,44.029,0,0,0-.782,9.652,76.358,76.358,0,0,1-.686,12.05s-22.861-1.925-29.567,0-10.008,0-10.008,0,.813-7.2-1.179-10.933c-1.356-2.54-2.312-13.879-2.342-21.337,0-3.439.173-6.046.6-6.574,1.367-1.676,7.2-18.452,7.2-18.452l1.331.071,3.556.188,20.22,1.067,3.175.168.335,1.016Z" transform="translate(-430.065 -291.16)" fill="#444053"/>
    <path id="Path_1069" data-name="Path 1069" d="M874.159,598.2l.188,1.992s-10.013-3.262-9.505-7.27,0-3.556,0-3.556l8.047.681Z" transform="translate(-475.274 -306.003)" fill="#4c4981"/>
    <path id="Path_1070" data-name="Path 1070" d="M874.159,598.2l.188,1.992s-10.013-3.262-9.505-7.27,0-3.556,0-3.556l8.047.681Z" transform="translate(-475.274 -306.003)" opacity="0.1"/>
    <path id="Path_1071" data-name="Path 1071" d="M754.979,492.926a8.922,8.922,0,0,0,3.526,1.834,2.3,2.3,0,0,1-1.016-.508c-.716-.508-1.4-1.062-2.088-1.6a6.554,6.554,0,0,0-1.941-1.341A10.7,10.7,0,0,0,754.979,492.926Z" transform="translate(-420.487 -257.77)" opacity="0.1"/>
    <path id="Path_1072" data-name="Path 1072" d="M754.08,497.236a4.485,4.485,0,0,1,.772,1.224,7.4,7.4,0,0,1-.056,3.846l-1.605-3.871c-.279-.66-.559-1.321-.894-1.951-.147-.269-1.072-1.392-.965-1.626C751.616,494.2,753.78,496.865,754.08,497.236Z" transform="translate(-419.435 -259.464)" opacity="0.1"/>
    <path id="Path_1073" data-name="Path 1073" d="M838.692,540.517a5.172,5.172,0,0,0,2.921-1.367c-1.651.208-3.216.859-4.842,1.2a7.193,7.193,0,0,1-4.511-.417A11.1,11.1,0,0,0,838.692,540.517Z" transform="translate(-459.254 -281.306)" opacity="0.1"/>
    <path id="Path_1074" data-name="Path 1074" d="M827.888,514.693a1.133,1.133,0,0,1-.838-.208q-1.859-1.067-3.668-2.225a24.36,24.36,0,0,1-3.592-2.479C822.254,512.005,824.55,513.885,827.888,514.693Z" transform="translate(-453.119 -266.857)" opacity="0.1"/>
    <path id="Path_1075" data-name="Path 1075" d="M839.238,544.2a7.731,7.731,0,0,0,1.941-.157,2.6,2.6,0,0,0,1.6-1.047.915.915,0,0,0-.676.107,11.4,11.4,0,0,1-6.239.747A9.007,9.007,0,0,0,839.238,544.2Z" transform="translate(-461.025 -283.187)" opacity="0.1"/>
    <path id="Path_1076" data-name="Path 1076" d="M804.037,601.648a20.381,20.381,0,0,1-3.968.777,23.977,23.977,0,0,1-3.14-.061l-5.08-.32-2.54-.163c-.3,0-1.524,0-.919-.6.3-.295,2-.107,2.438-.122q1.265-.041,2.54-.046c1.682,0,3.368,0,5.05.1C800.3,601.3,802.157,601.445,804.037,601.648Z" transform="translate(-437.59 -311.788)" opacity="0.1"/>
    <path id="Path_1077" data-name="Path 1077" d="M796.489,606.662a20.521,20.521,0,0,0-2.865.589,19.069,19.069,0,0,1-3,.117,16.716,16.716,0,0,1-5.776-1.179C788.726,606.388,792.613,606.5,796.489,606.662Z" transform="translate(-435.93 -314.288)" opacity="0.1"/>
    <path id="Path_1078" data-name="Path 1078" d="M784.627,612.2a8.311,8.311,0,0,1,1.107.3c2.144.61,4.425.071,6.6-.467a3.875,3.875,0,0,1-2.5,1.392,11.614,11.614,0,0,1-4.877.178c-.508-.1-1.783-.285-2.032-.813C782.508,612.02,784.149,612.126,784.627,612.2Z" transform="translate(-434.95 -317.166)" opacity="0.1"/>
    <path id="Path_1079" data-name="Path 1079" d="M806.906,619.168a16.579,16.579,0,0,1,1.9.508c2.413.6,4.918-.223,7.341-.777a34.173,34.173,0,0,1,8.885-.823,8.8,8.8,0,0,0-1.905.625c-.686.208-1.382.4-2.078.574-1.367.335-2.754.61-4.151.808a42.666,42.666,0,0,1-8.52.371c-1.3-.071-3.556.061-4.669-.594a5.146,5.146,0,0,1,3.2-.691Z" transform="translate(-445.208 -320.122)" opacity="0.1"/>
    <path id="Path_1080" data-name="Path 1080" d="M792.672,466.631s.122,5.72-.808,8.332c-.295.813-.752,2.311-1.25,3.993-.544,1.865-1.138,3.952-1.6,5.588s-.762,2.733-.762,2.733-2.1,17.09-2.642,25.234a1.987,1.987,0,0,1-.031.427c-.03.457-.081.935-.157,1.428-1.209,8.088-8.184,20.56-10.526,21.556a6.969,6.969,0,0,0-1.971,1.356c0-3.439.173-6.046.6-6.574,1.367-1.676,7.2-18.452,7.2-18.452l1.331.071c-.031-.234-.051-.508-.061-.747-.107-3.236,1.4-8.2,1.4-8.2s.869-9.942.869-10.374-.747-7.4-.747-7.4l1.494-5.588,2.86-2c.356-4.313,1.2-9.551,3.231-10.978a8.073,8.073,0,0,0,2.362-2.992c.4.056-.33-.3-.33-.3Z" transform="translate(-430.065 -244.206)" opacity="0.1"/>
    <path id="Path_1081" data-name="Path 1081" d="M778.744,462.927a3.7,3.7,0,0,0-3.145.356c-1.433,1.016-4.227.93-4.974.747s-8.509-1.184-9.144-.935-1.865-.869-2.672.625-1.179,2.3-1.986,2.667-2.24,1.555-2.032,1.8-2.032,1.737-2.032,1.737l4.532,14.733s-2.921,18.634-4.349,20.25-14.1,22.551-9.566,26.28a90.28,90.28,0,0,0,11.37,7.62c.508.249,2.3-3.1,4.781-4.161s10.191-15.038,10.669-22.988,2.672-25.655,2.672-25.655,2.672-9.693,3.6-12.3.808-8.332.808-8.332Z" transform="translate(-415.045 -243.708)" fill="#4c4981"/>
    <path id="Path_1082" data-name="Path 1082" d="M850.594,548.156l-1.057,2.235s-.147.666-.335,1.722a.95.95,0,0,1-.508-.229c-1.555-1.245-10.669-10.623-11.121-18.949-.32-6.142-.168-11.436-.066-13.793.03-.742.061-1.189.061-1.285h0s7.082-8.576,6.274-11.613-2.672-19.305-2.672-19.305L840.9,484.8l-.472-3.607L839.3,472.47l1.168.274a3.389,3.389,0,0,0,.706.716l1.209,7.676,4.2,4.623.686,28.145-1.93,5.029s-1.57.071-4.018.147h-.239Z" transform="translate(-461.773 -248.501)" opacity="0.1"/>
    <path id="Path_1083" data-name="Path 1083" d="M855.165,501.338s-1.737-.686-1.859,0-.437,2.169-.437,2.169.31,3.607-1.016,5.035-1.524,7.453-1.524,7.453-2.093,5.964-1.1,7.829c.361.676.92,4.064,1.478,8.128.356,2.54.706,5.329,1.016,7.88.564,4.633.986,8.469.986,8.469s-1.123,4.1-2.677,2.855-10.669-10.623-11.116-18.949c-.3-5.847-.183-10.928-.081-13.432.041-1.062.081-1.661.081-1.661s7.082-8.576,6.274-11.619-2.672-19.305-2.672-19.305l-.325-2.515-.351-2.7-.081-.594-1.123-8.636h0c.2.046,7.168,1.621,8.088,2.54s6.6,2.235,6.6,2.235a4.969,4.969,0,0,1,3.526,3.617c.056.173.1.356.137.544.747,3.607.508,4.039,1.016,4.664S855.165,501.338,855.165,501.338Z" transform="translate(-462.432 -248.142)" fill="#4c4981"/>
    <path id="Path_1084" data-name="Path 1084" d="M858.362,598.13c-2.54-.508-6.31-1.682-6.223-4.272.076-2.423,2.992-3.3,5.2-3.607C857.7,592.78,858.047,595.579,858.362,598.13Z" transform="translate(-469.033 -306.446)" opacity="0.1"/>
    <path id="Path_1085" data-name="Path 1085" d="M866.6,596.307c-.1.218-.508.406-1.087.574a29.309,29.309,0,0,1-4.13.676s-8.636-.686-8.515-4.6c.091-2.809,3.993-3.556,6.183-3.724a14.2,14.2,0,0,1,1.458-.061S866.972,595.5,866.6,596.307Z" transform="translate(-469.392 -305.914)" fill="#ae6e79"/>
    <path id="Path_1086" data-name="Path 1086" d="M872.137,596.307c-.1.218-.508.406-1.087.574-2.251-3.013-5.39-6.879-6.93-7.219l.467-.432a14.2,14.2,0,0,1,1.458-.061S872.508,595.5,872.137,596.307Z" transform="translate(-474.928 -305.914)" opacity="0.1"/>
    <path id="Path_1087" data-name="Path 1087" d="M870.326,497.69l2.54.376a44.143,44.143,0,0,0,3.048,4.659,5.08,5.08,0,0,1,1.118,2.982s3.729,5.527,4.908,6.147,2.982,4.847,2.982,4.847,2.921,1.925,2.921,4.1a36.517,36.517,0,0,0,.559,5.405,15.328,15.328,0,0,1-1.677,6.1,20.821,20.821,0,0,0-2.423,6.95c.066.762-3.48,4.725-4.471,5.964a25.252,25.252,0,0,0-2.174,3.668l-3.292,6.213s-6.96-10.252-9.505-10.811c0,0,2.855-2.733,4.283-3.231s2.8-4.572,2.86-5.527,1.306-4.039,2.606-4.572,1.991-1.118,1.433-1.991,0-2.54,0-2.54-3.668-4.847-4.166-7.62-3.851-4.659-3.851-4.659L866.1,509.42Z" transform="translate(-475.292 -260.909)" fill="#4c4981"/>
    <path id="Path_1088" data-name="Path 1088" d="M891.562,541.5a8.062,8.062,0,0,1,5.014-1.9,6.112,6.112,0,0,0-3.282,1.285,7.742,7.742,0,0,0-.909,1.158c-.295.422-2.693,3.47-3.048,2.987C888.742,544.325,891.079,541.912,891.562,541.5Z" transform="translate(-487.287 -281.527)" opacity="0.1"/>
    <path id="Path_1089" data-name="Path 1089" d="M882.73,527.976a2.149,2.149,0,0,0,1.773-1.255,7.037,7.037,0,0,0,.554-2.2,32.894,32.894,0,0,1,.767-3.775,1.748,1.748,0,0,0-.107-1.524,5.151,5.151,0,0,0-.549-1.128,6.765,6.765,0,0,0-.777,2.372c-.234.843-.447,1.692-.65,2.54C883.634,523.409,882.791,527.976,882.73,527.976Z" transform="translate(-484.084 -270.945)" opacity="0.1"/>
    <path id="Path_1090" data-name="Path 1090" d="M842.83,448.565a5.235,5.235,0,0,1-.859.884c-1.016.808-2.362,1.488-2.489,2.764a2.972,2.972,0,0,1-.152,1.224c-.325.559-1.123.508-1.758.4a3.048,3.048,0,0,1-1.488-.549c-.666-.569-.727-1.585-1.234-2.3a3.134,3.134,0,0,0-2.54-1.123c-.95-.03-1.895.183-2.845.224a7.819,7.819,0,0,1-1.824-.122,5.778,5.778,0,0,1-.589-.122,7.578,7.578,0,0,1-1.24-.422,5.464,5.464,0,0,1-.6-.284,8.027,8.027,0,0,1-1.753-1.219,4.357,4.357,0,0,1-1.626-3.3c.046-.777.4-1.494.508-2.261.381-2.195-1.077-4.267-2.657-5.837-.63-.625-1.3-1.229-1.93-1.864a9.293,9.293,0,0,1-2.271-3.241,9.654,9.654,0,0,1-.406-4.064,28.028,28.028,0,0,0,.117-4.176c-.467-4.938-4.684-8.723-8.9-10.78l-.188-.1a13.539,13.539,0,1,1,18.213,19.813c-.046.158-.086.315-.122.467-.975,3.9-.33,6.269.4,7.575h0c.2.046,7.168,1.621,8.088,2.54s6.6,2.235,6.6,2.235a4.968,4.968,0,0,1,3.551,3.632Z" transform="translate(-446.384 -216.615)" opacity="0.1"/>
    <path id="Path_1091" data-name="Path 1091" d="M803.984,402.889c.279-.32.7-.483.986-.793.879-.955,0-2.515.32-3.775.345-1.4,2.063-2.007,3.5-1.859s2.774.808,4.206.97c2.225.249,4.379-.716,6.549-1.28s4.791-.594,6.284,1.067,1.392,4.491,3.251,5.7a18.494,18.494,0,0,0,2.87,1.016,5.9,5.9,0,0,1,2.428,2.322,12.162,12.162,0,0,1,1.839,7.778c-.158,1.473-.584,2.906-.757,4.379a12.75,12.75,0,0,0,.3,4.572c.391,1.524,1.24,3.17,2.759,3.658a4.656,4.656,0,0,1,1.016.351c.879.549.762,1.839.539,2.845l-.9,4.171c.869.66,2.22.376,3.048,1.072a2.54,2.54,0,0,1,.711,1.118,6.1,6.1,0,0,1-1.824,6.675c-1.016.808-2.362,1.489-2.489,2.759a2.866,2.866,0,0,1-.152,1.224c-.32.559-1.123.508-1.758.4a3.048,3.048,0,0,1-1.483-.549c-.671-.569-.727-1.585-1.234-2.3a3.145,3.145,0,0,0-2.54-1.123c-.955-.03-1.895.183-2.85.229a8.423,8.423,0,0,1-5.99-2.164,4.373,4.373,0,0,1-1.631-3.3c.046-.772.4-1.494.508-2.261.376-2.19-1.077-4.267-2.657-5.837s-3.434-3.018-4.206-5.106c-.965-2.586-.03-5.471-.29-8.215-.467-4.943-4.679-8.723-8.9-10.785C804.492,405.358,802.892,404.134,803.984,402.889Z" transform="translate(-445.162 -210.784)" fill="#444053"/>
    <path id="Path_1092" data-name="Path 1092" d="M837.17,446.2c-.671-.574-.727-1.585-1.234-2.3a3.155,3.155,0,0,0-2.54-1.128c-.955-.03-1.9.183-2.85.229a8.4,8.4,0,0,1-6.01-2.169,4.357,4.357,0,0,1-1.626-3.3c.046-.777.4-1.5.508-2.261.381-2.195-1.077-4.273-2.657-5.842s-3.429-3.018-4.206-5.106c-.96-2.581,0-5.466-.284-8.215-.472-4.943-4.684-8.723-8.9-10.785-.986-.483-2.586-1.707-1.494-2.952.274-.32.7-.483.981-.793.879-.95,0-2.515.325-3.77a2.072,2.072,0,0,1,.32-.7,2.71,2.71,0,0,0-2.291,1.814c-.31,1.26.559,2.82-.32,3.775-.284.31-.706.472-.986.787-1.092,1.245.508,2.474,1.494,2.952,4.222,2.063,8.433,5.847,8.9,10.785.259,2.748-.676,5.634.29,8.22.772,2.083,2.627,3.556,4.206,5.106s3.048,3.643,2.657,5.837a19.467,19.467,0,0,0-.508,2.261,4.363,4.363,0,0,0,1.631,3.3,8.378,8.378,0,0,0,6,2.169c.955-.046,1.895-.254,2.85-.229a3.16,3.16,0,0,1,2.54,1.128c.508.716.564,1.732,1.234,2.3a3.048,3.048,0,0,0,1.483.544c.635.117,1.438.157,1.758-.4a1.371,1.371,0,0,0,.142-.732,2.921,2.921,0,0,1-1.417-.533Z" transform="translate(-445.123 -211.426)" opacity="0.1"/>
    <path id="Path_1093" data-name="Path 1093" d="M641.105,236.187h-35.14V201.56h35.166Zm-.508-52.21H606.473c0-53.81,51.148-50.666,51.148-84.709a33.926,33.926,0,0,0-34.1-33.774c-18.751,0-34.094,16.2-34.094,34.307h-34.1A68.076,68.076,0,0,1,623.522,31.61c37.665,0,68.192,30.05,68.192,67.659,0,42.568-51.143,47.414-51.143,84.709Z" transform="translate(-323.012 -31.61)" fill="#6c63ff"/>
    <path id="Path_1094" data-name="Path 1094" d="M357.789,362.837h-9.063v-8.951h9.063Zm-.137-13.463h-8.789c0-13.869,13.183-13.061,13.183-21.845a8.748,8.748,0,0,0-8.789-8.713,8.977,8.977,0,0,0-8.769,8.84H335.7a17.582,17.582,0,1,1,35.163-.137c-.028,10.973-13.211,12.223-13.211,21.835Z" transform="translate(-214.96 -168.573)" fill="#6c63ff" opacity="0.1"/>
    <path id="Path_1095" data-name="Path 1095" d="M492.829,485.267h-9.063v-8.926h9.063Zm-.132-13.458h-8.789c0-13.874,13.183-13.061,13.183-21.845a8.743,8.743,0,0,0-8.789-8.708,8.977,8.977,0,0,0-8.814,8.85H470.7a17.582,17.582,0,1,1,35.163-.137C505.876,460.943,492.7,462.2,492.7,471.809Z" transform="translate(-281.376 -228.815)" fill="#6c63ff" opacity="0.1"/>
    <path id="Path_1096" data-name="Path 1096" d="M580.883,282.645h-6.569v-6.457h6.569Zm-.1-9.759h-6.371c0-10.049,9.556-9.465,9.556-15.825a6.34,6.34,0,0,0-6.371-6.31,6.5,6.5,0,0,0-6.371,6.411H564.86a12.741,12.741,0,1,1,25.483-.1C590.332,265.011,580.786,265.92,580.786,272.885Z" transform="translate(-327.7 -136.282)" fill="#6c63ff" opacity="0.1"/>
    <path id="Path_1097" data-name="Path 1097" d="M808.448,316.893h-3.714v-3.658h3.714Zm-.056-5.512H804.77c0-5.68,5.4-5.349,5.4-8.946a3.556,3.556,0,0,0-3.6-3.556,3.678,3.678,0,0,0-3.6,3.622h-3.6a7.2,7.2,0,0,1,14.4-.056C813.793,306.91,808.393,307.443,808.393,311.38Z" transform="translate(-443.073 -161.416)" fill="#6c63ff" opacity="0.1"/>
    <path id="Path_1098" data-name="Path 1098" d="M920.228,644.363h-3.714v-3.658h3.714Zm-.056-5.512h-3.6c0-5.685,5.405-5.349,5.405-8.946a3.581,3.581,0,0,0-3.6-3.556,3.673,3.673,0,0,0-3.6,3.622h-3.6a7.2,7.2,0,0,1,14.4-.056c.02,4.486-5.38,5-5.38,8.936Z" transform="translate(-498.075 -322.523)" fill="#6c63ff" opacity="0.1"/>
  </g>
</svg>