<svg xmlns="http://www.w3.org/2000/svg" xmlns:xlink="http://www.w3.org/1999/xlink" width="565.178" height="398.357" viewBox="0 0 565.178 398.357">
  <defs>
    <linearGradient id="linear-gradient" x1="0.5" y1="1" x2="0.5" gradientUnits="objectBoundingBox">
      <stop offset="0" stop-color="gray" stop-opacity="0.251"/>
      <stop offset="0.54" stop-color="gray" stop-opacity="0.122"/>
      <stop offset="1" stop-color="gray" stop-opacity="0.102"/>
    </linearGradient>
    <linearGradient id="linear-gradient-2" x1="0.5" x2="0.5" y2="0" xlink:href="#linear-gradient"/>
    <linearGradient id="linear-gradient-3" x1="0.5" x2="0.5" y2="0" xlink:href="#linear-gradient"/>
    <linearGradient id="linear-gradient-4" x1="1.096" x2="1.096" y2="0" xlink:href="#linear-gradient"/>
    <linearGradient id="linear-gradient-5" x1="0.5" x2="0.5" y2="0" xlink:href="#linear-gradient"/>
  </defs>
  <g id="Group_714" data-name="Group 714" transform="translate(-882.83 -83.183)">
    <ellipse id="Ellipse_37" data-name="Ellipse 37" cx="40.469" cy="9.086" rx="40.469" ry="9.086" transform="translate(1189.907 413.405)" fill="#6c63ff" opacity="0.1"/>
    <ellipse id="Ellipse_38" data-name="Ellipse 38" cx="73.008" cy="5.993" rx="73.008" ry="5.993" transform="translate(1251.404 445.353)" fill="#6c63ff" opacity="0.1"/>
    <ellipse id="Ellipse_39" data-name="Ellipse 39" cx="73.008" cy="9.086" rx="73.008" ry="9.086" transform="translate(958.269 433.174)" fill="#6c63ff" opacity="0.1"/>
    <ellipse id="Ellipse_40" data-name="Ellipse 40" cx="54.934" cy="9.086" rx="54.934" ry="9.086" transform="translate(1087.657 387.692)" fill="#6c63ff" opacity="0.1"/>
    <ellipse id="Ellipse_41" data-name="Ellipse 41" cx="43.976" cy="9.086" rx="43.976" ry="9.086" transform="translate(1113.952 463.368)" fill="#6c63ff" opacity="0.1"/>
    <path id="Path_163" data-name="Path 163" d="M517.562,236.764c-1.162-7.822-8.268-26.074-8.268-26.074h0q-.185-.807-.42-1.614c-5.04-17.321-12.017-18.828-12.017-18.828l-24.992-5.379a1.936,1.936,0,0,1,.538.5,3.467,3.467,0,0,0-.393.059,9.79,9.79,0,0,1-2.189-4.734c-.048-.258-.091-.538-.124-.8a17.58,17.58,0,0,0-1.431-26.429c-.264-.2-.538-.4-.8-.592,1.178-1.253,1.216-3,.333-4.739-1.969-4.088-6.251-6.676-10.651-7.94a18.057,18.057,0,0,0-10.339-.221,37.351,37.351,0,0,0-5.412,2.512c-3.319,1.657-6.993,2.969-9.473,5.7a2.78,2.78,0,0,0-.947,2.286,6.172,6.172,0,0,0,.941,1.662,5.016,5.016,0,0,1,.048,4.164,40.341,40.341,0,0,0-1.544,4,4.184,4.184,0,0,0,.834,4.018,17.7,17.7,0,0,0,1.56,1.076,8.183,8.183,0,0,1,1.49,1.673q1.485,1.99,2.959,4a41.174,41.174,0,0,1,3.706,5.632,27.448,27.448,0,0,0,2.292,4.3,6.381,6.381,0,0,0,.984,1.033l-.29-.113a4.481,4.481,0,0,0,3.287,1.339h.151a.9.9,0,0,0,.6-.247v.538c.059,1.92.048,3.965-.086,5.885l-.231-.118a2.017,2.017,0,0,0-2.152.226L422.52,208s-5,6.842-4.3,18.655l-4.034,17.714s-5.04,15.03-1.162,25.761S419.147,287,419.147,287s1.549,12.195,3.878,13.19,3.335,1.533,3.335,1.533l.463,2.916h0s.156.285.43.764c1.694,2.948,7.972,13.351,11.619,12.238a46.635,46.635,0,0,1,.592,8.548l3.61,24.234s2.518,6.59,2.362,10.043,2.937,8.376,2.937,8.376a16,16,0,0,0-1.549,11.27c1.474,6.455,3.335,36.192,3.335,36.192l2.69,7.208-.075,8.451a8.069,8.069,0,0,1-1.668,3.765c-1.743,1.894-1.614,4.083-5.815,6.67s-6.864,3.566-6.864,6.993a8.986,8.986,0,0,1-.129,1.426c-.387,2.518-1.14,3.884,6.584,4.615a20.366,20.366,0,0,0,15.127-5.057s1.334-2.421,7.617-3.4c0,0,2.152-.113,2.265-2.012.043-.656.032-1.91,0-3.292-.1-2.63-.355-5.7-.689-5.853-.42-.188-1.151-2.835-1.4-3.792h1.748s1.614-12.195,0-20.092a32.6,32.6,0,0,1-.156-13.5l-.312-20.856s-2.152-2.3-.463-6.369,0-24.153,0-24.153.624-7.208,2.4-8.9.086-10.56,0-11.022l3.174,10.646s1.393,21.162,4.346,24.992l.85,9.586s6.046,8.822,4.884,13.572,1.243,21.931,1.243,21.931v17.563s-2.717,7.052,1.076,9.586l1.614-.065c-.538.5-.952,1.253-1.581,1.9-.726.748-1.14,3.593-1.372,6.041-.194,2.071-.258,3.852-.258,3.852a6.342,6.342,0,0,0,4.653,2.76c3.039.178,13.056,7.795,13.056,7.795s9.893,0,12.453-.538l.151-.038a3.362,3.362,0,0,0,1.931-1.576,4.034,4.034,0,0,0,.463-2.9c-.317-1.512-1.517-3.168-4.174-4.578-6.611-3.486-7.6-6.751-7.6-6.751l-4.341-6.514h.619a27.866,27.866,0,0,1,4.341-14.648l-.307-34.121s1.937-11.732-1.393-18.1c0,0-.274-6.746,1.953-8.817s-2.964-23-2.964-23-1.076-11.237-2.34-21.49h0c5.234,4.965,10.662-12.91,11.576-16.09h.134l-.059-.231c.038-.151.059-.226.059-.226h0s-1.162-4.131-.312-3.292,2.948-2.3,2.948-2.3-.312-17.1,3.335-25.719S517.562,236.764,517.562,236.764Zm-15.6,10.882.027-.048c.538,10.441-.1,32.722-.1,32.722s-.721,2.856-1.49,6.219l-.538-21.168h0l-.538-19.941Zm-66.763-7.2s2.636,32.97,0,37.725a24.906,24.906,0,0,0-1.9,6.514c-.871-2.286-2.717-7.655-2.055-10.5.855-3.679-1.705-13.346-1.705-13.572s-.231-5.379,1.614-9.317.635-5.643.635-5.643S433.338,239.2,435.2,240.449Z" transform="translate(666.079 -56.132)" fill="url(#linear-gradient)"/>
    <path id="Path_164" data-name="Path 164" d="M455.482,451.285c-2.3,10.1-11.431-5.17-13.513-8.833-.269-.479-.42-.758-.42-.758l.99-4.642,5.234-2.152a14.619,14.619,0,0,1,2.345,1.528A14.14,14.14,0,0,1,455.482,451.285Z" transform="translate(652.218 -192.713)" fill="#d38884"/>
    <path id="Path_165" data-name="Path 165" d="M586.25,432.427a.706.706,0,0,1-.059.226,1.147,1.147,0,0,1-.07.242c-.9,3.152-6.224,20.9-11.367,15.971-5.627-5.379-2.894-17.816-2.894-17.816h.038l11.834-1.21,2.345,2.41h0Z" transform="translate(592.313 -190.375)" fill="#d38884"/>
    <path id="Path_166" data-name="Path 166" d="M524.269,520.934l.3,33.89a27.8,27.8,0,0,0-4.26,14.524l-15.3.6c-3.733-2.512-1.076-9.511-1.076-9.511v-17.45s-2.362-17.047-1.221-21.77-4.793-13.448-4.793-13.448l-.839-9.516c-2.894-3.8-4.266-24.809-4.266-24.809l-3.1-10.608c.086.457,1.7,9.312,0,10.942s-2.362,8.827-2.362,8.827,1.673,19.947,0,23.976.452,6.321.452,6.321l.307,20.7A32.378,32.378,0,0,0,488.26,547c1.6,7.838,0,19.946,0,19.946H471.848l.075-8.451-2.657-7.154s-1.829-29.532-3.276-35.928a16.052,16.052,0,0,1,1.517-11.189s-3.039-4.868-2.889-8.295-2.345-9.962-2.345-9.962l-3.54-24.051a46.725,46.725,0,0,0-1.754-13.7c-2.055-6.853-5.1-15.837-5.1-15.837l3.437.307,17.343,1.544s42.168-2.835,44.057-.479a7.913,7.913,0,0,1,.8,2.458c1.894,8.5,4.395,35.148,4.395,35.148s5.1,20.78,2.91,22.835-1.92,8.747-1.92,8.747C526.179,509.261,524.269,520.934,524.269,520.934Z" transform="translate(647.445 -191.548)" fill="#444053"/>
    <path id="Path_167" data-name="Path 167" d="M493.363,692.582c-.118,1.888-2.222,2-2.222,2-6.165.968-7.477,3.367-7.477,3.367a19.8,19.8,0,0,1-14.841,5.024c-7.585-.732-6.848-2.082-6.455-4.583a9.471,9.471,0,0,0,.124-1.409c0-3.427,2.625-4.4,6.735-6.993s4-4.739,5.707-6.622,1.888-5.535,1.888-5.535c1.937-3.373,6.848.538,6.848.538.231,1.194,7.531,1.027,7.531,1.027s.968,3.884,1.469,4.11c.328.151.576,3.2.672,5.81C493.4,690.689,493.406,691.931,493.363,692.582Z" transform="translate(642.703 -304.331)" fill="#b07473"/>
    <path id="Path_168" data-name="Path 168" d="M493.363,703.634c-.118,1.888-2.222,2-2.222,2-6.165.968-7.477,3.367-7.477,3.367a19.8,19.8,0,0,1-14.841,5.024c-7.585-.732-6.848-2.082-6.455-4.583,3.389.839,9.866,2.012,13.647-.043,5.256-2.851,9.026-4.841,9.026-4.841l8.306-4.18C493.4,701.741,493.406,702.984,493.363,703.634Z" transform="translate(642.703 -315.383)" opacity="0.1"/>
    <path id="Path_169" data-name="Path 169" d="M579.394,704.615a3.282,3.282,0,0,1-1.893,1.565l-.145.038c-2.512.538-12.222.538-12.222.538s-9.817-7.59-12.787-7.762a6.245,6.245,0,0,1-4.567-2.743s.059-1.764.247-3.819c.231-2.431.635-5.256,1.35-6,1.313-1.372,1.614-3.228,4.567-2.055,0,0,4.217-7.434,9.188-1.689l5.143,7.8s.968,3.228,7.483,6.73c2.6,1.4,3.766,3.045,4.094,4.545A4.008,4.008,0,0,1,579.394,704.615Z" transform="translate(603.133 -306.202)" fill="#b07473"/>
    <path id="Path_170" data-name="Path 170" d="M579.394,714.854c-.581.49-1.221,1.017-1.893,1.565l-.145.038c-2.512.538-12.222.538-12.222.538s-9.817-7.59-12.787-7.762a6.245,6.245,0,0,1-4.567-2.743s.059-1.764.247-3.819c3.023.9,7.6,2.5,8.827,4.223,1.883,2.62,7.6,6.278,7.6,6.278s10.662-1.027,15.4-1.167A4.008,4.008,0,0,1,579.394,714.854Z" transform="translate(603.133 -316.441)" opacity="0.1"/>
    <path id="Path_171" data-name="Path 171" d="M505,216.194l-14.04,14.842s-17.015-1.253-14.045-6.278c1.512-2.561,1.748-7.918,1.614-12.577-.124-4.492-.586-8.316-.586-8.316s23.863-11.878,22.055-.8a18.228,18.228,0,0,0-.065,6.321C500.946,214.978,505,216.194,505,216.194Z" transform="translate(636.04 -83.406)" fill="#d38884"/>
    <path id="Path_172" data-name="Path 172" d="M501.154,203.063a18.229,18.229,0,0,0-.065,6.321A17.515,17.515,0,0,1,488.6,214.6c-3.228,0-6.719-2.652-9.328-4.185-.124-4.5-.151-6.547-.151-6.547S502.983,191.987,501.154,203.063Z" transform="translate(634.859 -83.406)" opacity="0.1"/>
    <path id="Path_173" data-name="Path 173" d="M499.209,179.07a17.585,17.585,0,1,1-6.617-13.739A17.585,17.585,0,0,1,499.209,179.07Z" transform="translate(641.828 -66.379)" fill="#d38884"/>
    <path id="Path_174" data-name="Path 174" d="M519.8,436.464c-4.379,10.42-32.545,10.635-32.545,10.635V435.738l-1.705-.113c.737,3.254-1.033,11.189-1.033,11.189-22.26,3.142-27.687-9.543-27.687-9.543l.775-4.341,17.343,1.544S517.116,431.639,519,434A7.913,7.913,0,0,1,519.8,436.464Z" transform="translate(645.158 -191.803)" opacity="0.1"/>
    <path id="Path_175" data-name="Path 175" d="M487.255,350.841V339.48l-1.705-.108c.737,3.228-1.033,11.189-1.033,11.189-16.751,2.362-23.97-4.233-26.515-7.644a10.408,10.408,0,0,1-1.173-1.893l6.8-38.247,1.614-56.289,2.437-9.876.565-4.739v-.054h.059l1.732.742,10.366,4.481,11.775-8.892.172-.124.586-.446.974.78,2.421,1.942,7.762,50.13s13.448,38.6,15.966,54.175c.1.624.183,1.2.247,1.748C521.968,350.578,487.255,350.841,487.255,350.841Z" transform="translate(645.158 -96.917)" fill="#6c63ff"/>
    <circle id="Ellipse_42" data-name="Ellipse 42" cx="1.001" cy="1.001" r="1.001" transform="translate(1125.818 140.233)" fill="#67647e"/>
    <circle id="Ellipse_43" data-name="Ellipse 43" cx="1.001" cy="1.001" r="1.001" transform="translate(1126.281 149.367)" fill="#67647e"/>
    <circle id="Ellipse_44" data-name="Ellipse 44" cx="1.001" cy="1.001" r="1.001" transform="translate(1127.281 164.155)" fill="#67647e"/>
    <circle id="Ellipse_45" data-name="Ellipse 45" cx="1.001" cy="1.001" r="1.001" transform="translate(1128.933 180.083)" fill="#67647e"/>
    <circle id="Ellipse_46" data-name="Ellipse 46" cx="1.001" cy="1.001" r="1.001" transform="translate(1129.933 195.038)" fill="#67647e"/>
    <circle id="Ellipse_47" data-name="Ellipse 47" cx="1.001" cy="1.001" r="1.001" transform="translate(1130.934 210.966)" fill="#67647e"/>
    <circle id="Ellipse_48" data-name="Ellipse 48" cx="1.001" cy="1.001" r="1.001" transform="translate(1130.536 226.722)" fill="#67647e"/>
    <path id="Path_176" data-name="Path 176" d="M468.907,311.845s-1.119,14.648-3.174,18.908-2.969,16.213-2.969,16.213l-4.771-.538a10.41,10.41,0,0,1-1.173-1.894l6.8-38.247L465.233,250l2.442-9.882.565-4.739.065-.027a1.926,1.926,0,0,1,1.7.027l.226.118q-.1.29-.194.6c-1.861,5.826-2.555,16.563-2.555,16.563s2.69,19.64,2.969,28.774S468.907,311.845,468.907,311.845Z" transform="translate(645.163 -100.422)" opacity="0.1"/>
    <path id="Path_177" data-name="Path 177" d="M450.119,436.444a2.755,2.755,0,0,1-.183.355c-1.85,3.125-6.541,5.11-7.967,5.654-.269-.479-.42-.758-.42-.758l.99-4.642,5.234-2.152a14.622,14.622,0,0,1,2.345,1.544Z" transform="translate(652.218 -192.713)" opacity="0.1"/>
    <path id="Path_178" data-name="Path 178" d="M424.566,298.81l-4.341,2.587-3.954,17.585s-4.949,14.917-1.146,25.573,6.014,16.757,6.014,16.757,1.522,12.1,3.809,13.093,3.271,1.522,3.271,1.522l.457,2.894s6.2-2.1,8.386-5.81-1.614-12.91-1.614-12.91-3.271-7.843-2.431-11.5-1.678-13.244-1.678-13.448-.226-5.331,1.614-9.252.613-5.594.613-5.594l-1.146-11.189Z" transform="translate(665.092 -129.83)" fill="#67647e"/>
    <path id="Path_179" data-name="Path 179" d="M550.283,338.614s-11.5,4.336-15.148.538-3.276-21.619-3.276-21.619-3.5-32.884-5.707-38.285-1.076-44.379-1.076-44.379-1.485-5.04-2.781-6.358a1.409,1.409,0,0,0-.274-.221l.446.1,1.56.334,2.421,1.942,7.762,50.13s13.448,38.6,15.966,54.175Z" transform="translate(615.036 -97.245)" opacity="0.1"/>
    <path id="Path_180" data-name="Path 180" d="M586.81,432.875h-.129c-1.447.188-14.217,1.732-14.271-.925a7.785,7.785,0,0,1,.048-.92l11.834-1.21,2.345,2.41h0c.043.156.075.29.108.4Z" transform="translate(591.752 -190.365)" opacity="0.1"/>
    <path id="Path_181" data-name="Path 181" d="M574.556,266.07l8.392,4.379s6.993,18.107,8.112,25.869c0,0,5.18,20.8,1.614,29.349S589.4,351.2,589.4,351.2s-2.055,3.12-2.894,2.286.307,3.271.307,3.271-14.347,1.9-14.406-.914,3.292-16.289,3.292-16.289.914-32.045-.382-37.069S574.556,266.07,574.556,266.07Z" transform="translate(591.753 -114.702)" fill="#67647e"/>
    <path id="Path_182" data-name="Path 182" d="M523.965,329.52s-4.723,11.565-6.245,12.329.307,3.8.307,3.8S526.628,333.63,523.965,329.52Z" transform="translate(617.302 -144.02)" opacity="0.1"/>
    <path id="Path_183" data-name="Path 183" d="M518.281,254.095c.054-.221-5.632,5.578-7.154,6.455S516.684,260.5,518.281,254.095Z" transform="translate(620.167 -109.165)" opacity="0.1"/>
    <path id="Path_184" data-name="Path 184" d="M488.621,327.82s-8.677,5.611-7.531,7.832S488.621,327.82,488.621,327.82Z" transform="translate(633.996 -143.234)" opacity="0.1"/>
    <path id="Path_185" data-name="Path 185" d="M524.47,480.07a46.446,46.446,0,0,0,18.876,5.917Z" transform="translate(613.904 -213.584)" opacity="0.1"/>
    <path id="Path_186" data-name="Path 186" d="M491.5,501.3s6.848,8.607,9.973,8.827S491.5,501.3,491.5,501.3Z" transform="translate(629.138 -223.394)" opacity="0.1"/>
    <path id="Path_187" data-name="Path 187" d="M502.233,564c-.307.151-3.884,7.762-7.531,7.994S502.233,564,502.233,564Z" transform="translate(627.997 -252.366)" opacity="0.1"/>
    <path id="Path_188" data-name="Path 188" d="M568.33,594.806s6.789-1.522,8.3,3.346C576.63,598.136,576.173,596.614,568.33,594.806Z" transform="translate(593.637 -266.496)" opacity="0.1"/>
    <path id="Path_189" data-name="Path 189" d="M559.84,646.25s8.225-1.678,9.973.608S559.84,646.25,559.84,646.25Z" transform="translate(597.56 -290.097)" opacity="0.1"/>
    <path id="Path_190" data-name="Path 190" d="M509.652,654c0,.075-8.37,1.678-8.069,2.743s8.93.915,9.236-.764a1.614,1.614,0,0,0-1.167-1.98Z" transform="translate(624.483 -293.952)" opacity="0.1"/>
    <path id="Path_191" data-name="Path 191" d="M554.75,667s13.755-1.678,12.91,1.216S554.75,667,554.75,667Z" transform="translate(599.912 -299.737)" opacity="0.1"/>
    <path id="Path_192" data-name="Path 192" d="M420.89,352.44c.075.226,9.059,1.447,10.274,4.341,0,0-8.827-4.115-10.221-4.115" transform="translate(661.765 -154.611)" opacity="0.1"/>
    <path id="Path_193" data-name="Path 193" d="M438.405,396.16s-7.461,2.362-6.929,5.917S430.718,400.431,438.405,396.16Z" transform="translate(656.886 -174.812)" opacity="0.1"/>
    <path id="Path_194" data-name="Path 194" d="M437.92,427.153s2.717-3.728,5.3-3.045S437.92,427.153,437.92,427.153Z" transform="translate(653.896 -187.688)" opacity="0.1"/>
    <path id="Path_195" data-name="Path 195" d="M492.615,165.329a4.233,4.233,0,0,1-.871.651c-2.152,1.253-2.743,3.185-3.766,5.412-.952,2.039-2,4.2-3.922,5.352-2.48,1.5-5.745.947-8.322,2.249a6.455,6.455,0,0,0-3.443,6.364,18.349,18.349,0,0,0,.732,2.916,20.793,20.793,0,0,1,.785,6.331,1.078,1.078,0,0,1,0,.188,17.58,17.58,0,1,1,18.828-29.462Z" transform="translate(641.805 -66.376)" opacity="0.1"/>
    <path id="Path_196" data-name="Path 196" d="M484.616,151.273c-1.931-4.056-6.132-6.627-10.452-7.881a17.554,17.554,0,0,0-10.151-.215,37.232,37.232,0,0,0-5.309,2.491c-3.26,1.646-6.842,2.948-9.3,5.654a2.833,2.833,0,0,0-.931,2.27,6.34,6.34,0,0,0,.92,1.646,5,5,0,0,1,.048,4.137,37.949,37.949,0,0,0-1.517,3.975,4.182,4.182,0,0,0,.818,3.986,14.906,14.906,0,0,0,1.538,1.076,8.1,8.1,0,0,1,1.458,1.657l2.9,3.97a40.269,40.269,0,0,1,3.636,5.589,26.635,26.635,0,0,0,2.249,4.266,4.868,4.868,0,0,0,4.077,2.179.791.791,0,0,0,.646-.307.849.849,0,0,0,.081-.4,20.645,20.645,0,0,0-.769-6.31,18.213,18.213,0,0,1-.732-2.916,6.482,6.482,0,0,1,3.443-6.364c2.582-1.3,5.847-.753,8.322-2.243,1.926-1.162,2.975-3.319,3.922-5.379,1.038-2.227,1.614-4.158,3.766-5.412S485.686,153.408,484.616,151.273Z" transform="translate(649.347 -57.614)" fill="#585268"/>
    <path id="Path_197" data-name="Path 197" d="M501.63,693.06s2.69,3.427,1.99,5.379S501.63,693.06,501.63,693.06Z" transform="translate(624.457 -312)" opacity="0.1"/>
    <path id="Path_198" data-name="Path 198" d="M569.28,704.965s.6-4.594,2.991-4.637,2.512-.247,4.341.457,3.545,1.8,3,1.958-3.147-2.625-5.815-1.2A19.215,19.215,0,0,0,569.28,704.965Z" transform="translate(593.198 -315.331)" opacity="0.1"/>
    <path id="Path_199" data-name="Path 199" d="M480.685,246.466l7.531-5.277s-11.017-6.509-12.329-5.594-2.216,9.145-2.216,9.145Z" transform="translate(637.377 -100.579)" opacity="0.1"/>
    <path id="Path_200" data-name="Path 200" d="M480.625,245.748l7.531-5.379s-11.017-6.509-12.329-5.594-2.216,9.6-2.216,9.6Z" transform="translate(637.405 -100.2)" fill="#e1e7ef"/>
    <path id="Path_201" data-name="Path 201" d="M480.625,245.748l7.531-5.379s-11.017-6.509-12.329-5.594-2.216,9.6-2.216,9.6Z" transform="translate(637.405 -100.2)" fill="#6c63ff"/>
    <path id="Path_202" data-name="Path 202" d="M454.945,234.65l-.226-.113a1.953,1.953,0,0,0-2.114.221l-22.593,18.327s-4.911,6.794-4.228,18.516l13.325,18.876s1.522-6.391,3.346-5.175c0,0,2.587,32.733,0,37.451s-3.728,22.378-3.728,22.378l8.752.99s.914-11.953,2.969-16.213S453.622,311,453.622,311s1.85-21.281,1.544-30.415S452.2,251.81,452.2,251.81,452.944,240.3,454.945,234.65Z" transform="translate(659.533 -100.033)" fill="#67647e"/>
    <path id="Path_203" data-name="Path 203" d="M513.827,239.8l-9.387-3.475s11.953-13.093,13.448-5.831Z" transform="translate(623.159 -97.25)" opacity="0.1"/>
    <path id="Path_204" data-name="Path 204" d="M513.827,238.952l-9.387-3.475s11.953-13.093,13.448-5.831Z" transform="translate(623.159 -96.857)" fill="#e1e7ef"/>
    <path id="Path_205" data-name="Path 205" d="M513.827,238.952l-9.387-3.475s11.953-13.093,13.448-5.831Z" transform="translate(623.159 -96.857)" fill="#6c63ff"/>
    <path id="Path_206" data-name="Path 206" d="M521.32,228.114a.538.538,0,0,1,.387.086Z" transform="translate(615.359 -97.16)" opacity="0.1"/>
    <path id="Path_207" data-name="Path 207" d="M523,226.422l24.906,5.379s6.853,1.522,11.8,18.725-6.778,38.279-6.778,38.279l-2.587-2.2,1.3,50.237s-11.5,4.336-15.148.538-3.271-21.636-3.271-21.636-3.5-32.878-5.713-38.285-1.076-44.374-1.076-44.374S524.4,226.121,523,226.422Z" transform="translate(614.583 -96.377)" fill="#67647e"/>
    <path id="Path_208" data-name="Path 208" d="M565.079,285.746c-.35.323-.758,15.525.764,27.1a147.664,147.664,0,0,0,4.3,20.856l-2.259-46.353S566.145,284.756,565.079,285.746Z" transform="translate(595.29 -123.689)" opacity="0.1"/>
    <path id="Path_209" data-name="Path 209" d="M559.7,261.6c.608.382,3.276,6.7,2.055,9.285S559.7,261.6,559.7,261.6Z" transform="translate(597.625 -112.636)" opacity="0.1"/>
    <path id="Path_210" data-name="Path 210" d="M496.034,153.864a13.749,13.749,0,0,0-5.476-5.734,13.024,13.024,0,0,1,4.1,4.841c1.076,2.152.758,4.3-1.334,5.481s-2.743,3.185-3.766,5.412c-.952,2.039-2,4.2-3.927,5.379-2.474,1.5-5.74.941-8.322,2.243a6.5,6.5,0,0,0-3.443,6.369,18.291,18.291,0,0,0,.737,2.91,20.81,20.81,0,0,1,.785,6.331.85.85,0,0,1-.086.4.769.769,0,0,1-.64.307,3.706,3.706,0,0,1-1.877-.35,4.368,4.368,0,0,0,3.228,1.264.635.635,0,0,0,.721-.71,20.64,20.64,0,0,0-.78-6.331,17.669,17.669,0,0,1-.737-2.916,6.482,6.482,0,0,1,3.443-6.364c2.582-1.3,5.847-.753,8.322-2.243,1.926-1.162,2.975-3.319,3.922-5.379,1.038-2.227,1.614-4.158,3.766-5.412S497.11,156,496.034,153.864Z" transform="translate(637.783 -60.205)" opacity="0.1"/>
    <path id="Path_211" data-name="Path 211" d="M710.8,232.04c-7.413-.145-13.954-5.379-17.66-11.775a11.834,11.834,0,0,1-1.786-5.04,5.819,5.819,0,0,1,.2-1.2,12.5,12.5,0,0,0,.538-1.845,3.231,3.231,0,0,0,0-.753s0,0,0-.043a4.45,4.45,0,0,0-1.614-3.62c-.99-.931-2.232-1.614-3.265-2.539-3.185-2.8-4.153-7.284-4.212-11.555v-.226c.038-1.829.183-3.663.167-5.492a23.1,23.1,0,0,0-.134-3.109,10.274,10.274,0,0,0-3.324-6.875c-5.3-4.3-14.223.178-19.715-3.889-1.334-1-2.415-2.464-4.035-2.851a6.8,6.8,0,0,0-3.685.5c-4.045,1.334-8.558,3.088-10.14,6.993-.9,2.243-.651,4.8-1.479,7.074a35.317,35.317,0,0,1-2.313,4.271,6.687,6.687,0,0,0-.861,3.566,4.024,4.024,0,0,0,.264,1.9,4.841,4.841,0,0,0,1.318,1.888,6.274,6.274,0,0,1-.785,1.259c-1.033,1.264-2.62,2.152-3.7,3.41-1.99,2.308-1.915,5.444-.936,8.155s2.749,5.18,3.97,7.822a4.2,4.2,0,0,1,.4,3.566,10.226,10.226,0,0,1-1.786,2.076,6.525,6.525,0,0,0-1.614,3.6c-12.109,2.765-12.12,12.5-12.12,12.5h0l-6.541,16.45s-1.049,2.77-2.281,6.428l-7.741-1.388,5.379,9c-1.017,3.669-1.737,7.068-1.5,8.779,0,0-2.4,11.3,1.872,13.271l9.435,4.244a5.589,5.589,0,0,0,1.307.586l.382.172a1.012,1.012,0,0,0,.882,0h.129a1.27,1.27,0,0,0,.538-.081,1.076,1.076,0,0,0,.473-.511.166.166,0,0,1,0-.054l2.824-.818,2.394,2.835c1.076.758,2.152,1.415,3.168,2.007l-3.706,36.805s-.6,48.952-2.4,60.108a31.241,31.241,0,0,0-.42,8.865l-.07.118c.446,3.147,1.614,3.766,1.614,3.766v-.043a.352.352,0,0,0,.07.043,31.69,31.69,0,0,1,1.937-4.153v.807c-.038,4.153-.167,9.968-.6,13.75-.732,6.455,1.872,27.73,1.872,27.73l.9,19.366a17.9,17.9,0,0,1-2.206,9.435c-2.152,3.868-4.9,9.312-5.1,11.727a2.424,2.424,0,0,0,0,.393h0L620.5,495s-1.8,2.786,2.27,3.911c2.189.608,5.966,0,9-.715a6.014,6.014,0,0,0,4.664-5.853,20.71,20.71,0,0,1,3.809-7.31l.758,4.459,5.078,1.259.651-12.222a5.38,5.38,0,0,0,.35-2.152h0c1-8.693-2.356-7.913-2.356-7.913a.468.468,0,0,1,.161.3l-.161-.3h0c-2.06-4.067-1.076-10.759-1.076-10.759s2.69-19.366,3.609-24.481c.662-3.615.387-15.449.167-22.055a7.868,7.868,0,0,0-.027-.8c7.875-.1,17.526-.366,24.3-1.022v.8l-1.248,45.751a25.116,25.116,0,0,1-1.754,8.51.465.465,0,0,1-.059.156,37.115,37.115,0,0,0-2.48,11.99l-.581,14.524v.4h0c-1.011.387-2.609,1.512-2.652,4.771-.07,4.777,8.349,3.185,8.349,3.185,8.413,0,8.483-8.758,8.483-8.758s.264-8.031.667-13.405-1.27-4.191-1.27-4.191l-.129,15.288V475.088l.129-1.942v-.054h0v-.414l1.06-15.767s7.752-26.273,8.951-31.313c.855-3.583.5-14.373.221-20.339a4.736,4.736,0,0,0-.043-.791c2.4-.215,4.529-.237,5.379-.237h.393s-.4-42.2-1.4-58.1-2.6-30.452-6.611-34.831c-2.421-2.647-5.794-10.818-8.069-16.869a84.389,84.389,0,0,0,14.831,4.841c12.69,2.657,10.952-8.359,10.952-8.359l-1.286-20.834h.086a106.227,106.227,0,0,0-1.4-16.289,47.924,47.924,0,0,0-3.271-11.834c1.377-.538,2.738-1.113,4.072-1.705,3.448-1.522,7.332-3.679,7.827-7.4h-.167A4.792,4.792,0,0,0,710.8,232.04Zm-78.662,30.124h0c.027,2.152-.054,5.885-.183,10.011l-4.029-5.379,4.04-6.552ZM686.124,273.09Zm1.678,8.139-6.713-2.152a30.123,30.123,0,0,1,4.147-5.132l.581-.538-.21.043.323-.3.194-.043-.307.3.366-.075a11.452,11.452,0,0,0,2.286,4.6c2.41,2.63-.662,3.3-.662,3.3Z" transform="translate(576.259 -70.828)" fill="url(#linear-gradient-2)"/>
    <path id="Path_212" data-name="Path 212" d="M645.268,715.66l-.785,14.89-5.008-1.253L638.42,723.1Z" transform="translate(578.013 -311.609)" fill="#a27772"/>
    <path id="Path_213" data-name="Path 213" d="M645.268,715.66l-.785,14.89-5.008-1.253L638.42,723.1Z" transform="translate(578.013 -311.609)" opacity="0.1"/>
    <path id="Path_214" data-name="Path 214" d="M716.48,685.549l7.639,1.582,5.664-5v-14.1l.129-1.926v-.059h0v-.409l1.054-15.67s7.644-26.084,8.833-31.092c.839-3.55.49-14.266.21-20.188-.113-2.426-.21-4.051-.21-4.051l-16.864-4.083-.355,12.964-1.232,45.423a25.17,25.17,0,0,1-1.727,8.451l-.059.156a36.967,36.967,0,0,0-2.448,11.9l-.57,14.443v.4Z" transform="translate(525.182 -264.634)" fill="#cc818c"/>
    <path id="Path_215" data-name="Path 215" d="M741.45,730.141v.4h0v-.409Z" transform="translate(513.644 -329.129)" opacity="0.1"/>
    <path id="Path_216" data-name="Path 216" d="M716.48,763.181l7.639,1.582,5.664-5v-1.2a1.614,1.614,0,0,1-.812,1.291l-.081.048a15.224,15.224,0,0,1-8.575,1.694l-2.98-.253a2.8,2.8,0,0,0-.791.194v.4Z" transform="translate(525.182 -342.266)" opacity="0.1"/>
    <path id="Path_217" data-name="Path 217" d="M726.681,747.412l.081-.043a1.614,1.614,0,0,0,.823-1.4l.124-15.175s1.646-1.178,1.248,4.158-.656,13.308-.656,13.308-.064,8.693-8.365,8.693c0,0-8.3,1.581-8.236-3.163s3.427-4.938,3.427-4.938l2.98.258A15.185,15.185,0,0,0,726.681,747.412Z" transform="translate(527.391 -329.386)" fill="#b07473"/>
    <path id="Path_218" data-name="Path 218" d="M642.52,686.591c.194,3.427,10.275,1.447,10.275,1.447l6.783-13.169s5.664-4.352,2.83-8.171a6.083,6.083,0,0,1-.414-.651l-.027-.032h0c-.059-.1-.113-.2-.167-.307h0c-2.033-4.035-1.033-10.651-1.033-10.651s2.63-19.236,3.556-24.309c.651-3.583.382-15.336.167-21.91-.086-2.733-.167-4.567-.167-4.567l-16.735-4.481v4.992c-.038,4.126-.167,9.9-.592,13.653-.721,6.385,1.845,27.531,1.845,27.531l.888,19.242a17.822,17.822,0,0,1-2.152,9.365c-2.1,3.841-4.841,9.252-5.03,11.646A2.352,2.352,0,0,0,642.52,686.591Z" transform="translate(559.356 -268.903)" fill="#cc818c"/>
    <path id="Path_219" data-name="Path 219" d="M642.516,743.5c.194,3.427,10.275,1.447,10.275,1.447l6.783-13.169s5.664-4.352,2.83-8.171a6.093,6.093,0,0,1-.414-.651c-.091,2-2.281,6.993-2.281,6.993s-5.6,11.205-7.38,13.771-9.516-.479-9.806-.586A2.353,2.353,0,0,0,642.516,743.5Z" transform="translate(559.36 -325.816)" opacity="0.1"/>
    <path id="Path_220" data-name="Path 220" d="M657.5,722.285s3.314-.769,2.324,7.859h0a5.556,5.556,0,0,1-2.62,4.933,18.838,18.838,0,0,0-7.881,10.931h0a5.96,5.96,0,0,1-4.6,5.81c-2.991.7-6.719,1.313-8.876.71-4.018-1.119-2.238-3.884-2.238-3.884l4.61-5.471s8.037,3.163,9.812.592S655.415,730,655.415,730,658.486,723.011,657.5,722.285Z" transform="translate(563.654 -325.496)" fill="#b07473"/>
    <path id="Path_221" data-name="Path 221" d="M728.175,593.52l-.355,12.964c4.492-.436,7.709-1.044,8.257-1.9,1.189-1.84,5.5-2.614,9.172-2.932-.113-2.426-.21-4.051-.21-4.051Z" transform="translate(519.942 -266.006)" opacity="0.1"/>
    <path id="Path_222" data-name="Path 222" d="M651.94,607.712a6.154,6.154,0,0,1,1.845-2.227c1.775-.984,1.582,6.326,1.582,6.326s5.917.054,13.475-.043c-.086-2.733-.167-4.572-.167-4.572L651.94,602.72S651.972,604.8,651.94,607.712Z" transform="translate(555.004 -270.257)" opacity="0.1"/>
    <path id="Path_223" data-name="Path 223" d="M646.892,510.307s1.98-5.379,3.766-6.337,1.582,6.321,1.582,6.321,43.476.4,45.649-2.964,14.82-3.163,14.82-3.163-.393-41.894-1.382-57.7-2.566-30.237-6.52-34.584c-2.555-2.813-6.192-11.915-8.44-17.983-1.221-3.314-2.033-5.729-2.033-5.729l-41.5,2.367L652.5,393.9l-4.406,44.067s-.592,48.613-2.372,59.678S646.892,510.307,646.892,510.307Z" transform="translate(558.142 -171.12)" fill="#444053"/>
    <g id="Group_206" data-name="Group 206" transform="translate(1203.34 217.05)" opacity="0.1">
      <path id="Path_224" data-name="Path 224" d="M702.689,507.327c2.152-3.357,14.82-3.163,14.82-3.163s-.393-41.894-1.382-57.7-2.566-30.237-6.52-34.584c-2.566-2.824-6.192-11.915-8.44-17.983-1.027-2.786-1.764-4.933-1.969-5.546l3.228-.183s.812,2.415,2.039,5.729c2.249,6.068,5.88,15.17,8.435,17.983,3.954,4.346,5.535,18.774,6.52,34.584s1.388,57.7,1.388,57.7-12.647-.194-14.825,3.163c-1.856,2.867-33.847,3-43.131,2.975C674.765,510.275,701.011,509.92,702.689,507.327Z" transform="translate(-653.377 -388.17)"/>
      <path id="Path_225" data-name="Path 225" d="M647.322,603.361c.8-.446,1.2.791,1.4,2.292a31.044,31.044,0,0,0-1.867,4.045s-1.146-.619-1.614-3.766A7.323,7.323,0,0,1,647.322,603.361Z" transform="translate(-645.24 -487.56)"/>
    </g>
    <path id="Path_226" data-name="Path 226" d="M665.122,194.634c-2.873,3.916.032,9.484-3.05,13.292-1.017,1.259-2.582,2.152-3.642,3.389-1.964,2.292-1.888,5.406-.925,8.1s2.69,5.143,3.916,7.768a4.155,4.155,0,0,1,.4,3.54,10.026,10.026,0,0,1-1.764,2.06,7.43,7.43,0,0,0-.968,7.886c1.065,2.6,3.1,4.841,5.1,7.047a3.484,3.484,0,0,0,5.062,1.157,19.9,19.9,0,0,0,9.059-25.977c-1.668-4-4.449-7.827-4.476-12.05,0-3.351,1.721-6.552,2.028-9.887.371-4.056-2.028-10.5-6.923-12.265C669.264,191.294,666.579,192.622,665.122,194.634Z" transform="translate(552.737 -78.947)" fill="#585268"/>
    <path id="Path_227" data-name="Path 227" d="M665.122,194.634c-2.873,3.916.032,9.484-3.05,13.292-1.017,1.259-2.582,2.152-3.642,3.389-1.964,2.292-1.888,5.406-.925,8.1s2.69,5.143,3.916,7.768a4.155,4.155,0,0,1,.4,3.54,10.026,10.026,0,0,1-1.764,2.06,7.43,7.43,0,0,0-.968,7.886c1.065,2.6,3.1,4.841,5.1,7.047a3.484,3.484,0,0,0,5.062,1.157,19.9,19.9,0,0,0,9.059-25.977c-1.668-4-4.449-7.827-4.476-12.05,0-3.351,1.721-6.552,2.028-9.887.371-4.056-2.028-10.5-6.923-12.265C669.264,191.294,666.579,192.622,665.122,194.634Z" transform="translate(552.737 -78.947)" opacity="0.1"/>
    <path id="Path_228" data-name="Path 228" d="M704.373,464.55c-5.751.3-11.162,2.776-16.2,5.573s-9.909,5.966-15.326,7.951" transform="translate(545.342 -206.413)" opacity="0.1"/>
    <path id="Path_229" data-name="Path 229" d="M701.623,489.74A23.707,23.707,0,0,0,686.7,497c-1.4,1.479-2.6,3.136-4.061,4.556a18.042,18.042,0,0,1-8,4.535" transform="translate(544.519 -218.053)" opacity="0.1"/>
    <path id="Path_230" data-name="Path 230" d="M699.04,508.91a26.1,26.1,0,0,0-12.007,7.241c-.882.952-1.684,1.969-2.566,2.921-4.761,5.11-11.485,7.822-17.978,10.388" transform="translate(548.281 -226.91)" opacity="0.1"/>
    <path id="Path_231" data-name="Path 231" d="M706.484,242.821a118.029,118.029,0,0,0,1.184,13.728c.538,3.228,1.291,6.132,2.372,7.418,3.163,3.766-15.412,8.8-15.412,8.8l-10.968-8.5s8.693-8,4.642-15.81S706.484,242.821,706.484,242.821Z" transform="translate(540.347 -103.831)" fill="#cc818c"/>
    <path id="Path_232" data-name="Path 232" d="M658.79,393.9h43.868c-1.221-3.314-2.033-5.729-2.033-5.729l-41.5,2.367Z" transform="translate(551.839 -171.12)" opacity="0.1"/>
    <path id="Path_233" data-name="Path 233" d="M646.184,339.541h46.9a16.274,16.274,0,0,1,1.877-12.437,27.488,27.488,0,0,1,4.911-6.369l.323-.3,16.375-3.626.882-.194s.134-29.774-10.409-33.863a61.641,61.641,0,0,1-16.864-9.613l-14.486,4.476-10.673-5.379c-3.427,3.685-12.518,2.238-12.518,2.238-14.884,1.711-14.884,12.91-14.884,12.91s8.693,20.285,9.355,20.285S646.184,339.541,646.184,339.541Z" transform="translate(561.621 -117.553)" fill="#6c63ff"/>
    <path id="Path_234" data-name="Path 234" d="M672.629,357.156s-9.564-2.119-12.819-5.826" transform="translate(551.367 -154.098)" opacity="0.1"/>
    <path id="Path_235" data-name="Path 235" d="M763.762,341.51,752.67,350.6a18.916,18.916,0,0,0,.366,2.152l.323-.3,16.375-3.626Z" transform="translate(508.46 -149.56)" opacity="0.1"/>
    <path id="Path_236" data-name="Path 236" d="M717.46,380.38s2.426,1.366,6.143,3.163h6.374a16.274,16.274,0,0,1,1.877-12.437l-11.237-3.636C724.442,371.026,717.46,380.38,717.46,380.38Z" transform="translate(524.729 -161.555)" opacity="0.1"/>
    <path id="Path_237" data-name="Path 237" d="M632.883,293.76l-6.584,3.556-6.455,16.337s-6.719,17.913-6.062,22.658c0,0-2.367,11.2,1.845,13.174l10.974,4.97a1.022,1.022,0,0,0,1.318-1.409c-1.565-2.964-3.287-7.6-.538-10.151l-3.163-6.584L635.648,317.6l3.819-6.455Z" transform="translate(572.942 -127.496)" fill="#6c63ff"/>
    <path id="Path_238" data-name="Path 238" d="M677.016,351.312c.57,2.324,2.5,5.917,8.87,7.257l6.993,5.729,7.44,3.373,3.034,1.372,1.286-9.29-2.921-1.614-3.405-1.861s-7.682-13.916-19.844-8.069A2.69,2.69,0,0,0,677.016,351.312Z" transform="translate(543.456 -151.992)" opacity="0.1"/>
    <path id="Path_239" data-name="Path 239" d="M677.766,349.868c.57,2.329,2.491,5.917,8.865,7.257l6.993,5.729,7.445,3.373L704.1,367.6l1.286-9.29-2.921-1.614-3.378-1.845s-7.687-13.916-19.85-8.042A2.69,2.69,0,0,0,677.766,349.868Z" transform="translate(543.105 -151.34)" fill="#cc818c"/>
    <circle id="Ellipse_49" data-name="Ellipse 49" cx="16.993" cy="16.993" r="16.993" transform="translate(1217.584 117.054)" opacity="0.1"/>
    <circle id="Ellipse_50" data-name="Ellipse 50" cx="16.993" cy="16.993" r="16.993" transform="translate(1217.584 116.661)" fill="#cc818c"/>
    <path id="Path_240" data-name="Path 240" d="M718.49,285.727l-5.11-9.93s7.477-3.023,8.021-6.525,7.165,4.1,5.734,6.627S718.49,285.727,718.49,285.727Z" transform="translate(526.614 -115.763)" opacity="0.1"/>
    <path id="Path_241" data-name="Path 241" d="M718.49,284.258l-5.11-9.93s7.477-3.023,8.021-6.525,7.165,4.11,5.734,6.627S718.49,284.258,718.49,284.258Z" transform="translate(526.614 -115.084)" fill="#6c63ff"/>
    <path id="Path_242" data-name="Path 242" d="M627.627,343.69l28.236,37.962s-10.409,5.664-24.745-4.476l-6.192-7.38L607.25,340Z" transform="translate(575.654 -148.862)" fill="#f6f8fb"/>
    <path id="Path_243" data-name="Path 243" d="M634.232,376.829l2.571-.07s15.708-15.245,19.565-7.531-9.785,14.922-9.785,14.922l-4.147,2.238L637.029,388l-3.459-4.642Z" transform="translate(563.492 -161.361)" fill="#cc818c"/>
    <path id="Path_244" data-name="Path 244" d="M634.969,392.077a3.838,3.838,0,0,1,.065,2.657,1.076,1.076,0,0,1-.468.511,1.2,1.2,0,0,1-.538.075,5.407,5.407,0,0,1-3.545-1.754,16.2,16.2,0,0,1-2.3-3.324c-.7-1.221-1.426-2.571-1.178-3.959.28-1.512,1.614-2.561,2.921-3.41,2.6-1.721,2.69.285,3.26,2.5S634.372,389.839,634.969,392.077Z" transform="translate(566.547 -168.373)" opacity="0.1"/>
    <path id="Path_245" data-name="Path 245" d="M634.237,392.077a3.868,3.868,0,0,1,.065,2.657,1.076,1.076,0,0,1-.468.511,1.21,1.21,0,0,1-.538.075,5.379,5.379,0,0,1-3.545-1.754,16,16,0,0,1-2.3-3.324c-.7-1.221-1.426-2.571-1.173-3.959.274-1.512,1.614-2.561,2.916-3.41,2.609-1.721,2.69.285,3.265,2.5S633.635,389.839,634.237,392.077Z" transform="translate(566.886 -168.373)" fill="#6c63ff"/>
    <path id="Path_246" data-name="Path 246" d="M623.85,316.032l1.313-2.222-1.146,4.126Z" transform="translate(584.745 -125.927)" opacity="0.1"/>
    <path id="Path_247" data-name="Path 247" d="M721.19,375.962l3.029,1.372,1.286-9.29-2.921-1.614C724.6,368.743,722.836,373.02,721.19,375.962Z" transform="translate(523.005 -161.075)" opacity="0.1"/>
    <path id="Path_248" data-name="Path 248" d="M731.822,362.321s-9.78.6-13.932-2.071" transform="translate(524.53 -158.219)" opacity="0.1"/>
    <g id="Group_207" data-name="Group 207" transform="translate(1213.501 155.462)" opacity="0.1">
      <path id="Path_249" data-name="Path 249" d="M737.787,329.35a27.529,27.529,0,0,1,4.911-6.374,13.115,13.115,0,0,1,1.447-.785l15.245-3.131.882-.194s.134-29.774-10.4-33.863a63.326,63.326,0,0,1-16.439-9.258l1.157-.355A61.478,61.478,0,0,0,751.451,285c10.543,4.083,10.4,33.863,10.4,33.863h-1.582l-15.6,2.986s-.672.651-.877.839a30.23,30.23,0,0,0-4.987,6.6,16.536,16.536,0,0,0-1.307,12.5h-1.614A16.443,16.443,0,0,1,737.787,329.35Z" transform="translate(-696.151 -274.47)"/>
      <path id="Path_250" data-name="Path 250" d="M664.13,277.912c.253-.038.495-.075.758-.1a27.277,27.277,0,0,0,3.228.264A29.339,29.339,0,0,1,664.13,277.912Z" transform="translate(-664.13 -275.588)"/>
      <path id="Path_251" data-name="Path 251" d="M697.411,279.075l-9.651-4.884a5.1,5.1,0,0,0,.538-.511l10.07,5.094Z" transform="translate(-675.049 -273.68)"/>
    </g>
    <path id="Path_252" data-name="Path 252" d="M748.212,340l6.455,7.908,1.318,21.474s1.711,10.931-10.8,8.295S718.19,366.9,718.19,366.9s6.993-9.355,3.163-12.91l17.919,5.8s3.029-.662.656-3.292-2.792-7.38-2.792-7.38Z" transform="translate(524.392 -148.862)" fill="#6c63ff"/>
    <path id="Path_253" data-name="Path 253" d="M779.42,382.17l3.556,4.083A5.126,5.126,0,0,1,779.42,382.17Z" transform="translate(496.099 -168.348)" opacity="0.1"/>
    <path id="Path_254" data-name="Path 254" d="M736.99,360.8l5.535,7.111-2.765.662Z" transform="translate(532.467 -147.64)" opacity="0.1"/>
    <path id="Path_255" data-name="Path 255" d="M665.34,198.491a5.676,5.676,0,0,1,.592-4.632,36.588,36.588,0,0,0,2.286-4.244c.812-2.249.565-4.793,1.452-6.993,1.565-3.9,6.014-5.643,10-6.993a6.723,6.723,0,0,1,3.636-.495c1.614.382,2.663,1.845,3.981,2.829,5.412,4.035,14.212-.409,19.446,3.862a10.178,10.178,0,0,1,3.276,6.821,60.21,60.21,0,0,1-.032,7.757c-.086,4.529.764,9.484,4.153,12.485,1.022.9,2.227,1.582,3.228,2.518a4.407,4.407,0,0,1,1.614,3.6,12.481,12.481,0,0,1-.538,1.829c-.672,2.362.334,4.841,1.56,6.993,3.658,6.331,10.108,11.549,17.418,11.695-.49,3.69-4.3,5.831-7.719,7.343-4.3,1.931-8.887,3.825-13.626,3.583s-9.683-3.276-10.511-7.945c-.285-1.614-.247-3.556-1.614-4.395-.839-.511-1.926-.382-2.83-.764-1.307-.538-1.953-2.006-2.383-3.357a30.215,30.215,0,0,1-1.4-8.607c-.059-3.464.4-7.246-1.565-10.1-1.818-2.641-5.046-3.981-7.144-6.407-1.937-2.249-4.04-4.96-7.214-5.379C677.013,198.878,667.933,204.844,665.34,198.491Z" transform="translate(548.941 -72.636)" opacity="0.1"/>
    <path id="Path_256" data-name="Path 256" d="M665.34,197.021a5.676,5.676,0,0,1,.592-4.632,36.591,36.591,0,0,0,2.286-4.244c.812-2.249.565-4.793,1.452-6.993,1.565-3.905,6.014-5.648,10-6.993a6.723,6.723,0,0,1,3.636-.495c1.614.382,2.663,1.845,3.981,2.829,5.412,4.035,14.212-.409,19.446,3.862a10.18,10.18,0,0,1,3.276,6.826,60.123,60.123,0,0,1-.032,7.752c-.086,4.529.764,9.484,4.153,12.485,1.022.9,2.227,1.582,3.228,2.518a4.407,4.407,0,0,1,1.614,3.6,12.479,12.479,0,0,1-.538,1.829c-.672,2.362.334,4.841,1.56,6.993,3.669,6.31,10.092,11.544,17.4,11.689-.49,3.69-4.3,5.831-7.719,7.348-4.3,1.926-8.887,3.819-13.626,3.577s-9.683-3.276-10.511-7.945c-.285-1.614-.247-3.556-1.614-4.395-.839-.511-1.926-.382-2.83-.764-1.307-.538-1.953-2.006-2.383-3.357a30.18,30.18,0,0,1-1.4-8.607c-.059-3.464.4-7.246-1.565-10.1-1.818-2.641-5.046-3.981-7.144-6.407-1.937-2.249-4.04-4.96-7.214-5.379C677.013,197.408,667.933,203.384,665.34,197.021Z" transform="translate(548.941 -71.957)" fill="#585268"/>
    <path id="Path_257" data-name="Path 257" d="M685.12,284.919l9.742-7.908s-6.67-3.615-7.467-6.7-6.132,1.463-5.589,4.228S685.12,284.919,685.12,284.919Z" transform="translate(541.221 -116.186)" opacity="0.1"/>
    <path id="Path_258" data-name="Path 258" d="M685.858,282.713l9.742-7.9s-6.67-3.615-7.434-6.7-6.132,1.463-5.589,4.228S685.858,282.713,685.858,282.713Z" transform="translate(540.865 -115.169)" fill="#6c63ff"/>
    <circle id="Ellipse_51" data-name="Ellipse 51" cx="0.775" cy="0.775" r="0.775" transform="translate(1236.073 165.484)" opacity="0.1"/>
    <circle id="Ellipse_52" data-name="Ellipse 52" cx="0.775" cy="0.775" r="0.775" transform="translate(1236.073 169.787)" opacity="0.1"/>
    <circle id="Ellipse_53" data-name="Ellipse 53" cx="0.775" cy="0.775" r="0.775" transform="translate(1236.073 174.085)" opacity="0.1"/>
    <g id="Group_208" data-name="Group 208" transform="translate(1214.124 107.462)" opacity="0.1">
      <path id="Path_259" data-name="Path 259" d="M672.021,191.067c.769-2.114.6-4.486,1.323-6.617a7.226,7.226,0,0,0-.823,1.517c-.893,2.222-.64,4.766-1.458,6.993l-.054.129A12.289,12.289,0,0,0,672.021,191.067Z" transform="translate(-667.932 -184.45)"/>
      <path id="Path_260" data-name="Path 260" d="M730.836,254.486c-4.3,1.926-8.887,3.819-13.626,3.577s-9.683-3.276-10.511-7.94c-.285-1.614-.247-3.561-1.614-4.4-.839-.511-1.926-.382-2.829-.764-1.307-.538-1.953-2.006-2.383-3.357a30.18,30.18,0,0,1-1.4-8.607c-.059-3.459.4-7.241-1.56-10.1-1.824-2.641-5.051-3.975-7.149-6.407-1.937-2.243-4.04-4.96-7.214-5.379-4.352-.592-13.448,5.379-16.02-.979a5,5,0,0,1,.167-3.674c-.188.317-.371.635-.538.958a5.7,5.7,0,0,0-.586,4.637c2.587,6.348,11.668.382,16.02.979,3.174.43,5.277,3.147,7.214,5.379,2.1,2.431,5.326,3.766,7.144,6.412,1.969,2.851,1.506,6.633,1.565,10.092a30.178,30.178,0,0,0,1.4,8.607c.43,1.356,1.076,2.808,2.383,3.357.9.382,1.99.258,2.829.764,1.388.839,1.35,2.8,1.614,4.4.839,4.664,5.777,7.7,10.511,7.94s9.3-1.646,13.626-3.577c3.12-1.388,6.6-3.308,7.531-6.455C735.914,252,733.267,253.405,730.836,254.486Z" transform="translate(-665.288 -194.62)"/>
    </g>
    <path id="Path_261" data-name="Path 261" d="M875.311,300.27c-11.388-6.552-15.691-8.166-15.713-8.166l-.237-.167a9.473,9.473,0,0,1-2.867-3.626,7.574,7.574,0,0,1,0-.78.331.331,0,0,0,0,.075c.178-3.47,2.647-6.627,4.987-9.382l5.987-7.042a6.939,6.939,0,0,0,1.544-2.442,5.631,5.631,0,0,0,.161-1.5q0-.307,0-.613c-.032-1.748-.081-3.5-.145-5.25-.054-1.528-.446-3.454-1.974-3.766-.8-.161-1.85.124-2.27-.538a1.307,1.307,0,0,1-.1-.909.311.311,0,0,0,0,.075v-.086a20.265,20.265,0,0,0,.565-3.6,4.905,4.905,0,0,0-.247-1.824c-.882-2.534-3.932-3.577-6.627-4.056s-5.718-.888-7.407-3a21.916,21.916,0,0,0-1.474-2.028,5.815,5.815,0,0,0-2.754-1.361,15.6,15.6,0,0,0-10.022.871c-1.3.581-2.609,1.366-4.04,1.28s-2.754-1.119-4.217-1.366c-2.367-.4-4.632,1.334-5.8,3.394a8.3,8.3,0,0,0-1.076,4v.237h0a5.852,5.852,0,0,0,1.539,4.088c1.022,1.076,2.539,1.786,2.964,3.179.172.565.129,1.178.285,1.754a1.576,1.576,0,0,0,.065.21l-.075.1a17.751,17.751,0,0,0-3.766,10.941,18.16,18.16,0,0,0,12.76,17.214v.538a7.739,7.739,0,0,1-2.474,6.025l-16.133,6.444s-9.726-1.157-13.233,13.056a24.235,24.235,0,0,0-.6,7.208,20.9,20.9,0,0,1-2.69,10.8c-3.986,7.811-3.077,25.74,5.078,27.515,7.7,1.678,10.71.979,11.028.9v.312c-.129,3.367-1.35,32.383-5.788,35.891-1.227.974-1,1.614,0,2.071,0,0,0,.188-.027.538-.134,2.152-.818,10.221-3.766,14.8-3.448,5.326-3.088,36.041-3.088,36.041l-2.351,18.107s1.447,11.184,0,13.136c-1.3,1.737-3.018,43.11-3.378,52.082h-.151a4.368,4.368,0,0,0-3.486,2.152c-1.9,3.093-8.575,8.811-8.575,8.811-1.447,2.055-6.8,4.024-9.629,4.949a5.992,5.992,0,0,0-1.076.473,5.74,5.74,0,0,0-2.431,2.561,2.749,2.749,0,0,0-.258,2.152c.721,1.77,15.767,3.018,19.575,1.237,2.991-1.393,14.847-3.228,19.769-3.948a4.056,4.056,0,0,0,3.518-3.518,2.319,2.319,0,0,0-.452-1.759c-.941-1.167-1.42-4.357-1.614-6.455a4.363,4.363,0,0,0,1.108-.656,47.258,47.258,0,0,1,2.69-18.994c3.626-9.586,4.712-27.338,3.809-38.876,0,0,11.054-47.575,19.758-52.013h0c.135.172,4.357,5.589,4.9,22.367.538,17.042,6.7,28.225,6.7,28.225s-2.722,28.935,0,39.764l-3.556,17.079c-.264-.221-.43-.393-.43-.393s.108.473.253,1.232l-.075.366.156.032a33.619,33.619,0,0,1,.753,8.069c-.14,1.243-.49,2.948-.726,4.621-.377,2.63-.479,5.18.9,5.74,2.27.914,15.6,2.152,17.859-.775a4.191,4.191,0,0,0,.656-4.384,4.436,4.436,0,0,0-.656-1.119s-3.54-5.783-2.539-9.86a3,3,0,0,0-.425-2.34,120.275,120.275,0,0,1,3.05-19.129c2.27-8.542,7.052-27.273,3.534-39.586h0q-.2-.726-.452-1.42a53.168,53.168,0,0,1-2-20.77,42.33,42.33,0,0,1,0-18.107c2.179-9.941,3.7-19.7,3.7-19.7s1.2-13.136.151-21.189a5.288,5.288,0,0,0-.07-.538l.57-.129s-3.082-13.669-4.169-22.367c-.258-2.055-.592-4.653-.958-7.429a18.958,18.958,0,0,0,2.953-.737c9.785-3.373,12.867-33.89,12.867-33.89v-9.683S886.731,306.838,875.311,300.27ZM802.389,536.013c-.3-.151-.479-.253-.479-.253h0Z" transform="translate(499.429 -102.581)" fill="url(#linear-gradient-3)"/>
    <path id="Path_262" data-name="Path 262" d="M892.086,605.192c4.244,12.206-.71,32.018-3.012,40.883a123.591,123.591,0,0,0-3.007,19.462,40.988,40.988,0,0,1-15.568-.355l3.717-18.22c-2.657-10.791,0-39.629,0-39.629S868.2,596.187,867.67,579.2c-.538-16.714-4.642-22.12-4.771-22.286h0c-8.489,4.422-19.279,51.835-19.279,51.835.882,11.5-.183,29.188-3.717,38.731a47.876,47.876,0,0,0-2.652,18.924c-1.237,1.076-2.959,1.227-4.841.925-5.051-.818-11.108-5.17-11.108-5.17s1.942-51.641,3.362-53.6,0-13.093,0-13.093l2.3-18.042s-.355-30.608,3.007-35.912c2.9-4.583,3.572-12.641,3.7-14.755v-.538l5.121-6.132s49.533-3.717,53.255,0c.909.909,1.474,2.985,1.807,5.594,1.022,8.026-.151,21.114-.151,21.114s-1.485,9.731-3.609,19.635a43.1,43.1,0,0,0,0,18.047A54.025,54.025,0,0,0,892.086,605.192Z" transform="translate(476.748 -231.314)" fill="#65617d"/>
    <path id="Path_263" data-name="Path 263" d="M931.087,805.119c-2.211,2.921-15.213,1.684-17.429.775-1.35-.538-1.248-3.1-.882-5.724.231-1.662.57-3.362.71-4.6.35-3.185-1.076-9.645-1.076-9.645s2.916,3.1,3.62,0a3.374,3.374,0,0,1,2.528-2.4,6.605,6.605,0,0,1,4.594.285c2.3,1,6.127,3.125,5.444,6-.974,4.061,2.475,9.828,2.475,9.828a4.476,4.476,0,0,1,.646,1.108,4.244,4.244,0,0,1-.629,4.373Z" transform="translate(434.649 -353.671)" fill="#a27772"/>
    <path id="Path_264" data-name="Path 264" d="M931.2,819.659c-2.211,2.921-15.213,1.684-17.429.775-1.35-.538-1.248-3.1-.882-5.724,1.4.656,3.766,1.2,7.73.834a21.794,21.794,0,0,1,2.781-.086,64.693,64.693,0,0,0,8.446-.172A4.244,4.244,0,0,1,931.2,819.659Z" transform="translate(434.539 -368.211)" opacity="0.1"/>
    <path id="Path_265" data-name="Path 265" d="M853.151,638.831c.882,11.5-.183,29.188-3.717,38.731a47.875,47.875,0,0,0-2.652,18.924c-1.237,1.076-2.959,1.227-4.841.925,1.076-7.461,5.616-39.608,8.526-65.009a106.377,106.377,0,0,1,18.828-48.823l3.093,3.405C863.941,591.418,853.151,638.831,853.151,638.831Z" transform="translate(467.211 -261.413)" opacity="0.1"/>
    <path id="Path_266" data-name="Path 266" d="M906.292,322.417,904.14,333.03l-10.581,17.779-13.045-5.573s-17.752-18.575-6.59-21.227a9.877,9.877,0,0,0,3.7-1.646,7.653,7.653,0,0,0,2.889-6.4,19.623,19.623,0,0,0-1.8-7.606l22.819-7.165a36.63,36.63,0,0,0-1.614,9.242c-.177,6.219,2.152,9.279,4.029,10.759A6.853,6.853,0,0,0,906.292,322.417Z" transform="translate(454.135 -130.93)" fill="#fbbebe"/>
    <path id="Path_267" data-name="Path 267" d="M908.8,301.19a36.625,36.625,0,0,0-1.614,9.242,17.364,17.364,0,0,1-1.329,1.415,18.053,18.053,0,0,1-18.042,4.115A19.623,19.623,0,0,0,886,308.355Z" transform="translate(446.852 -130.93)" opacity="0.1"/>
    <path id="Path_268" data-name="Path 268" d="M902.245,280.262a17.961,17.961,0,1,1-5.262-12.783A18.048,18.048,0,0,1,902.245,280.262Z" transform="translate(456.024 -112.923)" fill="#fbbebe"/>
    <path id="Path_269" data-name="Path 269" d="M906.292,339.583,904.14,350.2l-10.581,17.779L880.514,362.4s-17.752-18.575-6.59-21.227a9.876,9.876,0,0,0,3.7-1.646c-2.012,5.53,6.294,17.036,6.294,17.036.968,1.426,3.185.538,3.185.538,5.352-.812,15.2-16.2,16.81-18.763A6.853,6.853,0,0,0,906.292,339.583Z" transform="translate(454.135 -148.095)" opacity="0.1"/>
    <path id="Path_270" data-name="Path 270" d="M904.535,525.687c-3.141.716-20.522,4.562-27.112,3.6-7.251-1.076-21.351-1.764-21.351-1.764s-8.978.484-11.743-.78V526.2l5.121-6.132s49.533-3.717,53.255,0C903.637,521,904.2,523.078,904.535,525.687Z" transform="translate(466.106 -231.304)" opacity="0.1"/>
    <path id="Path_271" data-name="Path 271" d="M861.372,357.241s-9.333-12.91-5.815-17.967l-15.767,6.455s-9.489-1.151-12.91,13.013a24.642,24.642,0,0,0-.586,7.187,21.263,21.263,0,0,1-2.6,10.759c-3.889,7.784-3.007,25.654,4.954,27.434s10.786.882,10.786.882-1.076,32.373-5.659,36.09,11.727,2.829,11.727,2.829,14.1.71,21.356,1.77,27.6-3.717,27.6-3.717-3.007-13.62-4.072-22.286-3.545-27.128-3.545-27.128l18.042-24.444s3.185-14.772-7.961-21.318-15.336-8.15-15.336-8.15-11.2,18.236-17.036,19.118C864.556,357.768,862.34,358.661,861.372,357.241Z" transform="translate(476.676 -148.239)" fill="#6c63ff"/>
    <path id="Path_272" data-name="Path 272" d="M854.6,382.74s-.172,5.842.888,8.139,4.954,15.062,4.954,15.062H851.59s4.777-5.132,4.427-7.612S854.6,382.74,854.6,382.74Z" transform="translate(462.752 -168.611)" opacity="0.1"/>
    <path id="Path_273" data-name="Path 273" d="M881.643,443.333s-19.538-4.777-21.356-8.844-6.837-13.174-6.837-13.174l2.06-2.776,9.5,7.456s11.3,9.021,16.633,9.909S881.643,443.333,881.643,443.333Z" transform="translate(461.892 -185.153)" fill="#fbbebe"/>
    <path id="Path_274" data-name="Path 274" d="M881.643,443.333s-19.538-4.777-21.356-8.844-6.837-13.174-6.837-13.174l2.06-2.776,9.5,7.456s11.3,9.021,16.633,9.909S881.643,443.333,881.643,443.333Z" transform="translate(461.892 -185.153)" opacity="0.05"/>
    <path id="Path_275" data-name="Path 275" d="M906.944,421.779v10.6h-1.7a49.537,49.537,0,0,0-24.065,6.234l-3.187,1.765-.855.479-5.487-12.372,5.132-4.6h.264c1.253.124,6.681.576,8.983-.2,2.184-.742,4.9-3.093,11.329-1.452,3.168.812,5.88,4.363,8.951,3.254Z" transform="translate(453.483 -186.596)" fill="#fbbebe"/>
    <path id="Path_276" data-name="Path 276" d="M935.911,375.671l3.534,3.981V389.3s-3.007,30.425-12.555,33.787-26.606-1.947-26.606-1.947-4.406-11.673-2.345-12.372,18.209-4.97,18.209-4.97-.226-17.849,3.308-23.158c0,0-2.3-16.627,5.664-16.982S935.911,375.671,935.911,375.671Z" transform="translate(441.589 -159.789)" opacity="0.1"/>
    <path id="Path_277" data-name="Path 277" d="M936.914,375.671l3.54,3.981V389.3s-3.007,30.425-12.561,33.787-26.606-1.947-26.606-1.947-4.406-11.673-2.34-12.372,18.209-4.97,18.209-4.97-.231-17.849,3.308-23.158c0,0-2.3-16.627,5.659-16.982S936.914,375.671,936.914,375.671Z" transform="translate(441.124 -159.789)" fill="#6c63ff"/>
    <path id="Path_278" data-name="Path 278" d="M900.466,287.867a7.111,7.111,0,0,0-.4-3.448,2.625,2.625,0,0,0-2.808-1.614c-1.512.355-2.152,2.324-3.647,2.8a2.915,2.915,0,0,1-3.228-1.657,8.253,8.253,0,0,1-.613-3.852v-4.433c0-1.614-.054-3.346-1.044-4.61-1.232-1.571-4.131-2.259-6.068-2.195a5.148,5.148,0,0,0-3.464,1.393,4.459,4.459,0,0,1-3.642,1.3,3.136,3.136,0,0,1-2.539-2.195V269.3a18.042,18.042,0,1,1,26.821,23.949,48.643,48.643,0,0,0,.635-5.379Z" transform="translate(452.854 -112.867)" opacity="0.1"/>
    <path id="Path_279" data-name="Path 279" d="M871.531,261.621a3.163,3.163,0,0,1-2.544-2.2c-.145-.57-.108-1.178-.274-1.743-.414-1.393-1.9-2.114-2.894-3.174-1.99-2.114-1.861-5.589-.452-8.134,1.14-2.05,3.346-3.766,5.659-3.378,1.431.247,2.69,1.264,4.121,1.361s2.69-.694,3.943-1.275a14.857,14.857,0,0,1,9.8-.871,5.648,5.648,0,0,1,2.69,1.361,23.518,23.518,0,0,1,1.436,2.017c1.646,2.1,4.6,2.512,7.23,2.986s5.605,1.517,6.455,4.045c.576,1.678,0,3.5-.312,5.239a1.582,1.582,0,0,0,.07,1.076c.414.678,1.442.393,2.216.538,1.49.317,1.872,2.238,1.931,3.766q.092,2.614.14,5.234a6.666,6.666,0,0,1-.156,1.937,6.837,6.837,0,0,1-1.5,2.437l-5.842,7.02c-2.593,3.109-5.342,6.735-4.841,10.759-1.227.538-2.69-.511-3.088-1.8a8.035,8.035,0,0,1,.194-3.986,48.855,48.855,0,0,0,.936-6.912,7.09,7.09,0,0,0-.4-3.443,2.625,2.625,0,0,0-2.808-1.614c-1.517.355-2.152,2.324-3.647,2.8a2.915,2.915,0,0,1-3.228-1.657,8.23,8.23,0,0,1-.613-3.846v-4.438c0-1.614-.054-3.346-1.044-4.61-1.232-1.571-4.131-2.259-6.068-2.195a5.148,5.148,0,0,0-3.459,1.393A4.466,4.466,0,0,1,871.531,261.621Z" transform="translate(456.872 -103.464)" fill="#7c5c5c"/>
    <path id="Path_280" data-name="Path 280" d="M885.3,381.92l5.541,22.76S895.209,404.653,885.3,381.92Z" transform="translate(447.175 -168.232)" opacity="0.1"/>
    <path id="Path_281" data-name="Path 281" d="M916.129,374.85s-7.251,11.878-4.422,24.164l1.35.1S910.647,393.425,916.129,374.85Z" transform="translate(435.276 -164.966)" opacity="0.1"/>
    <path id="Path_282" data-name="Path 282" d="M929,499.277s8.908-2.948,9.554,3.889C938.575,503.166,936.9,498.481,929,499.277Z" transform="translate(426.983 -222.167)" opacity="0.1"/>
    <path id="Path_283" data-name="Path 283" d="M868.109,426.81s-1.77,12.372,1.415,17.338a38.8,38.8,0,0,1-15.568,2.125L852.88,426.81Z" transform="translate(462.155 -188.975)" opacity="0.1"/>
    <path id="Path_284" data-name="Path 284" d="M877.992,442.283l-.855.479-5.487-12.372,5.132-4.6h.264C876.965,426.4,875.534,437.038,877.992,442.283Z" transform="translate(453.483 -188.503)" opacity="0.1"/>
    <path id="Path_285" data-name="Path 285" d="M863.715,425.83s-1.77,12.372,1.415,17.332a38.685,38.685,0,0,1-15.568,2.125L843.37,425.83Z" transform="translate(466.55 -188.522)" fill="#6c63ff"/>
    <path id="Path_286" data-name="Path 286" d="M816.717,797.2a4.008,4.008,0,0,1-3.437,3.507c-4.8.716-16.375,2.544-19.3,3.938-3.717,1.77-18.4.538-19.107-1.237a2.808,2.808,0,0,1,.253-2.152,5.671,5.671,0,0,1,2.372-2.55,6.3,6.3,0,0,1,1.076-.473c2.765-.92,7.988-2.878,9.4-4.933,0,0,6.514-5.7,8.37-8.774a4.249,4.249,0,0,1,3.4-2.119c1.549-.07,3.276.71,3.986,4.1,0,0,8.483,4.841,10.759.6,0,0,.355,6.52,1.764,8.306h0a2.367,2.367,0,0,1,.463,1.786Z" transform="translate(498.249 -353.283)" fill="#a27772"/>
    <path id="Path_287" data-name="Path 287" d="M816.717,808.376a4.008,4.008,0,0,1-3.437,3.507c-4.8.715-16.375,2.544-19.3,3.938-3.717,1.77-18.4.538-19.107-1.237a2.808,2.808,0,0,1,.253-2.152,5.67,5.67,0,0,1,2.372-2.55c2.394,1.614,7.709,3.141,19.4,1.318,11.151-1.743,16.676-3.448,19.365-4.61h0a2.367,2.367,0,0,1,.452,1.786Z" transform="translate(498.249 -364.459)" opacity="0.1"/>
    <g id="Group_209" data-name="Group 209" transform="translate(1321.171 146.651)" opacity="0.1">
      <path id="Path_288" data-name="Path 288" d="M942.437,268.624v-.086a15.84,15.84,0,0,0,.538-4.018,26.52,26.52,0,0,1-.538,3.228A1.959,1.959,0,0,0,942.437,268.624Z" transform="translate(-900.374 -260.636)"/>
      <path id="Path_289" data-name="Path 289" d="M896.026,281.846a5.115,5.115,0,0,1,.436,2.023,6.1,6.1,0,0,0-.436-2.819,2.615,2.615,0,0,0-2.8-1.614c-1.517.355-2.152,2.324-3.653,2.8a2.921,2.921,0,0,1-3.228-1.657,8.185,8.185,0,0,1-.613-3.852v-4.433c0-1.614-.054-3.346-1.044-4.61-1.237-1.576-4.131-2.259-6.068-2.2a5.153,5.153,0,0,0-3.464,1.4,4.469,4.469,0,0,1-3.647,1.3,3.152,3.152,0,0,1-2.539-2.195c-.145-.57-.108-1.183-.274-1.748-.414-1.388-1.9-2.114-2.894-3.168a5.794,5.794,0,0,1-1.49-3.766,6.03,6.03,0,0,0,1.49,4.535c1,1.076,2.48,1.781,2.894,3.168.167.538.129,1.178.274,1.748a3.152,3.152,0,0,0,2.539,2.195,4.47,4.47,0,0,0,3.647-1.3,5.153,5.153,0,0,1,3.464-1.4c1.937-.059,4.841.624,6.068,2.2.99,1.264,1.038,3,1.044,4.61v4.433a8.141,8.141,0,0,0,.613,3.846A2.928,2.928,0,0,0,889.57,283c1.485-.473,2.152-2.442,3.653-2.8A2.717,2.717,0,0,1,896.026,281.846Z" transform="translate(-864.285 -257.3)"/>
      <path id="Path_290" data-name="Path 290" d="M939.839,292.9a6.8,6.8,0,0,1-1.506,2.431l-5.842,7.02c-2.458,2.953-5.057,6.374-4.841,10.145.177-3.459,2.587-6.606,4.841-9.349l5.842-7.02a6.8,6.8,0,0,0,1.506-2.431,6.711,6.711,0,0,0,.156-1.942A5.109,5.109,0,0,1,939.839,292.9Z" transform="translate(-893.558 -273.218)"/>
      <path id="Path_291" data-name="Path 291" d="M921.833,327.3a4.141,4.141,0,0,1-.177-.947,4.77,4.77,0,0,0,.177,1.743c.4,1.28,1.856,2.34,3.088,1.791a7.528,7.528,0,0,1-.064-.775C923.63,329.6,922.21,328.556,921.833,327.3Z" transform="translate(-890.787 -289.206)"/>
    </g>
    <path id="Path_292" data-name="Path 292" d="M812.69,789.36s1.851,3.228,8.553.387" transform="translate(480.726 -356.498)" opacity="0.1"/>
    <path id="Path_293" data-name="Path 293" d="M918,790.82s5.777,6.8,13.061,2.232" transform="translate(432.066 -357.172)" opacity="0.1"/>
    <path id="Path_294" data-name="Path 294" d="M945.637,641.23s-4.083,2.55-4.212,4.008,2.109-1.076,2.109-1.076Z" transform="translate(421.244 -288.052)" opacity="0.1"/>
    <path id="Path_295" data-name="Path 295" d="M945.964,677.59a8.537,8.537,0,0,1-5.03,1.964c-3.055.134-2.8,4.115-.8,2.921A50.058,50.058,0,0,0,945.964,677.59Z" transform="translate(422.531 -304.852)" opacity="0.1"/>
    <path id="Path_296" data-name="Path 296" d="M950.65,682.34s-1.958,9.624-3.55,7.768" transform="translate(418.619 -307.047)" opacity="0.1"/>
    <path id="Path_297" data-name="Path 297" d="M245.418,545.4s12.292,3.373,18.209-1.114,8.483-3.045,8.483-3.045,14.11-.78,15.272-4.115-5.412-15.449-5.412-15.449c-.468-1.076-1.151-2.442-1.458-2.442l.065-5.11h0l2.044-21.383c4.718-12.1.086-27.73.086-27.73l-.845-3.879a9.812,9.812,0,0,1,.8-6.455l8.569-17.214a25.765,25.765,0,0,1,1.614-3.3c.538-.984,1.253-2.2,2.152-3.658.264-.42.538-.855.839-1.313,1.038-1.614,2.3-3.443,3.819-5.551,3.792-5.256,5.788-11.834,6.821-16.676l.457,1.517h.1l.124.027h.2l.221.038h.081L310.3,442.1c.161,13.082,4.965,20.323,4.965,20.323l-.662,28.882c.9,6.956-1.076,16.229-1.985,19.93l-2.076,4.685a5.632,5.632,0,0,0-3.061,4.26c-.409,3.459-4.051,10.915-4.051,10.915-1.409,1.786-4.47,6.611-4.47,6.611s-1.442,4.658-.549,6.4,8.359,1.565,8.359,1.565c8.526,1.888,15.062-2.69,14.648-5.842s1.329-3.954,1.329-3.954c3.389-1.076,3.061-3.373,3.061-3.373a21.108,21.108,0,0,0-2.566-13.739L322.708,520a18.919,18.919,0,0,1,1.022-7.332l-.312.215-.1.059h-.032c.538-4.718,5.492-13.448,5.492-13.448,9.1-15.966,5.794-37.6,5.794-37.6l-1.409-6.746-.081-2.544a84.924,84.924,0,0,1,1.372-18.128c.49-2.647,1-5.842,1.383-9.365a82.777,82.777,0,0,1,4.669-18.381l.36-.065h.043c.495-.086,1-.172,1.5-.269h.1s.29-1.571.538-4.244c.145-1.705.264-3.868.264-6.353a71.476,71.476,0,0,0-3.394-22.114l.274-.393s.651-.882,1.84-2.41h0c2.184-2.776,5.584-6.993,9.774-11.748,7.5-8.559,5.3-17.214,5.3-17.214s-5.433-19.909-7.854-31.862a36.233,36.233,0,0,0-5.96-14.174,28.211,28.211,0,0,0,.753-5.745c.161-3.54.038-7.23-1.555-10.409s-4.981-5.691-8.521-5.266a3.26,3.26,0,0,1-1.528,0,2.324,2.324,0,0,1-1.006-.877c-2.071-2.856-2.206-6.7-1.56-10.162s1.969-6.778,2.561-10.253.323-7.332-1.888-10.086c-2.6-3.228-7.128-4.137-10.506-6.563-2.372-1.705-4.153-4.153-6.654-5.664s-4.841-.936-7.558-.366c-4.567.963-8.908,1.4-13.228,3.367a35.229,35.229,0,0,0-11.528,8.386A10.941,10.941,0,0,0,278.5,246.3c-1.076,3.556,1.027,7.343.586,11.022-.312,2.609-1.85,4.879-3.072,7.208s-2.152,5.094-1.194,7.531c1.506,3.809,6.418,4.615,9.989,6.643a3.05,3.05,0,0,1,1.183,1.027c.882,1.538-.92,3.136-2.055,4.5a6.783,6.783,0,0,0-1.345,2.733,9.747,9.747,0,0,0-5.847,7.058c-1.21,5.417.651,12.254,2.292,16.773-1.791,10.065.538,14.035,2.254,15.557a8.634,8.634,0,0,1,2.991,5.885v.188c.113,1.829.307,3.653.565,5.471h0c-.059-.425-.118-.877-.151-1.076-1.4,2.6-4.078,9.236-5.584,20.4a61.313,61.313,0,0,1-1.361,7.106,38.861,38.861,0,0,0-1.14,12.706l.269,3.62a1.14,1.14,0,0,1-.732-.242l1.888,3.459v5.837a21.518,21.518,0,0,1-1.431,7.7c-.135.355-.28.71-.436,1.076a6.262,6.262,0,0,0-.635,3.168c-4.061,6.224-13.373,41.1-13.373,41.1-5.051,11.436.414,18.828.414,18.828s2.647,31.84,3.142,33.486,1.592,21.055,1.592,21.055h0v1.544a3.619,3.619,0,0,0-.92-.264c-4.427-.247-5.627,6.746-5.627,6.746l-9.059,8.65s-4.137-.7-10.221,3.868S245.418,545.4,245.418,545.4Zm90.453-184.021-.027-.1-.247.145h0l-.1.059-.048.032h0l-4.174-14.734a24.465,24.465,0,0,1-.307-12.12l3.228-14.137h0v-3.4l10.258,27.338C345.107,348.156,339.013,357.081,335.871,361.384Z" transform="translate(745.568 -97.986)" fill="url(#linear-gradient-4)"/>
    <path id="Path_298" data-name="Path 298" d="M398.652,557s-4.142,10.075-5.2,19.742c-.382,3.486-.877,6.638-1.361,9.252a84.553,84.553,0,0,0-1.323,17.9l.081,2.512,1.345,6.654s3.228,21.372-5.686,37.117c0,0-5.283,9.43-5.444,13.895l-3.577,1.383-7.23-2.028s3.491-12.518,2.356-21.291l.651-28.51s-4.7-7.133-4.858-20.043l-2.76-35.428Z" transform="translate(687.289 -249.131)" fill="#fdc2cc"/>
    <path id="Path_299" data-name="Path 299" d="M325.589,547.62s-.888,13.814-7.719,23.335-8.284,13.653-8.284,13.653l-8.413,17.009a9.742,9.742,0,0,0-.791,6.364l.828,3.83s4.551,15.439-.081,27.386l-2.195,23.077H286.1s-1.076-19.177-1.544-20.8-3.088-33.072-3.088-33.072-5.379-7.316-.409-18.607c0,0,11.216-42.255,14.218-41.523S325.589,547.62,325.589,547.62Z" transform="translate(727.35 -244.797)" fill="#fdc2cc"/>
    <g id="Group_210" data-name="Group 210" transform="translate(1024.983 302.823)" opacity="0.1">
      <path id="Path_300" data-name="Path 300" d="M315.955,611.838l-.823-3.83a9.683,9.683,0,0,1,.785-6.391l8.413-17.026s1.458-4.142,8.284-13.653c6.557-9.145,7.639-22.249,7.714-23.255l1.307-.065s-.888,13.814-7.719,23.335-8.284,13.653-8.284,13.653l-8.413,17.009a9.742,9.742,0,0,0-.791,6.364l.828,3.83s4.551,15.439-.081,27.386l-2.195,23.077h-1.3l2.195-23.077C320.506,627.25,315.955,611.838,315.955,611.838Z" transform="translate(-313.68 -547.62)"/>
    </g>
    <path id="Path_301" data-name="Path 301" d="M389.31,664.086c.161-4.465,5.444-13.895,5.444-13.895,8.94-15.761,5.686-37.117,5.686-37.117l-1.377-6.66-.081-2.512a84.554,84.554,0,0,1,1.323-17.9c.479-2.614.974-5.767,1.356-9.252a84.7,84.7,0,0,1,5.18-19.7l1.334-.054s-4.142,10.075-5.2,19.742c-.382,3.486-.877,6.638-1.361,9.252a84.557,84.557,0,0,0-1.323,17.9l.081,2.512,1.345,6.654s3.228,21.372-5.686,37.117c0,0-5.283,9.43-5.444,13.895l-3.577,1.383-.753-.21Z" transform="translate(677.766 -249.131)" opacity="0.1"/>
    <path id="Path_302" data-name="Path 302" d="M377.17,753.973a6.218,6.218,0,0,0,5.917-.732,19.1,19.1,0,0,0-.484,10.726c1.463,5.853-13.653-4.712-13.653-4.712l3.228-7.375S373.431,754.215,377.17,753.973Z" transform="translate(685.765 -339.179)" fill="#d39999"/>
    <path id="Path_303" data-name="Path 303" d="M378.3,754.287a6.041,6.041,0,0,0,4.8-1.076,19.1,19.1,0,0,0-.484,10.726c1.463,5.853-13.653-4.712-13.653-4.712l3.228-7.375a4.612,4.612,0,0,0,3.685,2.076C376.716,754.023,377.512,754.136,378.3,754.287Z" transform="translate(685.755 -339.166)" opacity="0.1"/>
    <path id="Path_304" data-name="Path 304" d="M289.32,449.991h6.315V414.16l-4.739-.85Z" transform="translate(739.321 -171.903)" fill="#fdc2cc"/>
    <path id="Path_305" data-name="Path 305" d="M289.32,449.991h6.315V414.16l-4.739-.85Z" transform="translate(739.321 -171.903)" opacity="0.05"/>
    <path id="Path_306" data-name="Path 306" d="M364.126,760.358a6.3,6.3,0,0,1,5.767,3.33l2.195,1.705,1.076-2.518a20.979,20.979,0,0,1,2.485,13.572s.323,2.27-3.007,3.33c0,0-1.705.812-1.3,3.9s-6.009,7.639-14.379,5.767c0,0-7.316.167-8.209-1.544s.57-6.256.57-6.256,3.007-4.766,4.384-6.525c0,0,3.577-7.37,3.986-10.759S362.012,758.486,364.126,760.358Z" transform="translate(695.231 -342.8)" fill="#7e5659"/>
    <path id="Path_307" data-name="Path 307" d="M304.705,761.926l.065-5.051s-7.267,2.093-13.152-.274c0,0,.495,5.078-.323,5.772s2.722,7.23,2.722,7.23l3.954,4.142,6.8-2.474,1.845-5.81S305.189,761.926,304.705,761.926Z" transform="translate(721.703 -341.36)" fill="#d39999"/>
    <path id="Path_308" data-name="Path 308" d="M304.705,761.926l.065-5.051s-7.267,2.093-13.152-.274c0,0,.495,5.078-.323,5.772s2.722,7.23,2.722,7.23l3.954,4.142,6.8-2.474,1.845-5.81S305.189,761.926,304.705,761.926Z" transform="translate(721.703 -341.36)" opacity="0.1"/>
    <path id="Path_309" data-name="Path 309" d="M267.909,763.094s3.862.446,3.373,5.379.2,0,.2,0,4.1,1.662,5.568,3.981,4.1-2.071,4.3-3.33,1.845-1.781,1.845-1.781,6.455,11.969,5.315,15.261-15,4.051-15,4.051-2.523-1.42-8.333,3.007-17.875,1.076-17.875,1.076-9.833-4.1-3.857-8.607,10.032-3.819,10.032-3.819l8.9-8.575S263.563,762.847,267.909,763.094Z" transform="translate(744.643 -344.358)" fill="#7e5659"/>
    <path id="Path_310" data-name="Path 310" d="M343.467,236.259c2.458,1.49,4.207,3.911,6.536,5.594,3.314,2.394,7.762,3.287,10.312,6.482,2.152,2.722,2.431,6.525,1.85,9.957s-1.883,6.708-2.512,10.129-.5,7.214,1.533,10.032a2.276,2.276,0,0,0,.984.866,3.228,3.228,0,0,0,1.5,0c3.475-.42,6.81,2.066,8.37,5.2s1.684,6.783,1.522,10.28a21.246,21.246,0,0,1-1.716,8.376c-2.152,4.389-6.627,7.1-11.044,9.177a85.537,85.537,0,0,1-8.817,3.561,13.268,13.268,0,0,1-6.391.963c-3.674-.635-6.278-3.975-9.763-5.283-2.856-1.076-6.025-.689-9.064-.42-2.593.226-5.557.221-7.343-1.673-2.292-2.431-1.259-6.353-.086-9.484a6.751,6.751,0,0,1-4.777-11.038c1.108-1.35,2.878-2.926,2.012-4.449a2.948,2.948,0,0,0-1.162-1.011c-3.5-2-8.327-2.8-9.8-6.557-.947-2.415-.032-5.148,1.167-7.445s2.69-4.546,3.018-7.117c.43-3.636-1.614-7.375-.576-10.882a10.909,10.909,0,0,1,2.523-4.013,34.622,34.622,0,0,1,11.3-8.279c4.244-1.942,8.5-2.378,12.986-3.324C338.717,235.334,340.944,234.732,343.467,236.259Z" transform="translate(715.212 -100.48)" fill="#865a61"/>
    <path id="Path_311" data-name="Path 311" d="M321.372,337.754s-10.291-.538-12.238,8.236,4.223,21.34,4.223,21.34Z" transform="translate(713.58 -147.822)" fill="#fdc2cc"/>
    <path id="Path_312" data-name="Path 312" d="M321.372,337.754s-10.291-.538-12.238,8.236,4.223,21.34,4.223,21.34Z" transform="translate(713.58 -147.822)" opacity="0.05"/>
    <path id="Path_313" data-name="Path 313" d="M320,345.594l3.9,3.088,18.2.812,11.361-7.8,11.555-19.828a14.285,14.285,0,0,1-10.985-11.243,24.616,24.616,0,0,1-.226-9.392s-18.526-9.591-16.251,5.379a20.334,20.334,0,0,1,.172,5.562c-1.076,8.768-9.586,7.117-9.586,7.117l-3.265,5.035L321.135,336.7Z" transform="translate(708.383 -129.55)" fill="#fdc2cc"/>
    <path id="Path_314" data-name="Path 314" d="M352.494,306.585a20.333,20.333,0,0,1,.172,5.562,16.423,16.423,0,0,0,16.3-1.528,24.615,24.615,0,0,1-.226-9.392S350.218,291.636,352.494,306.585Z" transform="translate(693.458 -129.547)" opacity="0.1"/>
    <circle id="Ellipse_54" data-name="Ellipse 54" cx="16.412" cy="16.412" r="16.412" transform="translate(1036.538 150.61)" fill="#fdc2cc"/>
    <path id="Path_315" data-name="Path 315" d="M329.5,360.315c.4,0,.791.059,1.183.1,2.152.215,11.141.7,16.262-5.417,5.729-6.842,13.357-15.293,13.669-15.638l7.762,2.345s-6.143-2.184-10.221,9.242a11.834,11.834,0,0,0,4,13.615,12.3,12.3,0,0,0,5.078,2.152.027.027,0,0,1,0,.027v5.014h0l-3.174,13.986a24.244,24.244,0,0,0,.3,11.969l4.841,17.112c-.732.506-30.77,20.936-50.834,6.826h0c.075-.613,2.555-20.694.834-30.522a67.876,67.876,0,0,1-.9-7.6v-.188a8.564,8.564,0,0,0-2.943-5.81c-1.807-1.614-4.255-5.917-1.834-17.289a41.777,41.777,0,0,1,2.69-8.193l6.73-15.207h0l6.2.124v.043c-.538.667-7.73,9.65-8.51,15.439C319.867,357.948,318.926,359.637,329.5,360.315Z" transform="translate(711.845 -147.402)" fill="#6c63ff"/>
    <path id="Path_316" data-name="Path 316" d="M400.2,348.339s6.068,5.2,8.451,17.009,7.692,31.421,7.692,31.421,2.152,8.558-5.2,17.009S398.9,428.84,398.9,428.84l-4.841,7.133a6.073,6.073,0,0,1-3.486,2.464c-2.206.581-5.594,1-8.532-.608a4.971,4.971,0,0,1-2.152-6.278l1.076-2.491s-9.968,6.283-10.834,2.813,11.592-6.934,11.592-6.934,10.291-1.732,12.372-6.606c0,0,11.049-14.2,10.183-19.07l-10.673-28.6s-13.346-1.764-8.8-16.757S400.2,348.339,400.2,348.339Z" transform="translate(685.238 -151.364)" fill="#fdc2cc"/>
    <path id="Path_317" data-name="Path 317" d="M307.361,516.832s24.379,4.874,30.124,4.223l.619,2.06s9.252,2.071,30.173-1.248q2.049-.323,4.255-.726l.49-.086s.285-1.549.511-4.191a72.671,72.671,0,0,0-3.545-29.5l-3.518-10.834s-21.743,13.034-36.138,11.834c-1.286-.108-2.561-.21-3.846-.253-2.953-.113-7.531,0-10.506-2.383l-6.24,1.076v17.752a21.27,21.27,0,0,1-1.409,7.6c-.134.355-.274.7-.43,1.076A5.649,5.649,0,0,0,307.361,516.832Z" transform="translate(714.265 -211.949)" fill="#65617d"/>
    <path id="Path_318" data-name="Path 318" d="M364.58,552.236v5.525s10.651,2.383,34.917-2.06c0,0,.285-1.549.511-4.19C392.563,552.7,372.03,555.577,364.58,552.236Z" transform="translate(687.784 -246.595)" opacity="0.1"/>
    <path id="Path_319" data-name="Path 319" d="M307.364,547.448s24.379,4.874,30.124,4.223l.619,2.06v-5.525c-2.776,1.151-22.593-3.626-29.775-5.417-.134.355-.274.7-.43,1.076a5.649,5.649,0,0,0-.538,3.583Z" transform="translate(714.263 -242.565)" opacity="0.1"/>
    <path id="Path_320" data-name="Path 320" d="M417.31,537.024l1.807,11.21q2.05-.323,4.255-.726c-.565-3.276-1.8-10.759-1.458-12l-2.275-1.947Z" transform="translate(663.419 -238.301)" fill="#65617d"/>
    <path id="Path_321" data-name="Path 321" d="M417.78,536.574l1.807,11.216q2.049-.328,4.255-.726c-.565-3.276-1.8-10.759-1.458-12l-2.275-1.953Z" transform="translate(663.202 -238.093)" opacity="0.1"/>
    <g id="Group_211" data-name="Group 211" transform="translate(1029.195 264.565)" opacity="0.05">
      <path id="Path_322" data-name="Path 322" d="M335.6,496.256c-1.28-.108-2.561-.21-3.846-.253-2.873-.108-7.257,0-10.248-2.2l1.044-.183c2.991,2.372,7.531,2.27,10.506,2.383,1.286.043,2.561.145,3.846.253.42.038.85.059,1.286.07a24.136,24.136,0,0,1-2.587-.07Z" transform="translate(-321.51 -484.411)"/>
      <path id="Path_323" data-name="Path 323" d="M400.52,521.853q2.049-.323,4.255-.721l.495-.091s.285-1.549.506-4.19a72.48,72.48,0,0,0-3.545-29.5l-3.314-10.221c.7-.4,1.076-.629,1.076-.629l3.518,10.834a72.671,72.671,0,0,1,3.545,29.5c-.226,2.641-.511,4.19-.511,4.19l-.49.091q-2.2.4-4.255.721a133.984,133.984,0,0,1-21.921,1.883A138.241,138.241,0,0,0,400.52,521.853Z" transform="translate(-348.481 -476.5)"/>
      <path id="Path_324" data-name="Path 324" d="M360.4,559.3v.059h-.7Q360.1,559.332,360.4,559.3Z" transform="translate(-339.156 -514.759)"/>
    </g>
    <ellipse id="Ellipse_55" data-name="Ellipse 55" cx="0.92" cy="1.894" rx="0.92" ry="1.894" transform="translate(1082.838 297.029)" fill="#d39999"/>
    <path id="Path_325" data-name="Path 325" d="M311.6,451.785c1.485-11.028,4.1-17.58,5.487-20.146.054.35.194,1.485.258,1.834a53.262,53.262,0,0,1,.118,5.7l-1.377,24.938,1.845,7.8c1.732,6.175-4.685,1.3-4.685,1.3-1.329,2.926-3.766,2.6-3.766,2.6l-.333-4.476a38.655,38.655,0,0,1,1.119-12.55,59.8,59.8,0,0,0,1.334-7Z" transform="translate(713.448 -191.206)" fill="#fdc2cc"/>
    <path id="Path_326" data-name="Path 326" d="M311.6,451.785c1.485-11.028,4.1-17.58,5.487-20.146.054.35.194,1.485.258,1.834a53.262,53.262,0,0,1,.118,5.7l-1.377,24.938,1.845,7.8c1.732,6.175-4.685,1.3-4.685,1.3-1.329,2.926-3.766,2.6-3.766,2.6l-.333-4.476a38.655,38.655,0,0,1,1.119-12.55,59.8,59.8,0,0,0,1.334-7Z" transform="translate(713.448 -191.206)" opacity="0.05"/>
    <path id="Path_327" data-name="Path 327" d="M402.279,484.609c-1.167,1.512-1.807,2.378-1.807,2.378l-4.841,7.128a6.046,6.046,0,0,1-3.486,2.464c-2.206.581-5.595,1.006-8.532-.608a4.96,4.96,0,0,1-2.152-6.272l1.076-2.5s-9.968,6.283-10.834,2.819,11.592-6.934,11.592-6.934,10.291-1.732,12.372-6.611c0,0,.9-1.151,2.152-2.916" transform="translate(684.513 -210.576)" fill="#fdc2cc"/>
    <path id="Path_328" data-name="Path 328" d="M402.51,509.536s-11.786-1.146-15.519-7.886l-1.711,5.568s12.372,8.542,15.2,7.434Z" transform="translate(678.219 -223.556)" fill="#65617d"/>
    <path id="Path_329" data-name="Path 329" d="M401.735,509.431s-11.781-1.146-15.519-7.891l-1.705,5.551s12.372,8.542,15.191,7.434Z" transform="translate(678.575 -223.505)" opacity="0.1"/>
    <path id="Path_330" data-name="Path 330" d="M313.338,510.46s-4.126,1.463-4.938.651l1.856,3.416,3.507-2.69Z" transform="translate(713.743 -227.627)" fill="#65617d"/>
    <path id="Path_331" data-name="Path 331" d="M313.338,510.46s-4.126,1.463-4.938.651l1.856,3.416,3.507-2.69Z" transform="translate(713.743 -227.627)" opacity="0.1"/>
    <path id="Path_332" data-name="Path 332" d="M331.964,526.6V519.47l-1.694,7.3Z" transform="translate(720.399 -220.956)" opacity="0.1"/>
    <path id="Path_333" data-name="Path 333" d="M363.669,265.8a6.33,6.33,0,0,1-4.422,2.329,34.84,34.84,0,0,1-5.137,0,12.884,12.884,0,0,0-7.752,1.953,19.709,19.709,0,0,0-3.556,3.766c-3.324,4.061-7.94,7.865-13.179,7.44a3.416,3.416,0,0,1-2.448-1.033,3.927,3.927,0,0,1-.624-2.227,50.911,50.911,0,0,1,.317-10.038A21.163,21.163,0,0,1,328.386,262a20.441,20.441,0,0,1,3.647-5.207,22.308,22.308,0,0,1,6.364-5.1,11.415,11.415,0,0,1,7.961-1.027c3.136.855,5.578,3.308,8.569,4.572C358.343,256.678,367.413,260.514,363.669,265.8Z" transform="translate(705.409 -107.446)" opacity="0.1"/>
    <path id="Path_334" data-name="Path 334" d="M363.669,264.587a6.33,6.33,0,0,1-4.422,2.329,34.848,34.848,0,0,1-5.137,0,12.842,12.842,0,0,0-7.752,1.947,19.707,19.707,0,0,0-3.556,3.765c-3.324,4.061-7.94,7.865-13.179,7.44a3.394,3.394,0,0,1-2.448-1.033,3.911,3.911,0,0,1-.624-2.227,50.91,50.91,0,0,1,.317-10.038,21.162,21.162,0,0,1,1.517-5.987,20.3,20.3,0,0,1,3.647-5.2,22.232,22.232,0,0,1,6.364-5.1,11.415,11.415,0,0,1,7.961-1.027c3.136.855,5.578,3.308,8.569,4.572C358.343,255.464,367.413,259.288,363.669,264.587Z" transform="translate(705.409 -106.882)" fill="#865a61"/>
    <path id="Path_335" data-name="Path 335" d="M291.884,473.47l-.043,1.963-.441-1.877Z" transform="translate(738.36 -199.701)" fill="#fdc2cc"/>
    <path id="Path_336" data-name="Path 336" d="M291.884,473.47l-.043,1.963-.441-1.877Z" transform="translate(738.36 -199.701)" opacity="0.05"/>
    <g id="Group_212" data-name="Group 212" transform="translate(1068.827 194.51)" opacity="0.05">
      <path id="Path_337" data-name="Path 337" d="M398.087,353.274c-4.556,14.992,8.725,16.751,8.725,16.751l10.673,28.6C418.35,403.5,407.3,417.7,407.3,417.7c-.769,1.818-2.69,3.2-4.788,4.223a7.5,7.5,0,0,0,2.84-3.12s11.049-14.191,10.183-19.064l-10.673-28.607s-13.276-1.759-8.725-16.751c1.522-5.008,3.766-7.289,6.036-8.107C400.6,347.529,399.168,349.707,398.087,353.274Z" transform="translate(-395.184 -346.27)"/>
    </g>
    <g id="Group_213" data-name="Group 213" transform="translate(1024.39 189.432)" opacity="0.1">
      <path id="Path_338" data-name="Path 338" d="M401,384.61a11.209,11.209,0,0,0,2.152,2.039,12.227,12.227,0,0,0,5.078,2.152v.565a12.19,12.19,0,0,1-4.6-2.039A11.162,11.162,0,0,1,401,384.61Z" transform="translate(-353.435 -358.908)"/>
      <path id="Path_339" data-name="Path 339" d="M322.63,420.428v.188a69.473,69.473,0,0,0,.925,7.622c1.614,9.274-.5,27.687-.8,30.232-.172-.113-.344-.221-.538-.344.081-.613,2.561-20.694.839-30.517a68.161,68.161,0,0,1-.9-7.6v-.188a8.3,8.3,0,0,0-1.447-4.115A8.365,8.365,0,0,1,322.63,420.428Z" transform="translate(-316.335 -373.278)"/>
      <path id="Path_340" data-name="Path 340" d="M328.776,337.567l-5.261-.1a.027.027,0,0,0-.027,0l-6.724,15.2a41.91,41.91,0,0,0-2.69,8.193c-1.958,9.2-.726,13.782.769,16.046-1.684-1.985-3.421-6.509-1.253-16.676a41.468,41.468,0,0,1,2.663-8.2l6.773-15.2h0l6.2.124v.038C329.179,337.056,329.013,337.26,328.776,337.567Z" transform="translate(-312.577 -336.83)"/>
      <path id="Path_341" data-name="Path 341" d="M416.39,345.87l.091.027Z" transform="translate(-360.546 -341.007)"/>
      <path id="Path_342" data-name="Path 342" d="M373.824,343.788l-5.272-1.587h-.027c-.312.344-7.934,8.8-13.663,15.638-5.121,6.116-14.1,5.638-16.262,5.422-.393-.043-.791-.075-1.183-.1-5.88-.377-8.193-1.076-8.967-2.561,1.1,1.076,3.529,1.614,8.478,1.915.4,0,.791.059,1.183.1,2.152.215,11.141.694,16.262-5.417,5.729-6.848,13.357-15.3,13.669-15.643h0l7.671,2.324A4.793,4.793,0,0,0,373.824,343.788Z" transform="translate(-319.912 -339.011)"/>
    </g>
    <path id="Path_343" data-name="Path 343" d="M289.16,776.637s-7.423,2.028-8.86-1.157" transform="translate(726.727 -350.084)" opacity="0.1"/>
    <path id="Path_344" data-name="Path 344" d="M375.277,773.756s-8.607,2.222-10.6-1.216" transform="translate(687.738 -348.726)" opacity="0.1"/>
    <path id="Path_345" data-name="Path 345" d="M565.122,752.885c.124-1.076.3-2.152.495-3.228a22.5,22.5,0,0,0-1.076-10.909h0c-.2-.565-.344-.882-.344-.882-3.427-.936-16.934,9.543-21.856,13.491-1.705,0-3.556.075-5.578.21-.882.065-1.764.086-2.647.07h-3.228c-4.567-3.679-18.7-14.745-22.222-13.787,0,0-.145.317-.344.882h0a22.105,22.105,0,0,0-1.1,10.909c.194,1.076.371,2.152.495,3.228.264,2.362,1.253,6.9,4.841,9.957.769,5.594,3.647,12.948,5.863,17.413a12.468,12.468,0,0,0,.753,2.458c-.915,3.529-1.969,8.133-1.668,9.683,0,0-4.777-1.157-5.261,4.594v.178c-1.727.791-3.884,2.6-1.458,6.4a2.491,2.491,0,0,0,1.248,1.017c.43.151.85.151.807-.452l2.985,3.362s5.412.624,5.476-2.518l.317.048c.726.108,1.485.2,2.265.28l.377,1.243s-4.061-.086-2.953,2.415c0,0,1.022.947,1.372.6,0,0-.538,1.641,1.582,1.641,0,0,2.275,1.2,3.163.344s2.727-2.152,2.9-2.69c.048-.145.07-1.42.081-3.185h.35c4.535.108,9.349-.038,13.728-.274h.355c0,1.91.027,3.319.075,3.47.177.538,2.023,1.813,2.9,2.69s3.158-.344,3.158-.344c2.109,0,1.581-1.641,1.581-1.641.355.344,1.377-.6,1.377-.6,1.108-2.5-2.959-2.415-2.959-2.415l.484-1.614,2.243-.188.355-.032c-.215,3.416,5.471,2.76,5.471,2.76l2.991-3.362c-.048.6.371.6.8.452a2.469,2.469,0,0,0,1.21-1.028c3.663-5.729-3.1-6.945-3.1-6.945a3.311,3.311,0,0,0-.64-.1,1.1,1.1,0,0,1,.027-.3h0a11.8,11.8,0,0,0,.043-2.27,4.994,4.994,0,0,0-4.029-2.932c-1.377-.172-1.4-6.5-1.264-10.882a12.512,12.512,0,0,0,.215-2.5,13.165,13.165,0,0,0-.538-4c2.69-4.562,4.841-9.344,5.083-10.759C563.869,759.765,564.859,755.246,565.122,752.885Z" transform="translate(622.004 -332.669)" fill="url(#linear-gradient-5)"/>
    <path id="Path_346" data-name="Path 346" d="M565.156,829.947h0c-.215,2.98-.791,7.762-.791,7.762s-2.394.29-6.095.624l-2.512.215c-1.926.156-4.088.307-6.374.436-4.223.231-8.86.377-13.233.269-2.184-.048-4.3-.161-6.267-.355-.877-.086-1.727-.188-2.534-.307-5.013-.748-8.607-2.179-8.914-4.691a14.527,14.527,0,0,1-.113-3.228c.468-5.648,5.067-4.508,5.067-4.508-.3-1.56.818-6.407,1.721-9.914.57-2.211,1.076-3.889,1.076-3.889l32.34-2.152h.108a1.581,1.581,0,0,1,1.582,1.662c-.194,3.878-.468,12.76,1.119,12.959a4.875,4.875,0,0,1,3.889,2.878A12.074,12.074,0,0,1,565.156,829.947Z" transform="translate(616.763 -366.132)" fill="#6c63ff"/>
    <path id="Path_347" data-name="Path 347" d="M533.333,755.1s-12.195,14.68-18.069,10.613c-.14-.1-.274-.194-.4-.3-3.948-2.991-4.987-7.811-5.261-10.258-.118-1.076-.291-2.114-.479-3.163a21.963,21.963,0,0,1,1.076-10.71h0c.194-.538.328-.866.328-.866C514.586,739.291,533.333,755.1,533.333,755.1Z" transform="translate(621.119 -333.858)" fill="#6c63ff"/>
    <path id="Path_348" data-name="Path 348" d="M526.758,757.25s-3.841,2.69-9.258,7.111a19.564,19.564,0,0,1-2.69,1.85c-3.948-2.991-4.987-7.811-5.261-10.258-.118-1.076-.291-2.114-.479-3.163a21.963,21.963,0,0,1,1.076-10.71h0C517.742,742.607,526.758,757.25,526.758,757.25Z" transform="translate(621.142 -334.651)" fill="#6c63ff"/>
    <path id="Path_349" data-name="Path 349" d="M526.758,757.25s-3.841,2.69-9.258,7.111a19.564,19.564,0,0,1-2.69,1.85c-3.948-2.991-4.987-7.811-5.261-10.258-.118-1.076-.291-2.114-.479-3.163a21.963,21.963,0,0,1,1.076-10.71h0C517.742,742.607,526.758,757.25,526.758,757.25Z" transform="translate(621.142 -334.651)" fill="#fff" opacity="0.5"/>
    <path id="Path_350" data-name="Path 350" d="M526.212,760.636s-2.049,1.447-4.944,3.8a10.4,10.4,0,0,1-1.42.984,7.919,7.919,0,0,1-2.808-5.471c-.059-.57-.151-1.13-.253-1.695a11.76,11.76,0,0,1,.6-5.713h0C521.4,752.82,526.212,760.636,526.212,760.636Z" transform="translate(617.509 -339.484)" opacity="0.1"/>
    <path id="Path_351" data-name="Path 351" d="M569.05,755.1s12.195,14.68,18.069,10.613c.134-.1.274-.194.4-.3,3.948-2.991,4.987-7.811,5.261-10.258.118-1.076.291-2.114.473-3.163a21.9,21.9,0,0,0-1.076-10.71h0c-.194-.538-.333-.866-.333-.866C587.8,739.291,569.05,755.1,569.05,755.1Z" transform="translate(593.305 -333.858)" fill="#6c63ff"/>
    <path id="Path_352" data-name="Path 352" d="M581.22,757.25s3.846,2.69,9.263,7.111a19.564,19.564,0,0,0,2.663,1.85c3.948-2.991,4.987-7.811,5.261-10.258.118-1.076.29-2.114.473-3.163a21.9,21.9,0,0,0-1.076-10.71h0C590.246,742.607,581.22,757.25,581.22,757.25Z" transform="translate(587.681 -334.651)" fill="#6c63ff"/>
    <path id="Path_353" data-name="Path 353" d="M581.22,757.25s3.846,2.69,9.263,7.111a19.564,19.564,0,0,0,2.663,1.85c3.948-2.991,4.987-7.811,5.261-10.258.118-1.076.29-2.114.473-3.163a21.9,21.9,0,0,0-1.076-10.71h0C590.246,742.607,581.22,757.25,581.22,757.25Z" transform="translate(587.681 -334.651)" fill="#fff" opacity="0.5"/>
    <path id="Path_354" data-name="Path 354" d="M589.05,760.648s2.039,1.442,4.911,3.766a9.846,9.846,0,0,0,1.415.979,7.944,7.944,0,0,0,2.792-5.438c.059-.538.151-1.124.253-1.684a11.78,11.78,0,0,0-.565-5.681h0C593.832,752.88,589.05,760.648,589.05,760.648Z" transform="translate(584.063 -339.508)" opacity="0.1"/>
    <path id="Path_355" data-name="Path 355" d="M564.384,810.23a29.214,29.214,0,0,1-4.669,5.95c-4.841,4.3-25.745,2.593-27.1,2.372-.285-.048-.877-.893-1.614-2.265.57-2.211,1.076-3.889,1.076-3.889Z" transform="translate(610.886 -366.141)" opacity="0.1"/>
    <path id="Path_356" data-name="Path 356" d="M542.095,765.288c-.85.059-1.7.081-2.555.065-4.363-.075-19.059.118-20.689,6.052-1.92,6.993,6.665,25.719,8.015,25.944s22.249,1.92,27.106-2.372S565.15,777.225,564.811,776C564.811,776,570.836,763.3,542.095,765.288Z" transform="translate(616.629 -345.277)" fill="#6c63ff"/>
    <path id="Path_357" data-name="Path 357" d="M546.728,786.469a15.432,15.432,0,0,0-15.8,8.93,12.91,12.91,0,0,0,.952,13.013c1.678,2.362,4.142,4.121,7.569,2.69C547.061,807.965,546.728,786.469,546.728,786.469Z" transform="translate(611.533 -355.118)" opacity="0.1"/>
    <path id="Path_358" data-name="Path 358" d="M546.1,785.209a15.432,15.432,0,0,0-15.8,8.93,12.91,12.91,0,0,0,.952,13.012c1.678,2.362,4.142,4.121,7.569,2.69C546.431,806.7,546.1,785.209,546.1,785.209Z" transform="translate(611.824 -354.536)" opacity="0.1"/>
    <path id="Path_359" data-name="Path 359" d="M546.1,785.839a15.432,15.432,0,0,0-15.8,8.93,12.91,12.91,0,0,0,.952,13.013c1.678,2.362,4.142,4.12,7.569,2.69C546.431,807.335,546.1,785.839,546.1,785.839Z" transform="translate(611.824 -354.827)" fill="#6c63ff"/>
    <path id="Path_360" data-name="Path 360" d="M546.1,785.839a15.432,15.432,0,0,0-15.8,8.93,12.91,12.91,0,0,0,.952,13.013c1.678,2.362,4.142,4.12,7.569,2.69C546.431,807.335,546.1,785.839,546.1,785.839Z" transform="translate(611.824 -354.827)" fill="#fff" opacity="0.5"/>
    <path id="Path_361" data-name="Path 361" d="M538.353,803.13s-1.469,1.356-.9,1.695S538.353,803.13,538.353,803.13Z" transform="translate(607.966 -362.86)" fill="#3f2b3b"/>
    <path id="Path_362" data-name="Path 362" d="M541.805,806.35s-.8,1.77-.231,1.963.909-1.269.909-1.269Z" transform="translate(606.095 -364.348)" fill="#3f2b3b"/>
    <path id="Path_363" data-name="Path 363" d="M535.29,811.32s-.785,2.087,0,2.087S535.29,811.32,535.29,811.32Z" transform="translate(609.065 -366.645)" fill="#3f2b3b"/>
    <path id="Path_364" data-name="Path 364" d="M533.78,821.71s1.571,4.013,5.659,3.728" transform="translate(609.602 -371.446)" fill="none" stroke="#3f2b3b" stroke-miterlimit="10" stroke-width="1"/>
    <path id="Path_365" data-name="Path 365" d="M540.61,823.91a2.831,2.831,0,0,0,3.384.452" transform="translate(606.446 -372.462)" fill="none" stroke="#3f2b3b" stroke-miterlimit="10" stroke-width="1"/>
    <path id="Path_366" data-name="Path 366" d="M564,786.469a15.432,15.432,0,0,1,15.8,8.93,12.911,12.911,0,0,1-.952,13.013c-1.673,2.362-4.142,4.121-7.569,2.69C563.643,807.965,564,786.469,564,786.469Z" transform="translate(595.64 -355.118)" opacity="0.1"/>
    <path id="Path_367" data-name="Path 367" d="M564.588,785.209a15.431,15.431,0,0,1,15.8,8.93,12.91,12.91,0,0,1-.952,13.012c-1.673,2.362-4.142,4.121-7.569,2.69C564.271,806.7,564.588,785.209,564.588,785.209Z" transform="translate(595.367 -354.536)" opacity="0.1"/>
    <path id="Path_368" data-name="Path 368" d="M564.588,785.839a15.431,15.431,0,0,1,15.8,8.93,12.91,12.91,0,0,1-.952,13.013c-1.673,2.362-4.142,4.12-7.569,2.69C564.271,807.335,564.588,785.839,564.588,785.839Z" transform="translate(595.367 -354.827)" fill="#6c63ff"/>
    <path id="Path_369" data-name="Path 369" d="M564.588,785.839a15.431,15.431,0,0,1,15.8,8.93,12.91,12.91,0,0,1-.952,13.013c-1.673,2.362-4.142,4.12-7.569,2.69C564.271,807.335,564.588,785.839,564.588,785.839Z" transform="translate(595.367 -354.827)" fill="#fff" opacity="0.5"/>
    <path id="Path_370" data-name="Path 370" d="M586.16,803.13s1.469,1.356.9,1.695S586.16,803.13,586.16,803.13Z" transform="translate(585.399 -362.86)" fill="#3f2b3b"/>
    <path id="Path_371" data-name="Path 371" d="M582.638,806.35s.8,1.77.231,1.963-.909-1.269-.909-1.269Z" transform="translate(587.339 -364.348)" fill="#3f2b3b"/>
    <path id="Path_372" data-name="Path 372" d="M589.522,811.32s.78,2.087,0,2.087S589.522,811.32,589.522,811.32Z" transform="translate(584.005 -366.645)" fill="#3f2b3b"/>
    <path id="Path_373" data-name="Path 373" d="M586.759,821.71s-1.571,4.013-5.659,3.728" transform="translate(587.737 -371.446)" fill="none" stroke="#3f2b3b" stroke-miterlimit="10" stroke-width="1"/>
    <path id="Path_374" data-name="Path 374" d="M581.889,823.91a2.837,2.837,0,0,1-3.389.452" transform="translate(588.938 -372.462)" fill="none" stroke="#3f2b3b" stroke-miterlimit="10" stroke-width="1"/>
    <path id="Path_375" data-name="Path 375" d="M553.2,841.994c.285-.054,5.648-2.372,11.178,0Z" transform="translate(600.628 -380.326)" fill="#3f2b3b"/>
    <path id="Path_376" data-name="Path 376" d="M527.35,855.5c-5.013-.748-8.607-2.179-8.914-4.691a14.527,14.527,0,0,1-.113-3.228,7.241,7.241,0,0,1,1.915-.7c.909-.253,2.033-.081,4.406.6s2.2,3.47,2.69,7.111a3.007,3.007,0,0,1,.016.909Z" transform="translate(616.763 -383.027)" opacity="0.1"/>
    <path id="Path_377" data-name="Path 377" d="M517.821,847.538s-6.52,1.194-2.991,6.821a2.4,2.4,0,0,0,1.2,1c.414.145.812.145.769-.446l2.883,3.3s5.756.678,5.25-2.964-.339-6.455-2.69-7.111S518.741,847.285,517.821,847.538Z" transform="translate(618.842 -383.331)" fill="#6c63ff"/>
    <path id="Path_378" data-name="Path 378" d="M524.18,854.67s1.383,3.158,3.3.506" transform="translate(614.038 -386.675)" fill="none" stroke="#3f2b3b" stroke-miterlimit="10" stroke-width="1"/>
    <path id="Path_379" data-name="Path 379" d="M518.28,857s.715,2.991,3.427.764" transform="translate(616.764 -387.752)" fill="none" stroke="#3f2b3b" stroke-miterlimit="10" stroke-width="1"/>
    <path id="Path_380" data-name="Path 380" d="M599.492,846.854h0c-.215,2.98-.791,7.762-.791,7.762s-2.394.29-6.095.624a3.116,3.116,0,0,1,0-.624c.506-3.642.339-6.455,2.69-7.111C597.5,846.907,598.626,846.687,599.492,846.854Z" transform="translate(582.427 -383.039)" opacity="0.1"/>
    <path id="Path_381" data-name="Path 381" d="M600.384,847.538s6.525,1.194,3,6.821a2.426,2.426,0,0,1-1.2,1c-.414.145-.818.145-.775-.446l-2.878,3.3s-5.761.678-5.25-2.964.339-6.455,2.69-7.111S599.48,847.285,600.384,847.538Z" transform="translate(582.127 -383.331)" fill="#6c63ff"/>
    <path id="Path_382" data-name="Path 382" d="M600.8,854.67s-1.388,3.158-3.3.506" transform="translate(580.159 -386.675)" fill="none" stroke="#3f2b3b" stroke-miterlimit="10" stroke-width="1"/>
    <path id="Path_383" data-name="Path 383" d="M606.592,857s-.721,2.991-3.432.764" transform="translate(577.543 -387.752)" fill="none" stroke="#3f2b3b" stroke-miterlimit="10" stroke-width="1"/>
    <path id="Path_384" data-name="Path 384" d="M544.287,853.74c-2.184-.048-4.3-.161-6.267-.355l-1.953-6.573a4.265,4.265,0,0,1-.177-1.2,4.185,4.185,0,0,1,8.365-.027C544.276,848.145,544.3,851.389,544.287,853.74Z" transform="translate(608.627 -380.619)" opacity="0.1"/>
    <path id="Path_385" data-name="Path 385" d="M534.964,846.69l2.3,7.757s-3.916-.086-2.846,2.372c0,0,.984.931,1.323.592,0,0-.511,1.614,1.522,1.614,0,0,2.195,1.189,3.045.339s2.63-2.12,2.8-2.625c.108-.333.075-6.821.038-11.3a4.174,4.174,0,0,0-4.18-4.142h0a4.18,4.18,0,0,0-4.008,5.39Z" transform="translate(609.391 -380.498)" fill="#6c63ff"/>
    <path id="Path_386" data-name="Path 386" d="M540.451,869.47s-1.711,1.614-.807,2.566" transform="translate(607.014 -393.514)" fill="none" stroke="#3f2b3b" stroke-miterlimit="10" stroke-width="1"/>
    <path id="Path_387" data-name="Path 387" d="M538.641,867.56a2.323,2.323,0,0,0-1.582,1.985" transform="translate(608.086 -392.632)" fill="none" stroke="#3f2b3b" stroke-miterlimit="10" stroke-width="1"/>
    <path id="Path_388" data-name="Path 388" d="M584.52,845.488a4.258,4.258,0,0,1-.172,1.2l-1.824,6.224c-1.926.156-4.088.307-6.374.436,0-2.324,0-5.417.038-7.886a4.18,4.18,0,0,1,8.359.027Z" transform="translate(590.024 -380.495)" opacity="0.1"/>
    <path id="Path_389" data-name="Path 389" d="M584.941,846.69l-2.3,7.757s3.922-.086,2.851,2.372c0,0-.984.931-1.323.592,0,0,.506,1.614-1.528,1.614,0,0-2.195,1.189-3.045.339s-2.625-2.12-2.8-2.625c-.108-.333-.075-6.821-.038-11.3a4.174,4.174,0,0,1,4.18-4.142h0a4.18,4.18,0,0,1,4,5.39Z" transform="translate(589.759 -380.498)" fill="#6c63ff"/>
    <path id="Path_390" data-name="Path 390" d="M586.23,869.47s1.711,1.614.807,2.566" transform="translate(585.366 -393.514)" fill="none" stroke="#3f2b3b" stroke-miterlimit="10" stroke-width="1"/>
    <path id="Path_391" data-name="Path 391" d="M587.63,867.56a2.323,2.323,0,0,1,1.582,1.985" transform="translate(584.719 -392.632)" fill="none" stroke="#3f2b3b" stroke-miterlimit="10" stroke-width="1"/>
    <path id="Path_392" data-name="Path 392" d="M553.756,782.769s-7.967-.253-8.22,5.917,12.448,3.556,12.448,3.556,5.336-.715,4.406-4.465S559.518,783.108,553.756,782.769Z" transform="translate(604.171 -353.452)" opacity="0.1"/>
    <path id="Path_393" data-name="Path 393" d="M553.756,781.509s-7.967-.253-8.22,5.917,12.448,3.556,12.448,3.556,5.336-.715,4.406-4.465S559.518,781.848,553.756,781.509Z" transform="translate(604.171 -352.869)" opacity="0.1"/>
    <path id="Path_394" data-name="Path 394" d="M553.756,782.139s-7.967-.253-8.22,5.917,12.448,3.556,12.448,3.556,5.336-.715,4.406-4.465S559.518,782.478,553.756,782.139Z" transform="translate(604.171 -353.16)" fill="#3f2b3b"/>
    <path id="Path_395" data-name="Path 395" d="M527.78,839.92s2.69.958,3.228,2.792" transform="translate(612.374 -379.86)" opacity="0.1"/>
    <path id="Path_396" data-name="Path 396" d="M596.749,837.4s-1.91.8-1.775,4.147" transform="translate(581.329 -378.696)" opacity="0.1"/>
    <ellipse id="Ellipse_56" data-name="Ellipse 56" cx="1.247" cy="2.067" rx="1.247" ry="2.067" transform="translate(1139.175 472.873) rotate(-29.887)" fill="#6c63ff"/>
    <ellipse id="Ellipse_57" data-name="Ellipse 57" cx="2.06" cy="1.243" rx="2.06" ry="1.243" transform="translate(1177.036 473.359) rotate(-60)" fill="#6c63ff"/>
    <ellipse id="Ellipse_58" data-name="Ellipse 58" cx="1.247" cy="2.067" rx="1.247" ry="2.067" transform="translate(1139.175 472.873) rotate(-29.887)" fill="#fff" opacity="0.5"/>
    <ellipse id="Ellipse_59" data-name="Ellipse 59" cx="2.06" cy="1.243" rx="2.06" ry="1.243" transform="translate(1177.036 473.359) rotate(-60)" fill="#fff" opacity="0.5"/>
    <ellipse id="Ellipse_60" data-name="Ellipse 60" cx="14.486" cy="2.448" rx="14.486" ry="2.448" transform="translate(962.126 401.818)" fill="#6c63ff" opacity="0.1"/>
    <ellipse id="Ellipse_61" data-name="Ellipse 61" cx="14.486" cy="2.448" rx="14.486" ry="2.448" transform="translate(905.057 436.531)" fill="#6c63ff" opacity="0.1"/>
    <ellipse id="Ellipse_62" data-name="Ellipse 62" cx="21.63" cy="3.658" rx="21.63" ry="3.658" transform="translate(882.83 404.266)" fill="#6c63ff"/>
    <path id="Path_397" data-name="Path 397" d="M71.168,723.318a6.257,6.257,0,0,1-2.066-3.109,2.772,2.772,0,0,1,1.442-3.168c1.323-.506,2.738.409,3.809,1.334s2.3,1.985,3.706,1.791a5.643,5.643,0,0,1-1.743-5.282,2.152,2.152,0,0,1,.484-1.076c.732-.785,2.066-.446,2.948.172,2.792,1.969,3.577,5.767,3.588,9.188a16.945,16.945,0,0,0,.054-3.766,3.873,3.873,0,0,1,1.42-3.346,4.3,4.3,0,0,1,2.152-.538,4.5,4.5,0,0,1,3.518,1c1.076,1.14.791,3.061-.14,4.3a14.065,14.065,0,0,1-3.636,2.916,8.025,8.025,0,0,0-2.6,2.48,2.537,2.537,0,0,0-.194.441H76.048A21.754,21.754,0,0,1,71.168,723.318Z" transform="translate(824.346 -321.376)" fill="#6c63ff"/>
    <ellipse id="Ellipse_63" data-name="Ellipse 63" cx="14.486" cy="2.448" rx="14.486" ry="2.448" transform="translate(1412.498 422.292)" fill="#6c63ff" opacity="0.1"/>
    <path id="Path_398" data-name="Path 398" d="M1042.91,749.275s8.263-.253,10.759-2.028,12.706-3.889,13.325-1.044,12.421,14.142,3.088,14.217-21.673-1.452-24.159-2.969S1042.91,749.275,1042.91,749.275Z" transform="translate(374.349 -335.913)" fill="#a8a8a8"/>
    <path id="Path_399" data-name="Path 399" d="M1070.242,763.267c-9.328.075-21.673-1.452-24.159-2.969-1.894-1.151-2.647-5.288-2.9-7.2h-.274s.538,6.665,3.007,8.177,14.831,3.045,24.158,2.969c2.69,0,3.626-.979,3.572-2.4C1073.276,762.729,1072.249,763.267,1070.242,763.267Z" transform="translate(374.349 -339.743)" opacity="0.2"/>
  </g>
</svg>
