<svg xmlns="http://www.w3.org/2000/svg" width="509.999" height="390.373" viewBox="0 0 509.999 390.373">
  <path id="Path_1044" data-name="Path 1044" d="M321.335,40.236c22.948-8.53,50.884-1.194,74.741,9.505,74.929,33.611,129.516,97.414,172.887,162.416,15.7,23.537,30.619,48.11,36.522,74.385,12.02,53.48-19.33,108.845-72.648,128.246-18.131,6.6-38.051,9.312-58,10.821-35.476,2.687-72.206,1.621-107.4-8.332-25.1-7.112-48.837-18.553-71.607-31.193C232.243,350.768,174.17,304.9,132.354,248.878,114.015,224.3,98.5,196.6,98.052,168.249s18.03-56.843,48.43-61.664c12.569-1.991,25.864.081,38.834,2.215,19.1,3.145,38.453,6.452,57.331,5.08,19.5-1.428,44.869-9.048,48.425-27.667C294.837,66.222,298.418,48.756,321.335,40.236Z" transform="translate(-98.044 -36.504)" fill="#f2f2f2"/>
</svg>
