<svg xmlns="http://www.w3.org/2000/svg" xmlns:xlink="http://www.w3.org/1999/xlink" width="619.845" height="444.707" viewBox="0 0 619.845 444.707">
  <defs>
    <linearGradient id="linear-gradient" x1="0.5" y1="1" x2="0.5" gradientUnits="objectBoundingBox">
      <stop offset="0" stop-color="gray" stop-opacity="0.251"/>
      <stop offset="0.54" stop-color="gray" stop-opacity="0.122"/>
      <stop offset="1" stop-color="gray" stop-opacity="0.102"/>
    </linearGradient>
    <linearGradient id="linear-gradient-2" x1="0.5" y1="1" x2="0.5" y2="0" xlink:href="#linear-gradient"/>
    <linearGradient id="linear-gradient-3" x1="3.499" y1="1.031" x2="3.499" y2="0.019" xlink:href="#linear-gradient"/>
  </defs>
  <g id="Group_269" data-name="Group 269" transform="translate(0 0.077)">
    <ellipse id="Ellipse_103" data-name="Ellipse 103" cx="51.587" cy="12.743" rx="51.587" ry="12.743" transform="translate(475.956 417.02)" fill="#6c63ff" opacity="0.1"/>
    <ellipse id="Ellipse_104" data-name="Ellipse 104" cx="51.587" cy="12.743" rx="51.587" ry="12.743" transform="translate(20.576 419.143)" fill="#6c63ff" opacity="0.1"/>
    <path id="Path_589" data-name="Path 589" d="M749.823,678.54s3.056,3.994-1.412,10.028-8.147,11.125-6.658,14.887c0,0,6.735-11.2,12.223-11.337S755.858,685.275,749.823,678.54Z" transform="translate(-374.011 -338.476)" fill="#6c63ff"/>
    <path id="Path_590" data-name="Path 590" d="M749.984,678.54a4.949,4.949,0,0,1,.624,1.252c5.354,6.287,8.2,12.156,3.061,12.3-4.792.139-10.543,8.709-11.919,10.868a3.95,3.95,0,0,0,.165.515s6.735-11.2,12.223-11.337S756.019,685.275,749.984,678.54Z" transform="translate(-374.173 -338.476)" opacity="0.1"/>
    <path id="Path_591" data-name="Path 591" d="M768.091,687.574c0,1.407-.155,2.546-.35,2.546s-.35-1.139-.35-2.546.2-.742.392-.742S768.091,686.168,768.091,687.574Z" transform="translate(-386.6 -342.419)" fill="#ffd037"/>
    <path id="Path_592" data-name="Path 592" d="M770.27,690.747c-1.237.67-2.314,1.077-2.406.907s.835-.855,2.061-1.546.747-.185.84,0S771.5,690.072,770.27,690.747Z" transform="translate(-386.827 -343.912)" fill="#ffd037"/>
    <path id="Path_593" data-name="Path 593" d="M719.96,678.54s-3.056,3.994,1.407,10.028,8.152,11.125,6.663,14.887c0,0-6.74-11.2-12.223-11.337S713.926,685.275,719.96,678.54Z" transform="translate(-360.287 -338.476)" fill="#6c63ff"/>
    <path id="Path_594" data-name="Path 594" d="M719.96,678.54a4.839,4.839,0,0,0-.629,1.252c-5.349,6.287-8.2,12.156-3.056,12.3,4.792.139,10.538,8.709,11.914,10.868a3.943,3.943,0,0,1-.16.515s-6.74-11.2-12.223-11.337S713.926,685.275,719.96,678.54Z" transform="translate(-360.287 -338.476)" opacity="0.1"/>
    <path id="Path_595" data-name="Path 595" d="M715.38,687.579c0,1.407.16,2.546.356,2.546s.35-1.139.35-2.546-.2-.732-.386-.732S715.38,686.173,715.38,687.579Z" transform="translate(-361.391 -342.424)" fill="#ffd037"/>
    <path id="Path_596" data-name="Path 596" d="M710.9,690.747c1.237.67,2.314,1.077,2.406.907s-.835-.855-2.061-1.546-.747-.185-.84,0S709.66,690.072,710.9,690.747Z" transform="translate(-358.856 -343.912)" fill="#ffd037"/>
    <ellipse id="Ellipse_108" data-name="Ellipse 108" cx="31.949" cy="4.901" rx="31.949" ry="4.901" transform="translate(335.793 385.741)" fill="#6c63ff" opacity="0.1"/>
    <path id="Path_597" data-name="Path 597" d="M743.046,714.7l-.155,1.247-.211,1.762-.093.737-.211,1.762-.093.737-.216,1.757-2.443,20.045c-.222,1.788-3.143,3.185-6.7,3.185H720.239c-3.53,0-6.446-1.4-6.663-3.185l-2.453-20.03-.211-1.757-.093-.737-.216-1.762-.088-.737-.216-1.762-.155-1.247c-.119-1.031,1.463-1.865,3.458-1.865h25.982C741.578,712.834,743.16,713.685,743.046,714.7Z" transform="translate(-358.85 -355.106)" fill="#65617d"/>
    <path id="Path_598" data-name="Path 598" d="M714.6,700.32l-.211,1.762H682.236l-.216-1.762Z" transform="translate(-330.572 -339.479)" fill="#9d9cb5"/>
    <path id="Path_599" data-name="Path 599" d="M714.585,705.16l-.211,1.762H682.826l-.216-1.762Z" transform="translate(-330.858 -341.825)" fill="#9d9cb5"/>
    <path id="Path_600" data-name="Path 600" d="M714.571,710.01l-.216,1.762H683.421l-.211-1.762Z" transform="translate(-331.148 -344.176)" fill="#9d9cb5"/>
    
    <path id="Path_601" data-name="Path 601" d="M1061.242,531.963c.2-.515-1.257-3.463-1.257-3.607s-1.5-1.778-1.5-2.69-1.984-2.886-1.984-2.886-2.664-1.1-2.953-3.509-3.19-2.448-3.2-2.448h0v-.551a7.581,7.581,0,0,0-.355-2.808,2.829,2.829,0,0,0-1.644-1.4,6.22,6.22,0,0,0-.871-2.453,2.757,2.757,0,0,1-.68-2.577c.294-.907-.386-3.215-1.788-3.556s-3-.866-3-.866l-.386.067-.191-.067a8.033,8.033,0,0,1-1.031.129,1.273,1.273,0,0,1-.819-.268c-.484-.515-4.406-1.546-5.153-1.546a11.78,11.78,0,0,1-2.808-.964s-1.453-1.1-2.061-1.587a13.52,13.52,0,0,1-1.824-2.509v-.036h0a8.889,8.889,0,0,1-.438-1.262h0a11.367,11.367,0,0,0,1.8-2.479c.052-.093.1-.185.144-.283a1.081,1.081,0,0,0,.314-.046l.129-.052a2.093,2.093,0,0,0,1.031-1.226h0a3.259,3.259,0,0,0,.093-.319v-.108l.046-.216a1,1,0,0,1,0-.124l.031-.216v-.124a.713.713,0,0,1,.036-.273h0a9.587,9.587,0,0,1,.149-1.031h0a18.572,18.572,0,0,1,1.628-3.607h0c.077-.17.155-.345.222-.515s.134-.387.191-.582l.046-.18c.036-.144.067-.289.1-.433s0-.129.036-.2q.047-.294.077-.6a7.45,7.45,0,0,0-.515-3.375c-.361-.9-.9-1.716-1.268-2.618-.557-1.366-.706-2.917-1.381-4.22a5.024,5.024,0,0,0-6.029-2.453c-1.031.392-1.968,1.149-3.035,1.489a10.115,10.115,0,0,1-4.442-.088,5.54,5.54,0,0,0-4.308.742c-1.371,1.113-1.742,3.205-3.03,4.426-.515.515-1.211.84-1.783,1.314a2.912,2.912,0,0,0-.9,1.226l-.031.1a.924.924,0,0,0-.031.129,1.192,1.192,0,0,0-.026.144.57.57,0,0,0,0,.1,1.08,1.08,0,0,0,0,.258h0a1.965,1.965,0,0,0,.036.242v.067a.6.6,0,0,0,.062.2c.026.067,0,.026,0,.036s.057.149.088.222l.046.108a.086.086,0,0,0,.041.088,6.4,6.4,0,0,1,.448,1.118,1.242,1.242,0,0,1-.046.737,2.175,2.175,0,0,1-.515.706,9.972,9.972,0,0,0-2.185,3.5q-.088.227-.155.448h.067a2.916,2.916,0,0,0,.422.088,2.063,2.063,0,0,0,.242,0,3.773,3.773,0,0,0,.989-.072l.247-.062a5.605,5.605,0,0,0,.979-.356q0,.147,0,.294v.165a11.429,11.429,0,0,0,6.354,10.224,2.137,2.137,0,0,0,.041.309l.031.263-.129-.124s-.871-.433-1.7.814a5.473,5.473,0,0,1-2.37,1.829s-8.812,1.391-9.152,2.546l-4.122.242s-1.453.191-1.6,3.221-.917,3.313-.917,3.313-1.7,2.984-1.546,4.519a2.52,2.52,0,0,1-1.309,2.309l-.191,2.741A1.891,1.891,0,0,0,988.7,520.5a6.518,6.518,0,0,1-1.206,2.736s-2.664,2.216-2.808,4.086l-1.649,1.031s-3.824-.866-4.694-2.4c0,0-.1-.1-.268-.253v-.036h0a15.507,15.507,0,0,0-1.6-1.407,1.159,1.159,0,0,1,.077.773l-.283-.314-.763-.845s-6.184-5.792-9.791-6.251h0c-.046-.093-.283-1.031-.9-.438a5.05,5.05,0,0,0-.036,7.4l5.792,5.406.149.108,1.242,1.6a14.511,14.511,0,0,0-.515,1.432v.046l-.093.278a.624.624,0,0,0-.026.093c-.031.093-.057.18-.082.268l-.046.155v.093c-.139.484-.227.855-.268,1.061l-.325-.1.314.139v.149l.3.129c1.7.737,10.157,4.452,10.589,5.014a6.229,6.229,0,0,0,6.586.912,6.935,6.935,0,0,0,3.53-3.891A40.642,40.642,0,0,0,994.83,533c.1-.577,2.273-1.247,2.273-1.247s.2,6.436-.917,8.8-3.195,12.785-3.195,12.785a1.469,1.469,0,0,1,.412,0l-.124.6a1.4,1.4,0,0,1,.515,0c-.155,1.185-1.031,6.7-1.031,6.7a13.723,13.723,0,0,1-.773,3.365c-.484.866-.515,5.385-.515,5.385l-.778,3.267s.1.227.294.562h0a8.363,8.363,0,0,0,2.226,2.881,5.7,5.7,0,0,1-.392,1.494,5.256,5.256,0,0,0-.387,2.309,29.974,29.974,0,0,0-.727,4.756,18.167,18.167,0,0,1-.515,3.654l-.871,8.363s-.577,7.255-.289,9.229a17.713,17.713,0,0,1-.2,4.638s.582,5.72.438,6.343-.871,3.319-.438,4.808a26.24,26.24,0,0,1,.2,5.576s.289,5.385.629,7.116a12.18,12.18,0,0,1-.1,3.942,32.483,32.483,0,0,1-.484,3.7c-.144,0-1.4,2.546,1.159,5.045s.974,2.113.974,2.113-2.061-1.031-1.793,1.062c.227,1.963.546,1.453.577,1.4l-.484,1.582.34.046-.278.335a7.234,7.234,0,0,1-.979,1.031,2.1,2.1,0,0,0-.629,1.391,37.74,37.74,0,0,1-6.921,5.864,20.013,20.013,0,0,0-3.932,2.643c-.6.649-.515,1.175.737,1.587a18.857,18.857,0,0,0,10.5.191A12.285,12.285,0,0,0,994.51,663a7.292,7.292,0,0,1,4.122-.675c2.061.387,6.1-2.257,6.1-2.257l-.077-.68-.211-1.968a1.546,1.546,0,0,1-.34-1.2,6.178,6.178,0,0,0-.17-1.731c-.036-.191-.072-.381-.108-.557l.371-.072s-.479-2.448.392-2.932.624-6.776.624-6.776a7.6,7.6,0,0,0-1.69-1.68c-.582-.237-.052-3.226.051-3.607s.871-7.838.871-7.838a10.035,10.035,0,0,1,.093-3.36c.386-1.01-.484-4.906-.484-4.906a.9.9,0,0,1,.242-1.056c.515-.577.34-5.72.34-5.72s-.046-2.577-.046-3.272a11.606,11.606,0,0,1,1.113-3.937c.536-.814.191-3.365.191-3.365h0l.031-.191a.717.717,0,0,1,.041-.273l.041-.258a37.47,37.47,0,0,1,.948-4.174c.629-2.015,1.355-5.57,1.355-5.57l4.5-11.739.052-.139a18.538,18.538,0,0,1,2.061,7.4,46.752,46.752,0,0,1,.392,5.431c-.124,1.154.335,6.58.335,6.58s.629,7.786.629,8.121.778,6.343,1.263,7.261-.484,3.7-.778,3.988.1,7.353.1,7.353-.727,5.576-.871,6.73-.727,5.576-.242,7.307.289,1.968.289,1.968,1.747,1.783.727,1.927a2.664,2.664,0,0,0-1.938,3.5,46.192,46.192,0,0,0,2.133,5.153l.8-.17v.572l.057,2.865a16.709,16.709,0,0,1,.144,3.365c-.139.453-.335,2.607-.428,3.736-.036.412-.057.685-.057.685s0,2.546,5.375,1.778,6.338-2.886,6.338-2.886l.041-.263c.077-.484.252-1.515.4-2.092.191-.768-1.546-4.231-1.546-4.231a8.782,8.782,0,0,0-.773-2.88,2.574,2.574,0,0,1-.392-1.031c-.041-.2-.083-.4-.113-.593a3.478,3.478,0,0,1,.361.062s-.294-1.68.824-2.211a1.583,1.583,0,0,0,.675-2.113,16.323,16.323,0,0,1,.433-3.174,1.545,1.545,0,0,1,.386-1.546c.68-.675,1.211-5.385,1.211-5.385l.1-18.17a17.477,17.477,0,0,0-.046-4.519c-.386-1.3-.773-3.8-.242-4.473s.046-3.793.046-3.793,0-6.586.727-8.245.484-11.97.484-11.97l.191-6.776s1.582-1.494,1.211-9.276c1.685-.108,3.607-.17,3.875.067.515.433,3.968,2.643,6,1.247a26.973,26.973,0,0,0,2.417-1.871l-.855-14.429.855,1.335c0-2.015,5.715-8.554,5.715-8.554s5.323-6.874,6.482-7.688,3.437-5.153,3.437-5.153a20.929,20.929,0,0,1,1.165-2.4C1062.793,534.8,1061.052,532.489,1061.242,531.963Zm-12.486,5.045c-1.453.144-4.5,3.463-4.55,4.184a2.969,2.969,0,0,1-.644,1.288c0-.289-.046-.582-.072-.881-.34-4.251-.711-9.425-.515-9.925a29.327,29.327,0,0,0,.191-4.761h0l.057-.077c.974,3.02,4,6.575,4,6.575s.515,1.546,1.165,1.582S1048.756,537.008,1048.756,537.008Z" transform="translate(-481.498 -236.932)" fill="url(#linear-gradient-2)"/>
    <path id="Path_602" data-name="Path 602" d="M978.65,590.085s1.767-9.275,7.441-9.275l4.153,8.539-2.767,1.907S981.464,591.42,978.65,590.085Z" transform="translate(-488.997 -291.107)" fill="#65617d"/>
    <path id="Path_603" data-name="Path 603" d="M990.244,589.308l-2.767,1.907a32.763,32.763,0,0,1-7.255-.608,8.366,8.366,0,0,1-1.572-.515l.031-.149v-.031a20.621,20.621,0,0,1,1.072-3.4c.175-.417.371-.845.588-1.273a8.629,8.629,0,0,1,3.607-3.942,4.888,4.888,0,0,1,1.891-.515h.252l.093.191,1.4,2.886Z" transform="translate(-488.997 -291.092)" opacity="0.1"/>
    <path id="Path_604" data-name="Path 604" d="M1088.524,647.041s5.962-.572,6.488-.139,3.911,2.623,5.911,1.237.67-6.184.67-6.39-.191-7.013-.191-7.013l-3.576-4.818-4.483-8.441-9.162-.907.237,13.4-.046,6.869Z" transform="translate(-540.147 -310.378)" fill="#65617d"/>
    <path id="Path_605" data-name="Path 605" d="M1088.524,647.041s5.962-.572,6.488-.139,3.911,2.623,5.911,1.237.67-6.184.67-6.39-.191-7.013-.191-7.013l-3.576-4.818-4.483-8.441-9.162-.907.237,13.4-.046,6.869Z" transform="translate(-540.147 -310.378)" opacity="0.1"/>
    <path id="Path_606" data-name="Path 606" d="M977.972,572.04s-.479,5.818-4.122,5.916c0,0-1.031-.618-2.412-1.654-3.184-2.386-8.245-6.967-6.843-11.228,2-6.106,11.734,5.153,11.734,5.153l.752.84Z" transform="translate(-482.068 -282.599)" fill="#fbbebe"/>
    <path id="Path_607" data-name="Path 607" d="M984.343,579.365s-.479,5.818-4.122,5.916c0,0-1.031-.618-2.412-1.654l-.309-.4a4.747,4.747,0,0,0,1.989.515,2.685,2.685,0,0,0,2.577-1.634A20.583,20.583,0,0,0,983.1,579.8a7.2,7.2,0,0,0,.366-1.427Z" transform="translate(-488.439 -289.924)" opacity="0.1"/>
    <path id="Path_608" data-name="Path 608" d="M983.057,589.467l-.814-1.031L979.5,584.9l-1.4-1.809a4.706,4.706,0,0,0,1.984.515,2.669,2.669,0,0,0,2.577-1.634,20.2,20.2,0,0,0,1-2.309c.453-1.288.443-1.948.283-2.175a12.735,12.735,0,0,1,1.577,1.4h0l.263.247.1.2,1.438,2.783a.737.737,0,0,1,0,.118C987.427,583.113,987.891,588.673,983.057,589.467Z" transform="translate(-488.73 -289.483)" fill="#e7effd"/>
    <path id="Path_609" data-name="Path 609" d="M1018.2,831.8s-4.009,2.628-6.014,2.242a7.215,7.215,0,0,0-4.055.67,12.038,12.038,0,0,1-5.055,3.293,18.518,18.518,0,0,1-10.352-.191c-1.216-.407-1.314-.933-.727-1.577a22,22,0,0,1,3.875-2.623,37.463,37.463,0,0,0,6.823-5.818,2.061,2.061,0,0,1,.618-1.386,7.109,7.109,0,0,0,.964-1.031c.515-.6.995-1.237.995-1.237l11.806.443s.2.85.361,1.721a6.224,6.224,0,0,1,.165,1.716,1.545,1.545,0,0,0,.335,1.19l.211,1.948Z" transform="translate(-495.299 -409.048)" fill="#65617d"/>
    <path id="Path_610" data-name="Path 610" d="M1079.74,835.983c-.139.572-.314,1.592-.391,2.061a.869.869,0,0,1-.036.263s-.953,2.1-6.251,2.86-5.292-1.762-5.292-1.762l.052-.685c.093-1.113.283-3.252.422-3.705a16.945,16.945,0,0,0-.139-3.339l-.057-2.845-.041-1.974,8.76-.907a16.911,16.911,0,0,0,.284,1.953,2.51,2.51,0,0,0,.386,1.031,8.822,8.822,0,0,1,.763,2.86S1079.947,835.22,1079.74,835.983Z" transform="translate(-532.193 -409.925)" fill="#65617d"/>
    <path id="Path_611" data-name="Path 611" d="M1028.917,824.636s.2.85.361,1.721c-1.273.232-6.838,1.2-8.245.515a21.834,21.834,0,0,0-4.962-1.19l.057-.2c.515-.6.995-1.237.995-1.237Z" transform="translate(-507.134 -409.101)" opacity="0.1"/>
    <path id="Path_612" data-name="Path 612" d="M1077.319,827.933c-2.221-.376-7.1.515-9.018.927l-.041-1.974,8.76-.907A16.93,16.93,0,0,0,1077.319,827.933Z" transform="translate(-532.43 -409.94)" opacity="0.1"/>
    <path id="Path_613" data-name="Path 613" d="M1056.158,662.21l-.186,6.7s.237,10.255-.479,11.852-.716,8.157-.716,8.157.479,3.092-.046,3.767-.144,3.149.237,4.437a17.426,17.426,0,0,1,.046,4.483l-.093,18.036s-.515,4.674-1.2,5.344a1.571,1.571,0,0,0-.381,1.546,16.072,16.072,0,0,0-.428,3.149,1.583,1.583,0,0,1-.665,2.1c-1.093.526-.814,2.2-.814,2.2-2.623-.624-10.064,1.031-10.064,1.031a45.659,45.659,0,0,1-2.1-5.107,2.644,2.644,0,0,1,1.912-3.483c1-.139-.716-1.907-.716-1.907s.191-.237-.289-1.958.1-6.106.242-7.25.856-6.7.856-6.7-.381-7.013-.093-7.3,1.237-3.056.763-3.958-1.242-6.869-1.242-7.214-.618-8.065-.618-8.065a64.3,64.3,0,0,1-.428-6.534,42.1,42.1,0,0,0-.386-5.39,18.316,18.316,0,0,0-2.061-7.348l-.051.139-4.432,11.728s-.716,3.53-1.335,5.534a36.352,36.352,0,0,0-.933,4.123l-.041.258-.041.268-.031.191h0s.33,2.525-.2,3.339a11.911,11.911,0,0,0-1.092,3.911c0,.67.046,3.246.046,3.246s.191,5.1-.335,5.668a.892.892,0,0,0-.237,1.031s.855,3.865.474,4.864a10.056,10.056,0,0,0-.093,3.339s-.763,7.395-.861,7.776-.618,3.339-.046,3.576a7.635,7.635,0,0,1,1.67,1.67s.237,6.251-.618,6.725-.386,2.911-.386,2.911-6.915,1.335-8.487.572a21.766,21.766,0,0,0-4.962-1.19l.474-1.546c-.031.057-.345.567-.567-1.386-.242-2.061,1.762-1.031,1.762-1.031s1.577.381-.953-2.1-1.288-5.009-1.144-5.009a31.981,31.981,0,0,0,.474-3.674,12.144,12.144,0,0,0,.1-3.911c-.335-1.716-.618-7.06-.618-7.06a25.855,25.855,0,0,0-.2-5.534c-.433-1.479.289-4.122.433-4.772s-.433-6.3-.433-6.3a17.658,17.658,0,0,0,.2-4.638c-.289-1.958.284-9.162.284-9.162l.861-8.3a17.143,17.143,0,0,0,.515-3.607,28.935,28.935,0,0,1,.716-4.72,5.233,5.233,0,0,1,.381-2.293,17.62,17.62,0,0,0,.67-4.122l4.581-10.492,2.241-9.276,30.29-.289s.108.8.294,2.262.443,3.607.732,6.282c.263,2.422.551,5.272.835,8.441C1058.07,660.4,1056.158,662.21,1056.158,662.21Z" transform="translate(-506.307 -316.529)" fill="#3f3d56"/>
    <path id="Path_614" data-name="Path 614" d="M1074.863,520.041l-7.055,7.549s-9.059-3.607-8.106-4.87c.366-.479.309-1.994.1-3.664-.335-2.644-1.031-5.668-1.031-5.668s15.835-2.577,14.5.093a4.39,4.39,0,0,0-.1,3.169,12,12,0,0,0,1.7,3.391Z" transform="translate(-527.831 -257.886)" fill="#fbbebe"/>
    <path id="Path_615" data-name="Path 615" d="M1073.245,513.431c-.484.979-.716,1.072-.412,2.123-2.061,2.221-4.7,4.638-7.982,4.638a11.3,11.3,0,0,1-5.05-1.185c-.335-2.644-1.031-5.668-1.031-5.668S1074.585,510.762,1073.245,513.431Z" transform="translate(-527.831 -257.862)" opacity="0.1"/>
    <path id="Path_616" data-name="Path 616" d="M1071.25,494.374a11.355,11.355,0,1,1-22.709,0v-.165a11.352,11.352,0,0,1,22.7.165Z" transform="translate(-522.872 -243.669)" fill="#fbbebe"/>
    <path id="Path_617" data-name="Path 617" d="M1065.76,644.581c-1.5,0-6.513.052-12.11.144h-.067l-1.85.031h-.057c-6.637.1-13.176-1.19-15.8-.948-5.581.515,2-5.153,2-5.153a46.807,46.807,0,0,0,12.713,1.283l1.608-.082c5.071-.289,10.167-.763,12.831-1.546C1065.214,639.773,1065.471,641.917,1065.76,644.581Z" transform="translate(-515.739 -318.977)" opacity="0.1"/>
    <path id="Path_618" data-name="Path 618" d="M1065.76,644.026c-1.5,0-6.513.057-12.11.144h-.067l-1.85.031h-.057c-6.637.108-13.176-1.19-15.8-.943-5.581.515,2-5.153,2-5.153a46.565,46.565,0,0,0,12.713,1.283l1.608-.082c5.071-.283,10.167-.763,12.831-1.546C1065.214,639.218,1065.471,641.362,1065.76,644.026Z" transform="translate(-515.739 -318.71)" fill="#5f5d7e"/>
    <path id="Path_619" data-name="Path 619" d="M1050.036,531.875l-8.76,4.122-6.776,52.376s4.009-1.814,6.3-.67,9.348.1,9.348.1,5.153-.289,5.916.289,9.734-2.386,9.734-2.386,1.623-3.607.381-4.2.381-6.184.381-6.184l-.763-37.782-1.546-4.865-4.122-2.484-4.195,3.339-2,.289Z" transform="translate(-516.067 -266.572)" opacity="0.1"/>
    <path id="Path_620" data-name="Path 620" d="M1050.022,530.77l-8.76,4.122-6.792,52.381s4.009-1.814,6.3-.67,9.348.1,9.348.1,5.153-.289,5.916.283,9.734-2.381,9.734-2.381,1.623-3.607.381-4.2.381-6.184.381-6.184l-.763-37.782-1.546-4.865-4.122-2.484-4.195,3.339-2,.289Z" transform="translate(-516.053 -266.038)" fill="#e7effd"/>
    <path id="Path_621" data-name="Path 621" d="M1057.933,536.367s2.53,3,2.484,3.607-.144,2.1-.144,2.1l-1.906,3.86s-1.031,4.818-1.031,5.823-1.67,9.683-1.67,9.683l-2.046,13.372-2.53,17.52,2.577,4.437,3.056-2.577,4.055-31.2.856-6.153s.907-11.069.907-12.213a38.871,38.871,0,0,0-.515-4.148s.624-2.865,3.2-3.53-.2-.144-.2-.144l-1.474-1.19-1.288.515S1058.7,535.033,1057.933,536.367Z" transform="translate(-524.108 -269.203)" opacity="0.1"/>
    <path id="Path_622" data-name="Path 622" d="M1057.422,535.783s2.525,3,2.479,3.607-.144,2.1-.144,2.1l-1.906,3.865s-1.031,4.818-1.031,5.818-1.67,9.683-1.67,9.683l-2,13.357-2.53,17.52,2.576,4.437,3.051-2.576,4.055-31.2.861-6.153s.907-11.069.907-12.213a39.029,39.029,0,0,0-.515-4.153s.618-2.86,3.195-3.53-.191-.139-.191-.139l-1.479-1.2-1.288.515S1058.185,534.448,1057.422,535.783Z" transform="translate(-523.88 -268.908)" fill="#6c63ff"/>
    <path id="Path_623" data-name="Path 623" d="M1058.782,526.79s-.381.289-.479,2.2a38.189,38.189,0,0,1-1.432,6.184s4.962-3.432,7.441-3.051Z" transform="translate(-526.91 -264.924)" opacity="0.1"/>
    <path id="Path_624" data-name="Path 624" d="M1058.782,525.68s-.381.289-.479,2.2a38.192,38.192,0,0,1-1.432,6.184s4.962-3.432,7.441-3.051Z" transform="translate(-526.91 -264.386)" fill="#e7effd"/>
    <path id="Path_625" data-name="Path 625" d="M1079.512,523.83l-7.822,6.869s6.58,3.911,7.441,4.865,1.716-9.348,1.716-9.348Z" transform="translate(-534.093 -263.489)" opacity="0.1"/>
    <path id="Path_626" data-name="Path 626" d="M1080.062,522.72l-7.822,6.869s6.586,3.911,7.441,4.865,1.716-9.348,1.716-9.348Z" transform="translate(-534.359 -262.951)" fill="#e7effd"/>
    <path id="Path_627" data-name="Path 627" d="M1039.76,526.723s-.855-.428-1.67.814a5.384,5.384,0,0,1-2.334,1.809s-8.683,1.386-9.018,2.53l-4.055.237s-1.433.191-1.546,3.2-.907,3.288-.907,3.288-1.67,2.958-1.546,4.483a2.509,2.509,0,0,1-1.288,2.293l5.962,15.5s.191,6.395-.907,8.729S1019.3,582.3,1019.3,582.3s.861-.191.809.381-1.031,6.823-1.031,6.823a13.888,13.888,0,0,1-.763,3.339c-.474.861-.515,5.339-.515,5.339l-.763,3.246s1.809,4.055,4.576,3.483,7.771-11.4,7.771-11.4l3.195-11.687,2.484-11.543.716-7.822,1.144-17.319,1.67-11.445S1040.43,527.537,1039.76,526.723Z" transform="translate(-507.604 -264.857)" opacity="0.1"/>
    <path id="Path_628" data-name="Path 628" d="M1039.2,525.613s-.861-.428-1.67.814a5.417,5.417,0,0,1-2.34,1.809s-8.683,1.386-9.018,2.53l-4.05.237s-1.433.191-1.577,3.195-.907,3.293-.907,3.293-1.67,2.958-1.546,4.483a2.5,2.5,0,0,1-1.288,2.293l5.983,15.521s.191,6.395-.907,8.729-3.148,12.692-3.148,12.692.861-.191.814.381-1.031,6.818-1.031,6.818a13.588,13.588,0,0,1-.763,3.339c-.479.855-.515,5.344-.515,5.344l-.763,3.246s1.814,4.055,4.581,3.478,7.776-11.4,7.776-11.4l3.195-11.687,2.479-11.543.685-7.853,1.144-17.319,1.67-11.445S1039.87,526.427,1039.2,525.613Z" transform="translate(-507.333 -264.319)" fill="#65617d"/>
    <path id="Path_629" data-name="Path 629" d="M989.978,589.047l-2.767,1.907a32.763,32.763,0,0,1-7.255-.608l-1.546-.685-.309-.134.32.1a6.317,6.317,0,0,0,3.818.134c3.916-1.319,3.484-7.781,3.329-9.244a1.349,1.349,0,0,0-.031-.278h0v.036a2.57,2.57,0,0,0,.18.253l.175.185h0l1.433,2.752a.753.753,0,0,1,0,.119Z" transform="translate(-488.73 -290.831)" opacity="0.1"/>
    <path id="Path_630" data-name="Path 630" d="M999.819,561.14l-1.335.381-.191,2.716a1.847,1.847,0,0,0-2,1.623,6.551,6.551,0,0,1-1.19,2.721s-2.623,2.2-2.767,4.055l-1.623,1s-3.767-.861-4.638-2.386c0,0,1.721,12.306-7.441,9.276,0,0,10.255,4.483,10.734,5.107a6,6,0,0,0,6.488.907,6.8,6.8,0,0,0,3.483-3.865,39.849,39.849,0,0,0,2.86-4.437c.093-.572,2.242-1.242,2.242-1.242l4.122-9.92Z" transform="translate(-488.987 -281.573)" fill="#65617d"/>
    <path id="Path_631" data-name="Path 631" d="M1083.853,529.017l1.381-6.3a7.413,7.413,0,0,0,1.242,2.53l2.061,1.546a12.1,12.1,0,0,0,2.767.953c.706,0,4.581,1.031,5.055,1.546s2.386.144,2.386.144,1.572.515,2.958.86,2.061,2.623,1.762,3.53a2.757,2.757,0,0,0,.67,2.577,6.153,6.153,0,0,1,.86,2.432,2.793,2.793,0,0,1,1.618,1.381,9.542,9.542,0,0,1,.335,3.339l-7.106,10.018a29.462,29.462,0,0,1-.191,4.725c-.283.861,1,15.459,1,15.459l1.479,25.09a26,26,0,0,1-2.386,1.86c-.428.191-.855-8.874-.855-9.2s-11.022-16.49-11.022-16.49a14.805,14.805,0,0,1-1.479-2.911c0-.526-1.381-5.344-1.381-5.344l-2.1-9.276Z" transform="translate(-539.531 -262.951)" opacity="0.1"/>
    <path id="Path_632" data-name="Path 632" d="M1108.064,543.023v.546l-7.1,10.007h0a28.88,28.88,0,0,1-.191,4.725c-.165.515.2,5.632.515,9.848.242,3.04.464,5.606.464,5.606l.629,10.641.85,14.429a26.03,26.03,0,0,1-2.386,1.86c-.428.191-.855-8.874-.855-9.208s-11.022-16.49-11.022-16.49a14.8,14.8,0,0,1-1.479-2.911c0-.526-1.381-5.344-1.381-5.344l-2.1-9.276.953-28.429.809-6.3a13.512,13.512,0,0,0,1.814,2.525l2.061,1.577a12.1,12.1,0,0,0,2.767.953c.706,0,4.581,1.031,5.055,1.546s2.386.144,2.386.144,1.577.515,2.958.86,2.061,2.623,1.762,3.53a2.762,2.762,0,0,0,.67,2.577,6.15,6.15,0,0,1,.861,2.432,2.793,2.793,0,0,1,1.618,1.381A7.73,7.73,0,0,1,1108.064,543.023Z" transform="translate(-540.064 -262.956)" fill="#65617d"/>
    <path id="Path_633" data-name="Path 633" d="M1017.53,808.76c.237,0,10.255.381,10.064,2S1017.53,808.76,1017.53,808.76Z" transform="translate(-507.842 -401.593)" opacity="0.1"/>
    <path id="Path_634" data-name="Path 634" d="M1021.88,814s6.725,1.1,4.962,2.1S1021.88,814,1021.88,814Z" transform="translate(-509.95 -404.133)" opacity="0.1"/>
    <path id="Path_635" data-name="Path 635" d="M1070.39,806.73s11.161.953,9.492,2.19-5.627,1.433-5.818,1.479S1070.39,806.73,1070.39,806.73Z" transform="translate(-533.463 -400.609)" opacity="0.1"/>
    <path id="Path_636" data-name="Path 636" d="M1067.8,816.26s6.184,1.031,6.39,2.242S1067.8,816.26,1067.8,816.26Z" transform="translate(-532.207 -405.228)" opacity="0.1"/>
    <path id="Path_637" data-name="Path 637" d="M1074.46,760.53s5.668,1.335,6.014,2.242Z" transform="translate(-535.435 -378.216)" opacity="0.1"/>
    <path id="Path_638" data-name="Path 638" d="M1030.737,768.49s-2.958.861-.093,2.577S1030.737,768.49,1030.737,768.49Z" transform="translate(-513.592 -382.074)" opacity="0.1"/>
    <path id="Path_639" data-name="Path 639" d="M1057.43,678.45c.335,0,5.534-1.716,7.348-.953a12.082,12.082,0,0,0,4.05.763Z" transform="translate(-527.181 -337.875)" opacity="0.1"/>
    <path id="Path_640" data-name="Path 640" d="M1052.366,687.6l-.052.474-4.447,11.646s-.716,3.53-1.335,5.534a36.379,36.379,0,0,0-.933,4.122l3.937-24.41Z" transform="translate(-521.447 -341.593)" opacity="0.1"/>
    <path id="Path_641" data-name="Path 641" d="M1069.354,645.624l-1.85.031h-.057l-1.087-4.808,1.608-.088Z" transform="translate(-531.51 -320.164)" fill="#3f3d56"/>
    <path id="Path_642" data-name="Path 642" d="M1097.777,634.591l-1.185.979-3.968,3.262s-10.729,5.725-13.687.289c-2.607-4.792,9.559-8.214,12.491-8.961l.623-.149Z" transform="translate(-537.429 -314.954)" fill="#fbbebe"/>
    <path id="Path_643" data-name="Path 643" d="M1026.88,547.9s2.1.953,2.577,2.288S1026.88,547.9,1026.88,547.9Z" transform="translate(-512.374 -275.156)" opacity="0.1"/>
    <path id="Path_644" data-name="Path 644" d="M1012.306,575.67s-3.051,3.72-1.814,5.153S1012.306,575.67,1012.306,575.67Z" transform="translate(-504.288 -288.616)" opacity="0.1"/>
    <path id="Path_645" data-name="Path 645" d="M1117.408,552s-2.86.289-2.958,2.767Z" transform="translate(-554.818 -277.143)" opacity="0.1"/>
    <path id="Path_646" data-name="Path 646" d="M1068.72,619.216c.288-.289,6.869-10.018,8.4-9.157Z" transform="translate(-532.653 -305.258)" opacity="0.1"/>
    <path id="Path_647" data-name="Path 647" d="M1071.274,494.4a11.335,11.335,0,0,1-1.345,5.359h-.083c-.721-.155-1.1-.989-1.644-1.515a2.231,2.231,0,0,0-2.577-.361,2.618,2.618,0,0,0-1.268,2.448c-.361-1.546-.247-3.154-.6-4.684s-1.422-3.092-2.886-3.092c-.629,0-1.366.232-1.819-.242a4.522,4.522,0,0,1-.515-1.077c-1.031-1.7-4.225-.84-5.524.031a33.621,33.621,0,0,1-4.421,2.994,11.352,11.352,0,0,1,22.7.165Z" transform="translate(-522.896 -243.694)" opacity="0.1"/>
    <path id="Path_648" data-name="Path 648" d="M1055.766,485.158a7.25,7.25,0,0,0,.515,1.082c.454.469,1.19.227,1.819.237,1.464.026,2.535,1.577,2.886,3.092s.242,3.154.608,4.679a2.577,2.577,0,0,1,1.262-2.443,2.242,2.242,0,0,1,2.577.355c.546.515.922,1.366,1.644,1.515s1.412-.541,1.67-1.3a19.892,19.892,0,0,0,.412-2.376c.325-1.484,1.3-2.705,1.835-4.122a7.477,7.477,0,0,0-.046-5.328c-.361-.9-.892-1.7-1.252-2.577-.551-1.355-.7-2.891-1.366-4.184a4.947,4.947,0,0,0-5.941-2.443c-1.031.392-1.938,1.144-2.989,1.484a9.817,9.817,0,0,1-4.375-.093,5.385,5.385,0,0,0-4.246.737c-1.35,1.108-1.721,3.185-2.989,4.4-.515.515-1.2.835-1.757,1.3a2.422,2.422,0,0,0-.984,1.938c.088.989,1.031,1.886.7,2.8a2.175,2.175,0,0,1-.515.7,9.984,9.984,0,0,0-2.308,3.932c2.576.794,5.318-2.02,7.312-3.349C1051.541,484.323,1054.72,483.468,1055.766,485.158Z" transform="translate(-520.148 -237.932)" fill="#7c5c5c"/>
    <path id="Path_649" data-name="Path 649" d="M1109.694,634.591l-1.185.979c-1.031-1.747-5.349-5.23-5.349-5.23l.185-.18.624-.149Z" transform="translate(-549.346 -314.954)" opacity="0.1"/>
    <path id="Path_650" data-name="Path 650" d="M1111.109,631.384s-.422,1.062-.866,1.979-.922,1.752-.943,1.077c-.052-1.34-5.581-5.823-5.581-5.823l.747-.732.871-.845Z" transform="translate(-549.618 -313.514)" fill="#e7effd"/>
    <path id="Path_651" data-name="Path 651" d="M1111.344,616.5l.629,10.641c-1.484-2.3-5.55-8.209-8.162-8.018l6.343-7.3a8.5,8.5,0,0,0,.726-.933C1111.122,613.93,1111.344,616.5,1111.344,616.5Z" transform="translate(-549.661 -305.686)" opacity="0.1"/>
    <path id="Path_652" data-name="Path 652" d="M1111.812,631.384s-.423,1.061-.866,1.979c-1.665-2.278-3.947-4.973-5.777-5.478l.871-.845Z" transform="translate(-550.32 -313.514)" opacity="0.1"/>
    <path id="Path_653" data-name="Path 653" d="M1116.191,560.58l1.716,1.335s2.865.052,3.149,2.432,2.911,3.483,2.911,3.483,1.953,1.958,1.953,2.865,1.479,2.525,1.479,2.669,1.432,3.051,1.242,3.576,1.546,2.814,1,3.674A22.1,22.1,0,0,0,1128.5,583s-2.241,4.292-3.385,5.1-6.39,7.637-6.39,7.637-5.632,6.483-5.632,8.487c0,0-5.483-9.157-8.729-8.92l6.343-7.3a4.947,4.947,0,0,0,1.149-1.907c.052-.711,3.051-4.009,4.483-4.153,0,0,.237-1.953-.381-2s-1.144-1.546-1.144-1.546-4.2-4.962-4.246-8.111S1116.191,560.58,1116.191,560.58Z" transform="translate(-549.928 -281.301)" fill="#65617d"/>
    <path id="Path_654" data-name="Path 654" d="M1129.155,569.37s-4.009,2.958-3.149,3.916S1129.155,569.37,1129.155,569.37Z" transform="translate(-560.361 -285.562)" opacity="0.1"/>
    <path id="Path_655" data-name="Path 655" d="M1132.6,592.073s7.441-2.386,8.2,0Z" transform="translate(-563.616 -296.052)" opacity="0.1"/>
    <path id="Path_656" data-name="Path 656" d="M1018.2,838.365s-4.009,2.628-6.014,2.242a7.214,7.214,0,0,0-4.055.67,12.038,12.038,0,0,1-5.055,3.293,18.518,18.518,0,0,1-10.352-.191c-1.216-.407-1.314-.933-.727-1.577,2.8.557,9.059,1.664,10.744.861a44.717,44.717,0,0,0,5.344-3.339s4.122-.572,4.674-.572a51.037,51.037,0,0,0,5.364-2.061Z" transform="translate(-495.299 -415.615)" opacity="0.1"/>
    <path id="Path_657" data-name="Path 657" d="M1079.379,849.45a.871.871,0,0,1-.036.263s-.953,2.1-6.251,2.86-5.292-1.762-5.292-1.762l.052-.685C1069.526,850.764,1073.185,851.47,1079.379,849.45Z" transform="translate(-532.207 -421.315)" opacity="0.1"/>
    <path id="Path_658" data-name="Path 658" d="M1029.6,568.26s0,10.878-.928,11.95S1029.6,568.26,1029.6,568.26Z" transform="translate(-513.118 -285.024)" opacity="0.1"/>
    <path id="Path_659" data-name="Path 659" d="M1114.17,575.07l1.386,3.885S1116.1,575.142,1114.17,575.07Z" transform="translate(-554.683 -288.325)" opacity="0.1"/>
    <g id="Group_266" data-name="Group 266" transform="translate(522.798 242.316)" opacity="0.1">
      <path id="Path_660" data-name="Path 660" d="M1047.925,491.581c.35-.891-.567-1.773-.685-2.731a1.756,1.756,0,0,0-.155.861,16.792,16.792,0,0,0,.737,2.061A1.186,1.186,0,0,0,1047.925,491.581Z" transform="translate(-1044.962 -488.85)"/>
      <path id="Path_661" data-name="Path 661" d="M1061.763,504.7c-.34-1.5-.237-3.092-.588-4.6S1059.753,497,1058.29,497c-.629,0-1.365.227-1.819-.242-.278-.283-.33-.732-.515-1.082-1.031-1.69-4.225-.83-5.529.036-1.948,1.293-4.638,4.009-7.132,3.391-.119.289-.232.582-.325.886,2.577.794,5.318-2.02,7.312-3.349,1.3-.866,4.483-1.721,5.529-.031a7.25,7.25,0,0,0,.516,1.082c.453.469,1.19.227,1.819.237,1.463.026,2.535,1.577,2.886,3.092s.242,3.154.608,4.679A2.574,2.574,0,0,1,1061.763,504.7Z" transform="translate(-1042.97 -491.691)"/>
      <path id="Path_662" data-name="Path 662" d="M1086.626,509.84c-.258.758-.938,1.453-1.675,1.3s-1.092-.989-1.639-1.515a2.247,2.247,0,0,0-2.577-.361,2.607,2.607,0,0,0-1.268,2.314,2.489,2.489,0,0,1,1.123-1.381,2.242,2.242,0,0,1,2.577.356c.546.515.922,1.366,1.644,1.515s1.412-.541,1.67-1.3a6.088,6.088,0,0,0,.263-1.371,3.272,3.272,0,0,1-.119.443Z" transform="translate(-1060.66 -498.622)"/>
      <path id="Path_663" data-name="Path 663" d="M1095.864,497c-.515,1.412-1.51,2.633-1.834,4.122-.062.3-.1.608-.139.917.33-1.484,1.293-2.7,1.829-4.122a7.161,7.161,0,0,0,.438-1.979,7.2,7.2,0,0,1-.294,1.062Z" transform="translate(-1067.651 -492.286)"/>
    </g>
    <circle id="Ellipse_109" data-name="Ellipse 109" cx="0.119" cy="0.119" r="0.119" transform="translate(481.954 281.335)" fill="#e6e8ec"/>
    <rect id="Rectangle_60" data-name="Rectangle 60" width="93.363" height="107.297" rx="6.61" transform="translate(437.556 284.112)" fill="#fff"/>
    <rect id="Rectangle_61" data-name="Rectangle 61" width="93.363" height="107.297" rx="6.61" transform="translate(437.556 284.112)" fill="#5a5773" opacity="0.1"/>
    <rect id="Rectangle_62" data-name="Rectangle 62" width="83.84" height="96.352" rx="6.61" transform="translate(442.317 289.585)" fill="#fff"/>
    <rect id="Rectangle_63" data-name="Rectangle 63" width="57.518" height="19.85" rx="6.03" transform="translate(454.514 308.909)" fill="#6c63ff"/>
    <rect id="Rectangle_64" data-name="Rectangle 64" width="53.298" height="4.05" transform="translate(456.627 336.019)" fill="#6c63ff"/>
    <rect id="Rectangle_65" data-name="Rectangle 65" width="73.338" height="4.05" transform="translate(447.568 344.568)" fill="#6c63ff"/>
    <rect id="Rectangle_66" data-name="Rectangle 66" width="73.338" height="4.05" transform="translate(447.568 353.565)" fill="#6c63ff"/>
    <rect id="Rectangle_67" data-name="Rectangle 67" width="73.338" height="4.05" transform="translate(447.568 362.562)" fill="#6c63ff"/>
    <rect id="Rectangle_68" data-name="Rectangle 68" width="219.834" height="107.297" rx="6.61" transform="translate(0 248.644)" fill="#fff"/>
    <rect id="Rectangle_69" data-name="Rectangle 69" width="219.834" height="107.297" rx="6.61" transform="translate(0 248.644)" fill="#5a5773" opacity="0.1"/>
    <rect id="Rectangle_70" data-name="Rectangle 70" width="197.403" height="96.352" rx="6.61" transform="translate(11.213 254.116)" fill="#fff"/>
    <rect id="Rectangle_71" data-name="Rectangle 71" width="135.427" height="19.85" rx="6.03" transform="translate(39.941 273.445)" fill="#6c63ff"/>
    <rect id="Rectangle_72" data-name="Rectangle 72" width="125.492" height="4.05" transform="translate(44.909 300.55)" fill="#6c63ff"/>
    <rect id="Rectangle_73" data-name="Rectangle 73" width="172.679" height="4.05" transform="translate(23.575 309.099)" fill="#6c63ff"/>
    <rect id="Rectangle_74" data-name="Rectangle 74" width="172.679" height="4.05" transform="translate(23.575 318.096)" fill="#6c63ff"/>
    <rect id="Rectangle_75" data-name="Rectangle 75" width="172.679" height="4.05" transform="translate(23.575 327.094)" fill="#6c63ff"/>
    <path id="Path_664" data-name="Path 664" d="M132.674,680c.613-2.236,1.031-4.2,1.031-4.2a8.76,8.76,0,0,1,1.144-4.262v-.618h0l.175-4.54a15.1,15.1,0,0,0-1.031-2.422c-.763-1.458.258-6.658.258-6.658s3.313-7.25,2.757-11.955,7.018-20.525,7.018-20.525a20.346,20.346,0,0,0-.474-4.638,3.555,3.555,0,0,1-.052-.964.907.907,0,0,1,0-.118v.036c.222-3.092,2.881-8.76,2.881-8.76l.1-11.028a32.489,32.489,0,0,1,1.546-15.176c1-3.009,1.664-5.421,2.1-7.286.052-.211.1-.412.139-.608-5.194-1-9.162-1.814-9.162-1.814s3.52-12.563,5.668-14.7S150.8,550.7,150.8,550.7s1.412-8.915-.206-11.594-1.69-7.214-1.69-7.214-3.824-3-4.267-4.287a21.022,21.022,0,0,1-1.092-5.668c.057-1.494.6-2.834.469-3.633s1.293-3.757.691-5.21a3.989,3.989,0,0,1-.206-1.386v-.041h0a19.285,19.285,0,0,1,.49-3.705,10.513,10.513,0,0,1,3.968-1.927l.1-.34.258-.881a4.294,4.294,0,0,1,.392-.216l.026-.325.082-1.283-.495-2.927c-1.031-5.081,5.73-5.57,5.73-5.57a3.54,3.54,0,0,1,1.963-1.6c1.371-.423-.062,7.58-.716,8.07a27.356,27.356,0,0,0-2.808,4.045h0l-.124.2a2.78,2.78,0,0,1,.3.335l-.325,1.737-.052.263a7.213,7.213,0,0,1,1,1.871,3.885,3.885,0,0,0-1.092,2.814,9.065,9.065,0,0,1-.515,3.468c.072-.077.974-.979,1.829-.721s3.236,1.077,3.236,1.077,1.788.387,1.608.778,1.149,2.185,1.149,2.185l5.014-4.4c.057-.139.108-.273.16-.412a11.516,11.516,0,0,0,.515-1.994,10.775,10.775,0,0,1-1.546-.551,3.364,3.364,0,0,1-1.309-.907,5.41,5.41,0,0,1-.7-2.118A29.692,29.692,0,0,0,161,504.561a13.032,13.032,0,0,1-.691-7.214,4.8,4.8,0,0,1,.824-2.061c.835-1.056,2.283-1.443,3.36-2.267s1.8-2.128,3.035-2.731a5.849,5.849,0,0,1,3.69-.175,19.715,19.715,0,0,1,6.725,2.736,3.494,3.494,0,0,0,2.267.845,3.128,3.128,0,0,0,1.7-1.149.382.382,0,0,1,0-.072l.057-.057a8.5,8.5,0,0,1,.608,3.648,2.722,2.722,0,0,1-.041.577v.2a.939.939,0,0,0,0,.17h0a.85.85,0,0,0,.031.252,1.808,1.808,0,0,0,.428.675,3.687,3.687,0,0,1,.371.551.737.737,0,0,0-.057-.2,2.876,2.876,0,0,1,.443,1.546,1.51,1.51,0,0,1-.407,1.077,4.793,4.793,0,0,1-.814.608,9.25,9.25,0,0,1-4.782,9.425c-.062.134-.124.273-.18.412a11.522,11.522,0,0,0-1.082,5.241,1.236,1.236,0,0,0,.041.386c.041.129.119.139.17.211h0s7.987.387,9.935-1.247,4.586,4.344,4.586,4.344,2.844.665,3.437.134,3.937.072,3.937.072a7.215,7.215,0,0,1,5.06-1.633,14.785,14.785,0,0,1,3.746-1.9h0l.093-.031h0a4.039,4.039,0,0,1,1.809-.16s4.055-3.092,5.266-4.8,6.895-7.956,6.895-7.987l.036-.309.1-.938a3.152,3.152,0,0,0,.484.062l.124-.325a17.7,17.7,0,0,1,1.263-2.618s.046-1.19-.289-1.5.325-4.638.325-4.638,3.86-8.142,6.792-1.84c0,0,5.844,4.231.629,8.693,0,0-2.061.9-2.355,1.654-.206.515-.943,1.865-1.438,2.778l-.222.407.057.052-.1.773-.041.3c.922.572,1.546,1.129,1.376,1.546a8.76,8.76,0,0,0-.654,2.118s-7.286,8.4-8.327,12.1c0,0-19.1,10.378-25.25,10.935l.85,5.586a44.529,44.529,0,0,1,.072,4.53c-.129,1.185.484,6.6.484,6.6s.758,7.967,1.618,9.111.515,5.9.515,5.9a40.148,40.148,0,0,0,.969,6.781,17.327,17.327,0,0,1,0,6.745s2.839,7.25-4.426,2.128c0,0-3.648-.366-7.853-.67v.417c0,.546-.026,1.134-.041,1.752-.1,4.086-.294,9.714-.644,13.965-.618,7.518-3.483,22.328-3.483,22.328l-.289,7.482a9.913,9.913,0,0,1,.134,2.149,13.913,13.913,0,0,1-2.3,7.415l-.768,4.973a19.6,19.6,0,0,0-1.572,5.2,2.337,2.337,0,0,0,.041.479,3.824,3.824,0,0,1,.036.768c0,2.267-1.587,7.637-1.587,7.637s-.294,5.467-1.123,5.751c-.711.247.814,3.19,1.268,4.035a.841.841,0,0,0,.036-.155l.1.165a3.886,3.886,0,0,1,.2,1.4,1.994,1.994,0,0,1-.984,1.886c-1.592.891-2.458,1.649-1.149,2.02a14.552,14.552,0,0,1,1.433.356l.077-.18a.881.881,0,0,1,.515.979,4,4,0,0,1-.562,1.834,19.977,19.977,0,0,1-2.37,3.958l-.629-.093a3.145,3.145,0,0,0,.34.685,2.618,2.618,0,0,0,.9.861,2.865,2.865,0,0,0,1.1.422,3.179,3.179,0,0,1,2.278,1.221c.773,1.087,1.232,2.546-.433,3.746l-5.931,1.793s-10.121.922-9.5-1.314,1.031-4.2,1.031-4.2a8.941,8.941,0,0,1,.969-3.978,5.317,5.317,0,0,1,.381-.577l-.356-.052s-.587-5.024-1.556-6c-.216-.232-.263-.4-.206-.515-.088-.273.17-.423.515-.515a.8.8,0,0,0,.067.2,4.972,4.972,0,0,1,.979-.067s.428-2.6-.6-3.607a.979.979,0,0,1-.175-.783,4.013,4.013,0,0,1,.149-1.062.386.386,0,0,0,.036.062,39,39,0,0,1,2.577-6.05s.17-2.375-.448-3.355.582-12.914.582-12.914-.026-5.792.814-8.456-.675-5.9-.675-5.9a.818.818,0,0,1,.026-.17.213.213,0,0,0,0-.047s.052-.355.134-.907v.057c.227-1.546.644-4.282.922-5.56.4-1.809.325-10.543.325-10.543l-1.335-3.762-2.87,6.318-3.092,8.451a7.271,7.271,0,0,0-1.546,3.607v.273a4.285,4.285,0,0,1,0,.572,5.112,5.112,0,0,1-.969,3.015s-.891,4.014-2.061,5a4.671,4.671,0,0,0-1.262,2.968s-1.618,5.813-2.314,6.818c-.582.845-.706,3.231-.727,3.963h0v.211s-.273,2.092-.335,3.854v.624a.113.113,0,0,1,0-.041,5.972,5.972,0,0,0,.113,1.427s0,.057,0,.088v-.3a14.991,14.991,0,0,1,.283,3.669c-.046,2.108-.464,4.591-1.8,6.008-2.309,2.453-3.684,2.061-3.684,2.061s.943,3.21,2.226,3.9a.824.824,0,0,1,.139.093.316.316,0,0,1,.036-.18,1.546,1.546,0,0,1,.34,1.2,8.544,8.544,0,0,1-1.8,4.638,2.577,2.577,0,0,1-1.129.608,1.949,1.949,0,0,0,.2.134,4.067,4.067,0,0,0,.443.227,2.192,2.192,0,0,0,.66.2,3.133,3.133,0,0,1,2.278,1.221c.773,1.082,1.232,2.54-.433,3.741l-5.931,1.793S132.051,682.233,132.674,680Z" transform="translate(-78.943 -246.848)" fill="url(#linear-gradient-3)"/>
    <path id="Path_665" data-name="Path 665" d="M198.388,858.707l5.746-1.8c1.613-1.206,1.17-2.664.423-3.751a3.009,3.009,0,0,0-2.2-1.211,2.691,2.691,0,0,1-1.072-.428,2.577,2.577,0,0,1-.861-.855,4.226,4.226,0,0,1-.562-2.216s-6.153-2.061-7.925-.3a4.64,4.64,0,0,0-.788,1.077,9.276,9.276,0,0,0-.948,3.978s-.392,1.963-.995,4.2S198.388,858.707,198.388,858.707Z" transform="translate(-106.344 -420.338)" fill="#2d293d"/>
    <path id="Path_666" data-name="Path 666" d="M144.768,851.2l5.746-1.8c1.613-1.206,1.17-2.664.423-3.746a3.009,3.009,0,0,0-2.206-1.216,2.024,2.024,0,0,1-.639-.2,4.056,4.056,0,0,1-.428-.232,3.637,3.637,0,0,1-1.427-3.092s-6.153-2.061-7.925-.3a4.554,4.554,0,0,0-.629.783,8.992,8.992,0,0,0-1.113,4.272s-.4,1.969-.995,4.2S144.768,851.2,144.768,851.2Z" transform="translate(-80.35 -416.688)" fill="#2d293d"/>
    <path id="Path_667" data-name="Path 667" d="M193.783,848.142a4.639,4.639,0,0,0-.783,1.077h0l9.275,1.438a4.225,4.225,0,0,1-.562-2.216S195.577,846.385,193.783,848.142Z" transform="translate(-108.196 -420.337)" opacity="0.1"/>
    <path id="Path_668" data-name="Path 668" d="M139.627,841.417l-.067,1.747c1.36,2.448,8.394,2.2,10.476,1.077a4.061,4.061,0,0,1-.428-.232,3.637,3.637,0,0,1-1.427-3.092s-6.153-2.061-7.925-.3A4.557,4.557,0,0,0,139.627,841.417Z" transform="translate(-82.294 -416.688)" opacity="0.1"/>
    <path id="Path_669" data-name="Path 669" d="M137.844,741.5a16.01,16.01,0,0,1,1.031,2.422l-.253,6.256c1.484,2.68,9.76,2.123,10.924.742s2.494-5.065,1.252-5.746-2.154-3.9-2.154-3.9,1.335.371,3.576-2.061,1.819-8.106,1.469-9.466.232-5.864.232-5.864.041-3.174.716-4.179,2.247-6.817,2.247-6.817a4.652,4.652,0,0,1,1.221-2.968c1.149-.984,2.02-5,2.02-5a5.184,5.184,0,0,0,.922-3.375,6.939,6.939,0,0,1,1.5-4.071l3.025-8.451,2.783-6.323,1.283,3.777s.062,8.734-.325,10.543-1.031,6.627-1.031,6.627,1.463,3.231.649,5.9-.8,8.456-.8,8.456-1.175,11.94-.577,12.914.428,3.349.428,3.349-3.514,6.848-2.525,7.843.577,3.607.577,3.607-2.216-.088-1.3.9,1.4,5.972,1.4,5.972l9.538,1.479a20.183,20.183,0,0,0,2.3-3.963c1.381-2.881-.134-2.623-1.4-2.989s-.428-1.129,1.113-2.02.752-3.066.752-3.066-2.149-3.973-1.34-4.256,1.092-5.751,1.092-5.751,1.834-6.441,1.5-8.2,1.5-5.9,1.5-5.9l.742-4.968a13.723,13.723,0,0,0,2.108-9.363l.3-7.688s2.8-14.784,3.432-22.328c.392-4.813.587-11.393.675-15.5.052-2.309.072-3.834.072-3.834l-34.1-4.885a28.142,28.142,0,0,1-.819,5.06,75.252,75.252,0,0,1-2.061,7.292A33.515,33.515,0,0,0,150,676.888l-.108,11.028s-3.3,7.255-2.757,9.817a20.942,20.942,0,0,1,.453,4.638s-7.338,15.81-6.8,20.494-2.685,11.96-2.685,11.96S137.107,740.038,137.844,741.5Z" transform="translate(-81.331 -324.333)" fill="#575988"/>
    <path id="Path_670" data-name="Path 670" d="M169.418,747.8,159.05,746S164.723,752.266,169.418,747.8Z" transform="translate(-91.741 -371.174)" opacity="0.05"/>
    <path id="Path_671" data-name="Path 671" d="M162.054,726.39s-.515,3.669,1.706,5.153C163.74,731.533,159.746,730.744,162.054,726.39Z" transform="translate(-92.849 -361.669)" opacity="0.1"/>
    <path id="Path_672" data-name="Path 672" d="M164.85,703.67s8.436,7.508,11.625,7.039S164.85,703.67,164.85,703.67Z" transform="translate(-94.552 -350.656)" opacity="0.1"/>
    <path id="Path_673" data-name="Path 673" d="M204,757s6.56,1.762,6.658,4.421S204,757,204,757Z" transform="translate(-113.528 -376.505)" opacity="0.1"/>
    <path id="Path_674" data-name="Path 674" d="M197.079,821s9.275,2.1,6.586,3.19a44.921,44.921,0,0,1-7.1,1.871S193.549,826.112,197.079,821Z" transform="translate(-109.343 -407.526)" opacity="0.05"/>
    <g id="Group_267" data-name="Group 267" transform="translate(56.248 329.655)" opacity="0.05">
      <path id="Path_675" data-name="Path 675" d="M213.365,829.759a1.855,1.855,0,0,0,.907-1.319l.088.17s.794,2.169-.752,3.092c-.175.1-.34.2-.515.3-.273-.062-.572-.113-.855-.2C210.979,831.418,211.819,830.656,213.365,829.759Z" transform="translate(-173.472 -740.787)"/>
      <path id="Path_676" data-name="Path 676" d="M191.5,827.344c-.247-.247-.211-.855,0-1.634a4.427,4.427,0,0,1,.443,2.319,1.8,1.8,0,0,0-.443-.685Z" transform="translate(-163.632 -739.463)"/>
      <path id="Path_677" data-name="Path 677" d="M197.274,752.48a10.78,10.78,0,0,1,.515,2.942,11.24,11.24,0,0,0-.649-2.03S197.2,753.036,197.274,752.48Z" transform="translate(-166.45 -703.969)"/>
      <path id="Path_678" data-name="Path 678" d="M156.112,741.991a3.782,3.782,0,0,1-.057-.871c.1.6.16,1.149.2,1.633C156.21,742.506,156.164,742.254,156.112,741.991Z" transform="translate(-146.535 -698.463)"/>
      <path id="Path_679" data-name="Path 679" d="M195.56,805.508a5.251,5.251,0,0,1-.165-1.767,5.962,5.962,0,0,1,.371,2.236,2.177,2.177,0,0,0-.206-.469Z" transform="translate(-165.597 -728.815)"/>
      <path id="Path_680" data-name="Path 680" d="M190.329,836a31.125,31.125,0,0,1,.9,4.911l9.538,1.479a19.97,19.97,0,0,0,2.3-3.963c.124-.253.216-.479.3-.685.562.283.768.891-.057,2.6a20.215,20.215,0,0,1-2.3,3.958l-9.559-1.469s-.515-5.019-1.438-6C189.592,836.34,189.911,836.118,190.329,836Z" transform="translate(-162.901 -744.451)"/>
      <path id="Path_681" data-name="Path 681" d="M215.016,736.156s-.289,5.467-1.092,5.751h0c-.366-.922-.6-1.788-.242-1.917.8-.289,1.1-5.751,1.1-5.751s1.834-6.436,1.5-8.2,1.494-5.89,1.494-5.89l.747-4.973a13.723,13.723,0,0,0,2.108-9.363l.294-7.688s2.793-14.81,3.4-22.328c.386-4.813.582-11.393.675-15.5,0-.742.031-1.4.041-1.958l.273.041s0,1.546-.072,3.829c-.088,4.122-.283,10.693-.675,15.506-.608,7.513-3.4,22.328-3.4,22.328l-.3,7.683a13.738,13.738,0,0,1-2.1,9.363l-.752,4.973s-1.829,4.122-1.5,5.9S215.016,736.156,215.016,736.156Z" transform="translate(-174.381 -658.34)"/>
      <path id="Path_682" data-name="Path 682" d="M150.3,838.825a9.276,9.276,0,0,0,1.659-3.705c.943.917-.309,4.3-1.417,5.617s-9.44,1.938-10.924-.737l.057-1.51C141.738,840.7,149.2,840.134,150.3,838.825Z" transform="translate(-138.571 -744.024)"/>
      <path id="Path_683" data-name="Path 683" d="M137.613,823.942a16,16,0,0,1,1.031,2.422l-.046,1.108a17.3,17.3,0,0,0-.732-1.618,4.776,4.776,0,0,1-.268-1.974Z" transform="translate(-137.584 -738.576)"/>
      <path id="Path_684" data-name="Path 684" d="M159.331,816.453a15.5,15.5,0,0,1-.711-1.912s1.335.366,3.571-2.087c1.628-1.788,1.85-5.266,1.716-7.554.35,1.366.768,7.013-1.469,9.466A5.715,5.715,0,0,1,159.331,816.453Z" transform="translate(-147.78 -729.377)"/>
      <path id="Path_685" data-name="Path 685" d="M168.76,752.98a42.363,42.363,0,0,0-.34,4.694,6.691,6.691,0,0,0-.134-.742c-.345-1.366.227-5.864.227-5.864s.046-3.174.716-4.179,2.247-6.817,2.247-6.817A4.679,4.679,0,0,1,172.7,737.1c1.149-.989,2.02-5,2.02-5a5.215,5.215,0,0,0,.922-3.375,6.939,6.939,0,0,1,1.5-4.071l3.025-8.451,2.783-6.323,1.283,3.782v1.206l-1.031-3.092-2.783,6.318L177.4,726.55a6.869,6.869,0,0,0-1.5,4.071,5.184,5.184,0,0,1-.922,3.375s-.871,4.014-2.02,5a4.651,4.651,0,0,0-1.221,2.968s-1.577,5.813-2.247,6.823S168.76,752.98,168.76,752.98Z" transform="translate(-152.411 -683.321)"/>
    </g>
    <path id="Path_686" data-name="Path 686" d="M167.187,503.343l.484,2.917-.082,1.288-.062.948,3.293.469.4-.67h0a30.157,30.157,0,0,1,2.726-4.05c.629-.49,2.03-8.492.7-8.07a3.478,3.478,0,0,0-1.907,1.6S166.213,498.267,167.187,503.343Z" transform="translate(-95.637 -250.077)" fill="#ffcdd3"/>
    <path id="Path_687" data-name="Path 687" d="M167.94,518.9l3.293.469.4-.67h0a2.922,2.922,0,0,0-3.607-.742Z" transform="translate(-96.05 -260.484)" opacity="0.1"/>
    <path id="Path_688" data-name="Path 688" d="M166.2,520.734l4.323,1.18.113-.649.314-1.737a3,3,0,0,0-4.2-.737l-.247.881Z" transform="translate(-95.206 -260.78)" fill="#dce6f2"/>
    <path id="Path_689" data-name="Path 689" d="M303.74,503.112l4.555,2.68s.191-.366.459-.866c.479-.912,1.19-2.283,1.391-2.777.3-.758,2.283-1.659,2.283-1.659,5.055-4.468-.6-8.688-.6-8.688-2.834-6.3-6.575,1.845-6.575,1.845s-.644,4.344-.319,4.638.278,1.5.278,1.5a17.514,17.514,0,0,0-1.226,2.618C303.828,502.828,303.74,503.112,303.74,503.112Z" transform="translate(-161.871 -246.805)" fill="#ffcdd3"/>
    <path id="Path_690" data-name="Path 690" d="M303.74,515.358l4.555,2.68s.191-.366.459-.866c-.639-.572-2.9-2.577-3.664-2.494a5.53,5.53,0,0,1-1.1,0C303.828,515.074,303.74,515.358,303.74,515.358Z" transform="translate(-161.871 -259.052)" opacity="0.1"/>
    <path id="Path_691" data-name="Path 691" d="M302.71,516.954l5.153,2.778.144-1.123.1-.773s-2.927-2.71-3.824-2.649a4.866,4.866,0,0,1-1.371-.057l-.093.938Z" transform="translate(-161.372 -259.272)" fill="#dce6f2"/>
    <path id="Path_692" data-name="Path 692" d="M190.45,531.876s22.71,3.453,18.5,1.907c-2.932-1.082-4.04-3.015-4.2-5.117a11.965,11.965,0,0,1,1.031-5.246,22.994,22.994,0,0,1,2.2-4.04s-17.067-10.26-13.913-1.407a13.986,13.986,0,0,1,.83,4.169,11.749,11.749,0,0,1-.608,4.164,12.471,12.471,0,0,1-3.834,5.57Z" transform="translate(-106.96 -258.905)" fill="#ffcdd3"/>
    <path id="Path_693" data-name="Path 693" d="M197.134,517.974a13.984,13.984,0,0,1,.83,4.169c1.587,1.438,3.391,1.417,5.7,1.5,1.778.072,3.726.577,5.153-.227a22.992,22.992,0,0,1,2.2-4.04S193.98,509.121,197.134,517.974Z" transform="translate(-110.011 -258.905)" opacity="0.1"/>
    <circle id="Ellipse_110" data-name="Ellipse 110" cx="9.435" cy="9.435" r="9.435" transform="translate(84.871 246.495)" fill="#ffcdd3"/>
    <path id="Path_694" data-name="Path 694" d="M190.45,542.293s22.71,3.453,18.5,1.907c-2.932-1.082-4.04-3.014-4.2-5.117a12.543,12.543,0,0,0-4.782-2.777,6.87,6.87,0,0,0-4.122-.227,5.669,5.669,0,0,0-1.546.644,12.47,12.47,0,0,1-3.844,5.57Z" transform="translate(-106.96 -269.322)" opacity="0.1"/>
    <path id="Path_695" data-name="Path 695" d="M166.2,521.975l4.323,1.18.113-.649a3.849,3.849,0,0,0-4.122-1.592Z" transform="translate(-95.206 -262.02)" opacity="0.1"/>
    <path id="Path_696" data-name="Path 696" d="M302.71,517.86l5.153,2.778.144-1.123A39.016,39.016,0,0,0,302.8,517Z" transform="translate(-161.372 -260.178)" opacity="0.1"/>
    <path id="Path_697" data-name="Path 697" d="M168.65,654.42c8.76,1.737,21.282,4.035,23.3,3.5,1.675-.438,6.957-.18,11.548.155.052-2.309.072-3.834.072-3.834l-34.1-4.885A28.142,28.142,0,0,1,168.65,654.42Z" transform="translate(-96.394 -324.333)" opacity="0.1"/>
    <path id="Path_698" data-name="Path 698" d="M151.72,588.126s28.888,6.112,32.047,5.282,19.144.814,19.144.814c7.024,5.112,4.287-2.133,4.287-2.133a17.44,17.44,0,0,0,0-6.745,41.226,41.226,0,0,1-.933-6.781s.345-4.751-.484-5.89-1.546-9.111-1.546-9.111-.582-5.416-.459-6.6-.062-4.529-.062-4.529l-.819-5.586c5.972-.562,24.467-10.961,24.467-10.961,1.031-3.69,8.085-12.151,8.085-12.151a9.154,9.154,0,0,1,.639-2.118c.515-1.247-6.508-4.055-6.508-4.055s-5.57,6.292-6.725,7.992-5.107,4.8-5.107,4.8a3.87,3.87,0,0,0-1.752.16H215.9a14.157,14.157,0,0,0-3.607,1.9,6.9,6.9,0,0,0-4.906,1.634s-3.231-.6-3.8-.067-3.329-.129-3.329-.129-2.577-5.967-4.437-4.334-9.621,1.257-9.621,1.257c-.974-1.412-3.447-2.489-4.993-3.056a6.828,6.828,0,0,0-4.122-.227,5.355,5.355,0,0,0-1.664.727l-4.864,4.411s-1.283-1.793-1.108-2.185-1.546-.773-1.546-.773-2.273-.8-3.133-1.072-1.7.639-1.773.721a9.162,9.162,0,0,0,.515-3.468,3.983,3.983,0,0,1,1.056-2.819c-2.51-6.921-8.987-1.453-8.987-1.453s-.861,3.695-.278,5.153-.8,4.411-.68,5.21-.4,2.128-.453,3.633a22.353,22.353,0,0,0,1.031,5.668c.407,1.278,4.122,4.287,4.122,4.287s.067,4.524,1.628,7.214.191,11.594.191,11.594-1.855,6.91-3.921,9.054S151.72,588.126,151.72,588.126Z" transform="translate(-88.188 -260.45)" fill="#656691"/>
    <path id="Path_699" data-name="Path 699" d="M237.75,552.035s.974-2.577,1.773-2.788a18.244,18.244,0,0,0,2.339-.943l-.474-.995s-3.009.706-3.514,1.546S237.75,552.035,237.75,552.035Z" transform="translate(-129.82 -274.87)" opacity="0.1"/>
    <path id="Path_700" data-name="Path 700" d="M269.22,544.632c.129.8,7.152,1.783,7.152,1.783l-3.427-3.715h-.088A14.152,14.152,0,0,0,269.22,544.632Z" transform="translate(-145.14 -272.635)" opacity="0.1"/>
    <circle id="Ellipse_111" data-name="Ellipse 111" cx="0.634" cy="0.634" r="0.634" transform="translate(144.27 261.269)" fill="#575988"/>
    <circle id="Ellipse_112" data-name="Ellipse 112" cx="0.634" cy="0.634" r="0.634" transform="translate(143.409 262.505)" fill="#575988"/>
    <circle id="Ellipse_113" data-name="Ellipse 113" cx="0.634" cy="0.634" r="0.634" transform="translate(142.569 263.644)" fill="#575988"/>
    <circle id="Ellipse_114" data-name="Ellipse 114" cx="0.634" cy="0.634" r="0.634" transform="translate(141.693 264.881)" fill="#575988"/>
    <circle id="Ellipse_115" data-name="Ellipse 115" cx="0.515" cy="0.515" r="0.515" transform="translate(67.118 262.057)" fill="#575988"/>
    <circle id="Ellipse_116" data-name="Ellipse 116" cx="0.515" cy="0.515" r="0.515" transform="translate(66.995 263.222)" fill="#575988"/>
    <circle id="Ellipse_117" data-name="Ellipse 117" cx="0.515" cy="0.515" r="0.515" transform="translate(66.876 264.386)" fill="#575988"/>
    <path id="Path_701" data-name="Path 701" d="M206.081,598.15c.077-.088-18.654,21.782-32.021,8.214C174.06,606.364,195.857,610.177,206.081,598.15Z" transform="translate(-99.016 -299.511)" opacity="0.1"/>
    <path id="Path_702" data-name="Path 702" d="M243.893,621.679s-10.7-.119-11.94,2.911l-.124,3.2a2.061,2.061,0,0,0,1.989.077c1.1-.541,7.688-3.576,9.909-1.907Z" transform="translate(-127.017 -310.916)" opacity="0.1"/>
    <path id="Path_703" data-name="Path 703" d="M244,621.659s-10.229-.113-11.414,2.777l-.119,3.051a1.958,1.958,0,0,0,1.9.072c1.031-.515,7.353-3.406,9.476-1.819Z" transform="translate(-127.327 -310.906)" fill="#656691"/>
    <path id="Path_704" data-name="Path 704" d="M235.156,576.2a34.732,34.732,0,0,1-4.416,6.952A27.865,27.865,0,0,1,224,589.17S234.919,577.643,235.156,576.2Z" transform="translate(-123.222 -288.872)" opacity="0.1"/>
    <path id="Path_705" data-name="Path 705" d="M246.986,552.36s-2.061,7.632-6.776,10.069Z" transform="translate(-131.079 -277.317)" opacity="0.1"/>
    <path id="Path_706" data-name="Path 706" d="M252.692,554.068c.052-.139,1.35,6.153-6.292,9.312C246.4,563.379,249.631,562.416,252.692,554.068Z" transform="translate(-134.079 -278.144)" opacity="0.1"/>
    <path id="Path_707" data-name="Path 707" d="M163.83,540.559a53.657,53.657,0,0,0-4.88,3.38C158.976,543.939,161.578,540.311,163.83,540.559Z" transform="translate(-91.692 -271.591)" opacity="0.1"/>
    <path id="Path_708" data-name="Path 708" d="M202.035,511.837a2.025,2.025,0,0,1-.788,1.247,1.942,1.942,0,0,1-.9.16c-2.881.072-5.88.082-8.492-1.129a3.205,3.205,0,0,1-1.262-.907,5.2,5.2,0,0,1-.675-2.118,30.659,30.659,0,0,0-1.587-4.071,13.4,13.4,0,0,1-.654-7.214,4.829,4.829,0,0,1,.8-2.061c.8-1.056,2.211-1.443,3.252-2.272s1.742-2.128,2.948-2.736a5.44,5.44,0,0,1,3.566-.175,18.715,18.715,0,0,1,6.544,2.747,3.293,3.293,0,0,0,2.19.84,3.05,3.05,0,0,0,1.68-1.185,8.76,8.76,0,0,1,.546,4.122,1.778,1.778,0,0,0,0,.618,1.882,1.882,0,0,0,.412.675c.675.85,1.072,2.169.34,2.973-.32.35-.8.515-1.108.891-.557.639-.417,1.6-.438,2.448a1.288,1.288,0,0,1-.237.83,1.232,1.232,0,0,1-1.175.232,3.2,3.2,0,0,0-1.237-.165,2.061,2.061,0,0,0-1.108.783A14.608,14.608,0,0,0,202.035,511.837Z" transform="translate(-105.508 -247.26)" fill="#2d293d"/>
    <g id="Group_268" data-name="Group 268" transform="translate(84.716 245.552)" opacity="0.1">
      <path id="Path_709" data-name="Path 709" d="M192.918,518.329a3.164,3.164,0,0,0,1.263.912c2.613,1.211,5.612,1.2,8.492,1.129a1.881,1.881,0,0,0,.9-.165,2,2,0,0,0,.788-1.242,14.653,14.653,0,0,1,2.618-5.488,2.061,2.061,0,0,1,1.108-.788,3.307,3.307,0,0,1,1.237.165,1.216,1.216,0,0,0,1.175-.232,1.268,1.268,0,0,0,.237-.824,3.649,3.649,0,0,1,.438-2.453c.309-.356.788-.515,1.108-.886a1.865,1.865,0,0,0,.252-1.886,2.158,2.158,0,0,1,.036,2.53c-.319.35-.794.515-1.108.891-.557.639-.412,1.6-.433,2.448a1.262,1.262,0,0,1-.242.83,1.226,1.226,0,0,1-1.175.232,3.178,3.178,0,0,0-1.232-.165,2.061,2.061,0,0,0-1.113.788,14.789,14.789,0,0,0-2.618,5.483,1.489,1.489,0,0,1-1.68,1.412c-2.881.067-5.88.077-8.5-1.134a3.226,3.226,0,0,1-1.262-.907,2.474,2.474,0,0,1-.376-.778.951.951,0,0,0,.088.129Z" transform="translate(-192.83 -500.675)"/>
      <path id="Path_710" data-name="Path 710" d="M229.077,499.752a1.273,1.273,0,0,1-.268-.515,1.777,1.777,0,0,1,0-.618,8.786,8.786,0,0,0-.309-3.432l.052-.057a8.693,8.693,0,0,1,.551,4.122,2.8,2.8,0,0,0-.026.5Z" transform="translate(-210.119 -495.13)"/>
    </g>
    <path id="Path_711" data-name="Path 711" d="M206.511,542.606s-11.852,1.108-12.831-.706" transform="translate(-108.526 -272.247)" opacity="0.1"/>
    <path id="Path_712" data-name="Path 712" d="M166.91,532.094s-6.55-.242-8.08,2.154" transform="translate(-91.634 -267.491)" opacity="0.1"/>
  </g>
</svg>