<svg xmlns="http://www.w3.org/2000/svg" width="612" height="323.399" viewBox="0 0 612 323.399">
  <g id="Group_714" data-name="Group 714" transform="translate(-873 -19.077)">
    <path id="Path_159" data-name="Path 159" d="M43.44,426.65c9.683,37.736,30.183,70.356,62.583,86.166,67.36,32.862,219.18,15.912,332.506-3.539,58.634-10.065,110.136-37.817,147.571-76.924Z" transform="translate(836.173 -188.901)" fill="#f2f2f2"/>
    <path id="Path_160" data-name="Path 160" d="M651.176,61.2H589a4.922,4.922,0,1,1,0-9.8h10.759a5.172,5.172,0,0,1-5.379-4.9,5.164,5.164,0,0,1,5.379-4.9h-7.676a5.172,5.172,0,0,1-5.379-4.9,5.169,5.169,0,0,1,5.379-4.9h32.453a91.946,91.946,0,0,0-25.315-6.358c-88.5-10.366-120.093-3.513-131.255,3.54A130.238,130.238,0,0,1,422.48,47.157C367.88,57.426,265.77,69.782,173.219,43.2c-46-13.206-80.184,9.145-100.679,46.429H661.972C661.2,78.782,658.9,68.765,654.673,60A5.637,5.637,0,0,1,651.176,61.2Z" transform="translate(822.727 -1.067)" fill="#f2f2f2"/>
    <path id="Path_161" data-name="Path 161" d="M32.483,280.23A228.051,228.051,0,0,0,34.9,346.067l545.935,18.2a233.007,233.007,0,0,0,37.93-52.717ZM248.392,327.2H237.633a4.919,4.919,0,1,1,0,9.8H175.481a4.919,4.919,0,1,1,0-9.8h10.759a4.922,4.922,0,1,1,0-9.8h-7.687a4.919,4.919,0,1,1,0-9.8h62.179a4.919,4.919,0,1,1,0,9.8h7.66a4.922,4.922,0,1,1,0,9.8Z" transform="translate(841.853 -121.245)" fill="#f2f2f2"/>
    <path id="Path_162" data-name="Path 162" d="M644.089,149.94,48.062,163.157A200.19,200.19,0,0,0,33.78,219.274H633.643a214.637,214.637,0,0,0,8.661-35.767A154.939,154.939,0,0,0,644.089,149.94ZM154.8,193.249H144.04a4.922,4.922,0,1,1,0,9.8H81.866a4.922,4.922,0,1,1,0-9.8H92.624a4.919,4.919,0,1,1,0-9.8H84.937a4.922,4.922,0,1,1,0-9.8h62.179a4.922,4.922,0,1,1,0,9.8H154.8a4.919,4.919,0,1,1,0,9.8Z" transform="translate(840.636 -61.042)" fill="#f2f2f2"/>
  </g>
</svg>
