<svg xmlns="http://www.w3.org/2000/svg" xmlns:xlink="http://www.w3.org/1999/xlink" width="378" height="322.044" viewBox="0 0 378 322.044">
  <defs>
    <linearGradient id="linear-gradient" x1="0.5" y1="1" x2="0.5" gradientUnits="objectBoundingBox">
      <stop offset="0" stop-color="gray" stop-opacity="0.251"/>
      <stop offset="0.54" stop-color="gray" stop-opacity="0.122"/>
      <stop offset="1" stop-color="gray" stop-opacity="0.102"/>
    </linearGradient>
  </defs>
  <g id="Group_690" data-name="Group 690" transform="translate(-0.008 -0.003)">
    <g id="Group_689" data-name="Group 689" transform="translate(23.41 274.239)" opacity="0.1">
      <path id="Path_722" data-name="Path 722" d="M158.967,765.208c.435,2.676,1.986,4.714,3.457,6.584l17.511,22.2c1.408,1.787,2.92,3.645,4.812,4.129,3.953,1.047,7.132-4.028,10.51-7,12.012-10.555,28.426,5.514,42-.631,5.431-2.459,9.831-8.3,15.367-10.277,14.658-5.255,27.079,17.961,42.213,19.143,4.97.375,9.846-1.667,14.594-3.7L341.107,782.1a18.768,18.768,0,0,1,6.757-1.933c3.9-.068,7.526,2.44,11.193,4.245,14.763,7.274,31.155,3.348,46.32-2.162s30.438-12.6,46.113-11.426c4.08.308,9.47.049,10.585-5.3.664-3.183-8.3.154-10.379-1.562s2.864-8.874.443-9.178c-14.087-1.764-28.441-1.813-42.209,2.628-7.132,2.3-14.147,5.8-21.471,6.512-7.635.751-15.228-1.561-22.724-3.664-18.982-5.323-38.287-9.384-57.667-8.558-34.443,1.5-68.368,18.49-102.639,13.566a87.344,87.344,0,0,1-29.053-9.729c-4.624-2.5-4.418,6.344-9.136,9.32-1.535.968-5.555-8.063-6.757-6.325A8.829,8.829,0,0,0,158.967,765.208Z" transform="translate(-158.832 -751.595)" fill="#6c63ff"/>
    </g>
    <path id="Path_723" data-name="Path 723" d="M453.913,297.043l-54.746-71.694c-4.275-20.127-10.694-20.127-10.694-20.127-43.625-5.871-55.6-13.419-55.6-13.419l-9.759-3.821-.815-.48c-.038-.214-.079-.428-.116-.649s-.075-.514-.105-.773a47.089,47.089,0,0,0,21.4-28.828c.079-.315.15-.638.225-.957a12.327,12.327,0,0,0,5.1-4.546c4.193-6.873.21-15.574.3-23.58.056-5.06,1.8-10.018,1.6-15.075-.165-4.234-1.682-8.3-3.337-12.211a14.472,14.472,0,0,0-3.228-5.255c-4.08-3.7-10.687-2.117-15.927-3.941-6.779-2.361-9.936-9.718-13.855-15.634-1.5-2.282-4.234-4.692-6.7-3.442-2.894,1.464-2.11,6.475-5.034,7.883-1.772.852-3.938-.221-5.2-1.708s-1.989-3.352-3.236-4.853a9.512,9.512,0,0,0-9.23-3.093,3.2,3.2,0,0,0-1.753.9c-.935,1.089-.349,2.71-.285,4.129.221,4.778-5.63,7.432-10.465,7.939s-10.533.567-13.427,4.414c-1.531,2.038-1.858,4.692-2.89,7.012-2.395,5.379-8.187,8.326-13.277,11.415s-10.33,7.594-10.285,13.464c.045,5.63,5.015,10.191,5.889,15.765.465,2.954-.259,6.006.319,8.945,1.062,5.39,6.1,9.009,10.747,12.068.315.206.634.413.961.608.083.33.165.657.255.983A47.262,47.262,0,0,0,274.9,187.757c.075.315.146.634.218.961.221,1.006.428,2.053.612,3.127l-.143.038v-.105l-54.071,13.787a2.342,2.342,0,0,0-1.017-.128c-2.215-.18-9.14,2.207-17.222,34.582l-34.638,61.218s-20.1,19.29-4.7,35.659a31.266,31.266,0,0,0,23.49,10.326A32.415,32.415,0,0,0,199,345.262s-.278-.428-.706-1.186l4.579.559c9.009,10.015,24.353,6.5,24.353,6.5s21.827-.248,22.631-11.662L289.084,351.5l.158,2.143h20.6l-.034-1.366,43.339-13.055c3.378,6.246,11.636,9.335,11.636,9.335s25.434,1.07,33.43-3.562a35.723,35.723,0,0,1,10.833-4.17l.221-.022-.053.053,48.97-5.255C480.429,316.329,453.913,297.043,453.913,297.043ZM207.424,314.092l-1.077-.623a39.829,39.829,0,0,1,5.919-1.749l9.527-11.76,1.648,11.6a21.666,21.666,0,0,0-16.017,2.534ZM391.678,314a19.977,19.977,0,0,0-12.331-4.035l.375-28.55c3.577,2.286,6.58,4.808,7.47,7.241,2.567,7.132,14.969,18.449,14.969,18.449l-6.441,5.293h0l-1,.822c-.27.064-.54.128-.811.2Z" transform="translate(-134.986 -51.994)" fill="url(#linear-gradient)"/>
    <path id="Path_724" data-name="Path 724" d="M149.646,725.164l10,1.25,5.829-28.738-11.246-6.667L139.65,706.839Z" transform="translate(-87.226 -431.63)" fill="#efb7b9"/>
    <path id="Path_725" data-name="Path 725" d="M149.646,725.164l10,1.25,5.829-28.738-11.246-6.667L139.65,706.839Z" transform="translate(-87.226 -431.63)" opacity="0.03"/>
    <path id="Path_726" data-name="Path 726" d="M518.473,353.582l-24.154,21.658s-46.646,10.413-34.984-4.167c6.606-8.258,5.728-20.791,3.724-30.108a78.114,78.114,0,0,0-3.724-12.387s59.983-36.219,51.654-8.727c-2.47,8.153-2.815,14.44-2.083,19.245C510.654,350.493,518.473,353.582,518.473,353.582Z" transform="translate(-321.959 -201.236)" fill="#efb7b9"/>
    <path id="Path_727" data-name="Path 727" d="M514.116,319.855c-2.47,8.153-2.815,14.44-2.083,19.245a46.7,46.7,0,0,1-45.839,1.877,78.113,78.113,0,0,0-3.724-12.387S522.445,292.363,514.116,319.855Z" transform="translate(-325.087 -201.239)" opacity="0.1"/>
    <path id="Path_728" data-name="Path 728" d="M498.072,202.776a46.511,46.511,0,1,1-13.629-33.03A46.646,46.646,0,0,1,498.072,202.776Z" transform="translate(-289.051 -105.405)" fill="#efb7b9"/>
    <path id="Path_729" data-name="Path 729" d="M347.13,406.429v85.376l82.047-6.663L415.435,398.1,379.2,419.755Z" transform="translate(-216.826 -248.667)" fill="#e1e7ef"/>
    <path id="Path_730" data-name="Path 730" d="M527.013,510.4l-9.133-25.821h.375c9.579-10.412,5.413-16.659,5.413-16.659h-13.3c-8.464,6.006-2.59,13.787-.6,16.028L505.79,510.4Z" transform="translate(-352.146 -300.162)" opacity="0.1"/>
    <path id="Path_731" data-name="Path 731" d="M527.013,508.18l-9.133-25.821h.375c9.579-10.413,5.413-16.659,5.413-16.659h-13.3c-8.464,6.006-2.59,13.787-.6,16.028L505.79,508.18Z" transform="translate(-352.146 -298.775)" fill="#444053"/>
    <path id="Path_732" data-name="Path 732" d="M559.974,392.2s-2.628,12.177-20.934,28.419c0,0,5.63,1.877,6.456,16.869l6.873,9.384s5.413-19.575,14.992-26.238,0-24.155,0-24.155Z" transform="translate(-372.915 -252.864)" opacity="0.1"/>
    <path id="Path_733" data-name="Path 733" d="M559.974,390s-2.628,12.177-20.934,28.419c0,0,5.63,1.877,6.456,16.869l6.873,9.384s5.413-19.575,14.992-26.238,0-24.154,0-24.154Z" transform="translate(-372.915 -251.49)" fill="#e1e7ef"/>
    <path id="Path_734" data-name="Path 734" d="M483.488,428.039s-7.883,6.25-8.311,16.246-4.579,10-4.579,10-10.413-32.067-13.742-34.984,6.006-15.217,6.006-15.217S468.1,421.377,483.488,428.039Z" transform="translate(-321.131 -260.285)" opacity="0.1"/>
    <path id="Path_735" data-name="Path 735" d="M483.448,425.823s-7.883,6.246-8.311,16.253-4.579,10-4.579,10S460.142,419.99,456.8,417.077,462.8,401.86,462.8,401.86,468.058,419.157,483.448,425.823Z" transform="translate(-321.092 -258.898)" fill="#e1e7ef"/>
    <path id="Path_736" data-name="Path 736" d="M593.4,390.25l10.413,4.167s11.662,7.507,54.142,13.329c0,0,6.246,0,10.413,19.992l53.3,71.217s25.821,19.143,4.167,38.317l-47.671,5.206s27.488-26.238-14.159-27.071l7.695-6.46s-12.079-11.261-14.575-18.325-22.9-14.992-22.9-14.992l2.5,59.971-37.5,5.826-5.405-111.595a74.111,74.111,0,0,1,.9-15.739C596.136,405.629,597.627,392.221,593.4,390.25Z" transform="translate(-406.871 -251.646)" opacity="0.1"/>
    <path id="Path_737" data-name="Path 737" d="M594.51,390.25l10.413,4.167s11.662,7.507,54.142,13.329c0,0,6.246,0,10.413,19.992l53.3,71.217s25.821,19.143,4.167,38.317l-47.671,5.206s27.488-26.238-14.159-27.071l7.706-6.456s-12.079-11.261-14.575-18.325-22.9-14.992-22.9-14.992l2.5,59.971-37.525,5.822-5.405-111.595a74.112,74.112,0,0,1,.9-15.739C597.246,405.629,598.737,392.221,594.51,390.25Z" transform="translate(-407.564 -251.646)" fill="#67647e"/>
    <path id="Path_738" data-name="Path 738" d="M284.388,401.34,231.5,415.1s-7.913-5-17.492,34.158L180.27,510.067s-19.575,19.143-4.579,35.4,33.745,8.3,33.745,8.3-17.075-26.651,12.912-33.317l11.261-14.159,50.809,5.829-1.28-73.3,1.423-8.543a84.832,84.832,0,0,0,0-27.893Z" transform="translate(-142.421 -258.573)" opacity="0.1"/>
    <path id="Path_739" data-name="Path 739" d="M283.269,401.34,230.377,415.1s-7.913-5-17.492,34.158l-33.734,60.809s-19.59,19.143-4.576,35.374,33.734,8.329,33.734,8.329-17.075-26.651,12.912-33.317l11.261-14.159,50.809,5.829-1.272-73.3,1.411-8.543a84.83,84.83,0,0,0,0-27.893Z" transform="translate(-141.719 -258.573)" fill="#67647e"/>
    <path id="Path_740" data-name="Path 740" d="M230.08,489.08l-5,3.746,75.384,19.158v-7.5Z" transform="translate(-140.589 -305.496)" fill="#e4e6ed"/>
    <path id="Path_741" data-name="Path 741" d="M501.294,485.75l5,3.75-80.38,20.4v-7.5Z" transform="translate(-266.035 -303.416)" fill="#e4e6ed"/>
    <path id="Path_742" data-name="Path 742" d="M212.88,489.08l69.967,16.242,5,101.622-61.221-19.159Z" transform="translate(-132.968 -305.496)" fill="#6c63ff"/>
    <path id="Path_743" data-name="Path 743" d="M524.871,489.08,450.32,506.155l4.163,102.038,69.138-21.242Z" transform="translate(-281.282 -305.496)" fill="#6c63ff"/>
    <path id="Path_744" data-name="Path 744" d="M489.1,553.35s12.214,7.507,25.055,0l2.5,103.7H496.6Z" transform="translate(-341.721 -353.524)" fill="#6c63ff"/>
    <path id="Path_745" data-name="Path 745" d="M489.1,553.35s12.214,7.507,25.055,0l2.5,103.7H496.6Z" transform="translate(-341.721 -353.524)" opacity="0.1"/>
    <path id="Path_746" data-name="Path 746" d="M339.32,506.75v2.917l68.717,13.742S373.054,510.5,339.32,506.75Z" transform="translate(-248.162 -324.416)" fill="#d8d9e5"/>
    <path id="Path_747" data-name="Path 747" d="M596.524,502.31v2.917L522.39,520.635S562.783,506.06,596.524,502.31Z" transform="translate(-362.515 -321.643)" fill="#d8d9e5"/>
    <path id="Path_748" data-name="Path 748" d="M712.212,717.482l-2.173.586s-14.155-12.387-32.2,6.381,6.006,27.953,6.006,27.953,24.774,1.062,32.555-3.54a34.248,34.248,0,0,1,10.844-4.2,11.081,11.081,0,0,0,6.073-3.427h0a14.493,14.493,0,0,0,3.626-11.952h0a14.493,14.493,0,0,0-10.66-11.869h0A27.462,27.462,0,0,0,712.212,717.482Z" transform="translate(-455.423 -453.908)" fill="#efb7b9"/>
    <path id="Path_749" data-name="Path 749" d="M278.107,721.238s16.659-14.992,37.067,10-15.829,25.416-15.829,25.416-19.59,4.568-27.071-11.674S278.107,721.238,278.107,721.238Z" transform="translate(-204.858 -455.608)" fill="#efb7b9"/>
    <path id="Path_750" data-name="Path 750" d="M785.28,713.449s19.365,5.653,15.214,28l11.7-1.276,2.47-11.362-5-15.825-9.579-3.754Z" transform="translate(-526.726 -450.893)" opacity="0.1"/>
    <path id="Path_751" data-name="Path 751" d="M786.39,713.449s19.365,5.653,15.214,28l11.7-1.276,2.47-11.362-5-15.825L801.2,709.23Z" transform="translate(-527.42 -450.893)" fill="#67647e"/>
    <path id="Path_752" data-name="Path 752" d="M498.063,202.742a46.511,46.511,0,0,1-1.329,11.081,16.2,16.2,0,0,1-9.406,1.381c-5.518-.845-10.39-4.129-14.425-7.984s-7.421-8.341-11.313-12.349c-3.528-3.633-7.883-7.031-12.942-7.177-4.594-.135-8.78,2.432-13.209,3.649-4.639,1.276-13.986-2.207-16.249,1.727-1.329,2.312-.86,7.4-1.644,10.135a39.762,39.762,0,0,1-3.577,8.577c-1.126,1.978-2.781,4.076-5.052,4.058a5.109,5.109,0,0,1-2.492-.8,46.65,46.65,0,1,1,91.644-12.312Z" transform="translate(-289.042 -105.371)" opacity="0.1"/>
    <path id="Path_753" data-name="Path 753" d="M408.727,143.462c4.433-1.216,8.633-3.784,13.209-3.649,5.06.146,9.418,3.543,12.942,7.177,3.889,4.005,7.275,8.491,11.313,12.349s8.907,7.132,14.425,7.984,11.73-1.224,14.594-6.006c4.08-6.824.206-15.469.293-23.419.056-5.026,1.753-9.951,1.562-14.973-.161-4.2-1.637-8.258-3.247-12.128a14.466,14.466,0,0,0-3.146-5.214c-3.975-3.679-10.4-2.1-15.51-3.915-6.6-2.346-9.677-9.654-13.49-15.529-1.471-2.252-4.129-4.658-6.524-3.42-2.819,1.456-2.053,6.434-4.9,7.83-1.727.845-3.836-.221-5.067-1.7s-1.941-3.329-3.149-4.82a9.159,9.159,0,0,0-9.009-3.074,3.1,3.1,0,0,0-1.708.89c-.908,1.081-.342,2.691-.278,4.1.218,4.745-5.469,7.38-10.191,7.883s-10.259.563-13.074,4.388c-1.5,2.023-1.809,4.658-2.815,6.963-2.335,5.345-7.973,8.258-12.931,11.34s-10.06,7.545-10.015,13.374c.045,5.6,4.88,10.135,5.736,15.664.45,2.935-.251,5.968.312,8.885,1.032,5.353,5.938,8.945,10.465,11.985a7.045,7.045,0,0,0,3.679,1.546c2.252.019,3.938-2.079,5.052-4.058a39.789,39.789,0,0,0,3.577-8.577c.784-2.744.315-7.83,1.644-10.135C394.741,141.254,404.088,144.734,408.727,143.462Z" transform="translate(-262.335 -58.316)" fill="#585268"/>
  </g>
</svg>