<svg xmlns="http://www.w3.org/2000/svg" width="394.228" height="403.416" viewBox="0 0 394.228 403.416">
  <g id="Group_814" data-name="Group 814" transform="translate(-169.594 -29.439)">
    <path id="Path_1282" data-name="Path 1282" d="M570.357,160.992c-2.667,2.231-4.549,5.091-7.478,7.1-3.527,2.43-8.157,3.353-12.464,4.655s-8.725,3.346-10.457,6.892c-1.471,3.035-.623,6.556-1.87,9.659-1.34,3.3-4.817,5.609-7.478,8.27a21.342,21.342,0,0,0-6.232,19.194c.941,4.655,3.515,8.955,5.042,13.5,1.87,5.559,2.131,11.386,2.393,17.15.486,10.825.966,21.755-1.471,32.405-.623,2.673-2.306,43.324-5.565,43.243,8.65-.742,17.349-.823,26.043-.91l130.245-1.246c-6-7.852-9.834-54.254-11.105-63.508-2.194-15.953,3.116-31.926,3.739-47.985a13.616,13.616,0,0,0-.766-6.138c-.9-2.038-2.692-3.776-3.29-5.889-.86-3.022.866-6.12.922-9.223.112-6.232-6.232-11.012-11.261-15.629-4.848-4.443-8.88-9.491-13.885-13.822s-11.292-8-18.446-8.668c-5.877-.542-11.716.985-17.343,2.493-6.712,1.795-13.087,4.063-20.21,3.951C581.562,156.349,576.72,157,570.357,160.992Z" transform="translate(-229.366 -120.491)" fill="#2f2e41"/>
    <g id="Group_811" data-name="Group 811" transform="translate(303.669 62.948)" opacity="0.1">
      <path id="Path_1283" data-name="Path 1283" d="M742.215,205.8a8.685,8.685,0,0,0,.785,1.957,11.5,11.5,0,0,0-1-4.057A7.477,7.477,0,0,0,742.215,205.8Z" transform="translate(-615.179 -203.7)"/>
      <path id="Path_1284" data-name="Path 1284" d="M539.223,367.64l-.723.062A3.4,3.4,0,0,0,539.223,367.64Z" transform="translate(-538.5 -265.476)"/>
    </g>
    <path id="Path_1285" data-name="Path 1285" d="M674.024,680.3a5.491,5.491,0,0,1-2.742,1.116c-15.935,3.272-32.013,6.064-48.259,6.948-14.333.785-28.71.081-43.049-.623s-28.666-1.415-42.663-4.312a108.734,108.734,0,0,0,10.781-37.272,110.055,110.055,0,0,0,.43-17.138,19.175,19.175,0,0,0-.249-2.05c-.667-4.1-2.312-10.039-.816-13.006,1.919-3.814,9.292-3.938,12.894-4.649,6.12-1.2,12.27-2.206,18.446-3.047,24.51-3.334,49.269-4.094,73.965-4.836,3.315-.1,7.266.125,8.992,2.96.966,1.589.916,3.571.866,5.434q-.168,6.051.118,12.1a161.877,161.877,0,0,0,11.33,52.142C674.89,676.1,675.644,678.772,674.024,680.3Z" transform="translate(-234.383 -290.617)" fill="#fbbebe"/>
    <path id="Path_1286" data-name="Path 1286" d="M586.563,359.05c-2.6,3.209-6.275,5.366-9.971,7.26a124.554,124.554,0,0,1-13.616,6.032c-.941,1.427-.193,3.322.623,4.842,7.31,14.2,17.094,28.3,31.851,34.406,7.572,3.116,15.879,3.895,24.042,4.624a23.285,23.285,0,0,0,7.615-.162,19.624,19.624,0,0,0,6.855-3.652,63.944,63.944,0,0,0,24.753-42.208c.2-1.489.2-3.315-1.078-4.113a4.993,4.993,0,0,0-2.686-.38c-5.976.062-11.273-4.362-14.034-9.653s-3.5-11.392-4.175-17.331c0-.131-35.135-.872-38.307-.9-4.948-.044-6.581.536-7.061,5.609C590.869,349.023,590.246,354.489,586.563,359.05Z" transform="translate(-243.889 -191.29)" fill="#fbbebe"/>
    <path id="Path_1287" data-name="Path 1287" d="M586.563,359.05c-2.6,3.209-6.275,5.366-9.971,7.26a124.554,124.554,0,0,1-13.616,6.032c-.941,1.427-.193,3.322.623,4.842,7.31,14.2,17.094,28.3,31.851,34.406,7.572,3.116,15.879,3.895,24.042,4.624a23.285,23.285,0,0,0,7.615-.162,19.624,19.624,0,0,0,6.855-3.652,63.944,63.944,0,0,0,24.753-42.208c.2-1.489.2-3.315-1.078-4.113a4.993,4.993,0,0,0-2.686-.38c-5.976.062-11.273-4.362-14.034-9.653s-3.5-11.392-4.175-17.331c0-.131-35.135-.872-38.307-.9-4.948-.044-6.581.536-7.061,5.609C590.869,349.023,590.246,354.489,586.563,359.05Z" transform="translate(-243.889 -191.29)" opacity="0.1"/>
    <circle id="Ellipse_221" data-name="Ellipse 221" cx="47.985" cy="47.985" r="47.985" transform="translate(322.614 65.154)" fill="#fbbebe"/>
    <path id="Path_1288" data-name="Path 1288" d="M574.926,374.4c.53,6.73-71.8,13.031-74.533,4.73-1.62,1.913-4.593,2.069-6.961,1.246s-4.362-2.405-6.606-3.571c-3.739-1.951-7.952-2.673-12.1-3.378-6.749-1.14-14.589-1.975-19.587,2.7-1.726,1.614-2.9,3.739-4.636,5.359-3.029,2.817-7.31,3.7-11.217,4.985-5.64,1.87-10.837,4.861-16.165,7.478a143.241,143.241,0,0,1-39.379,12.725c-2.91.492-5.839.891-8.724,1.583-4.051.972-8.1,2.636-10.862,5.758,3.228,4.125,7.865,6.375,12.844,8l48.047,15.7c7.229,2.362,14.57,4.774,20.9,9.005,10.538,7.03,17.393,18.583,21.145,30.679s4.717,24.859,5.652,37.491c.405,5.49.773,11.217-1.383,16.3a126.175,126.175,0,0,0,33.652-.555c10.725-1.633,21.332-4.661,32.181-4.562,11.84.118,23.313,3.957,34.985,6.032s24.553,2.138,34.387-4.487c-2.094-2.823-2.412-6.855-2.493-10.357l-.249-16.6a24.625,24.625,0,0,1,.4-5.983c.835-3.552,3.184-6.531,4.686-9.853,2.9-6.413,2.493-13.741,2.655-20.777s1.147-14.595,5.9-19.742c3.116-3.359,7.478-5.266,11.9-6.444,7.565-2.019,15.48-2.15,23.295-2.7a208.567,208.567,0,0,0,73.535-19.15c-1.383-2.923-4.6-4.58-7.534-5.939-6.942-3.209-14.3-6.5-21.911-5.783-3.683.349-7.329,1.633-11,1.165-3.477-.449-6.556-2.418-9.934-3.359a66.455,66.455,0,0,0-7.871-1.215c-6.07-.929-11.766-3.427-17.38-5.9l-14.184-6.232c-3.739-1.651-7.634-3.415-10.2-6.606-.835-1.041-1.508-2.212-2.418-3.191a13.534,13.534,0,0,0-5.914-3.359,19.157,19.157,0,0,0-8.519-.935,50.08,50.08,0,0,0-5.827,1.527C594.133,378.735,584.461,376.105,574.926,374.4Z" transform="translate(-169.137 -204.375)" fill="#6c63ff"/>
    <path id="Path_1289" data-name="Path 1289" d="M682.512,751.481a464.18,464.18,0,0,1-77.773,11.84h-65.9q-17.667-1.2-34.823-3.677a123.755,123.755,0,0,1,13.841-28.479,14.911,14.911,0,0,0,2.156-4.125,21.72,21.72,0,0,0,.417-4.182A20.247,20.247,0,0,1,525.2,711.18q1.944,1.059,3.926,2.038a125.685,125.685,0,0,0,47.948,12.869,184.646,184.646,0,0,0,26.317-.53c19.73-1.589,40.245-5.253,56.136-16.888.667-.486,1.327-.991,1.982-1.508,7.721,6.855,12.189,17.362,15.386,27.183C678.791,740.089,680.549,745.822,682.512,751.481Z" transform="translate(-221.838 -330.465)" fill="#2f2e41"/>
    <path id="Path_1290" data-name="Path 1290" d="M645.294,714.66a6.9,6.9,0,0,0,.947,6,4.855,4.855,0,0,0-1.01-5.434Z" transform="translate(-274.958 -333.292)" opacity="0.1"/>
    <path id="Path_1291" data-name="Path 1291" d="M574.735,389.87a17.1,17.1,0,0,1,7.784-2.53c4.138-.037,7.84,2.493,10.906,5.285a55.851,55.851,0,0,1,7.653,8.488,10.514,10.514,0,0,1,2.362,5.091c.168,1.888-.866,4.013-2.711,4.462a4.78,4.78,0,0,1-3.359-.679c-4.263-2.343-7.422-7.709-12.258-7.185-3.315.355-5.559,3.44-7.372,6.232a27.225,27.225,0,0,0-3.97,7.933c-.723,2.879-.374,6.232,1.633,8.4,1.558,1.7,3.833,2.493,5.958,3.378a41.524,41.524,0,0,1,12.694,8.238c1.789,1.708,3.49,3.739,3.739,6.232s-1.639,5.235-4.107,5.06a6.574,6.574,0,0,1-3.047-1.327c-4.462-2.948-9.017-6.039-14.252-7.123-5.328-1.1-10.831,0-16.2.823q-8.837,1.321-17.761,1.882a14.85,14.85,0,0,1-5.278-.343c-5.883-1.82-7.6-9.3-6.911-14.713.729-5.783,4.985-7.1,9.435-9.971C552.182,409.313,561.468,397.1,574.735,389.87Z" transform="translate(-231.663 -209.951)" fill="#fbbebe"/>
    <path id="Path_1292" data-name="Path 1292" d="M658.337,389.87a17.124,17.124,0,0,0-7.79-2.53c-4.138-.037-7.84,2.493-10.906,5.285a55.847,55.847,0,0,0-7.646,8.488,10.561,10.561,0,0,0-2.356,5.091c-.168,1.888.86,4.013,2.7,4.462a4.8,4.8,0,0,0,3.365-.679c4.263-2.343,7.422-7.709,12.252-7.185,3.322.355,5.565,3.44,7.372,6.232a27.073,27.073,0,0,1,3.97,7.933c.717,2.879.374,6.232-1.633,8.4-1.552,1.7-3.833,2.493-5.958,3.378a41.6,41.6,0,0,0-12.7,8.238c-1.789,1.708-3.484,3.739-3.739,6.232s1.639,5.235,4.107,5.06a6.549,6.549,0,0,0,3.047-1.327c4.462-2.948,9.017-6.039,14.252-7.123,5.328-1.1,10.831,0,16.2.823,5.877.922,11.8,1.564,17.742,1.919a14.888,14.888,0,0,0,5.285-.343c5.877-1.82,7.59-9.3,6.911-14.713-.735-5.783-4.985-7.1-9.441-9.971C680.89,409.313,671.61,397.1,658.337,389.87Z" transform="translate(-269.167 -209.951)" fill="#fbbebe"/>
    <path id="Path_1293" data-name="Path 1293" d="M586.619,235.3c2.792-4.412,6.107-9.2,10.638-9.709,6.325-.717,11.267,7.192,17.561,8.214,8.1,1.321,16.066-9.049,23.681-5.26,3.739,1.87,6.531,7.054,10.594,6.955,2.811-.062,5.1-2.7,6.961-5.285a98.584,98.584,0,0,0,8.319-13.785c-7.734-8.868-18.982-10.893-29.483-12.507l-17.655-2.711c-4.25-.654-8.575-1.3-12.8-.4-3.82.816-7.385,2.873-10.843,5.035-4.125,2.592-13.828,6.755-16.359,11.579-1.764,3.346.661,4.9,2.935,8.276Q583.378,230.5,586.619,235.3Z" transform="translate(-249.198 -139.496)" fill="#2f2e41"/>
    <path id="Path_1294" data-name="Path 1294" d="M465.194,430.22a92.855,92.855,0,0,1-23.276,1.658,62.756,62.756,0,0,0-9.18-.193c-3.677.349-7.21,1.564-10.794,2.449-18.565,4.568-37.964.106-56.915-2.4a31.31,31.31,0,0,0-10.083-.174,28.673,28.673,0,0,0-8.525,3.54,102.983,102.983,0,0,0-12.464,8.344c-4.132,3.228-8.3,7.341-8.587,12.57-.249,4.5,2.493,8.643,5.814,11.7,8.974,8.307,22.3,10.806,34.312,8.556,4.568-.854,9.024-2.325,13.641-2.836,4.73-.523,9.51,0,14.265-.224,9.659-.43,18.907-3.789,28.286-6.126a136.246,136.246,0,0,1,44.832-3.515.966.966,0,0,1-1.327-.679,27.533,27.533,0,0,1-1.14-9.585C464.1,445.463,464.471,438.035,465.194,430.22Z" transform="translate(-154.514 -226.109)" opacity="0.1"/>
    <path id="Path_1295" data-name="Path 1295" d="M463.194,431.22a92.852,92.852,0,0,1-23.276,1.658,62.764,62.764,0,0,0-9.179-.193c-3.677.349-7.21,1.564-10.794,2.449-18.565,4.568-37.964.106-56.915-2.4a31.307,31.307,0,0,0-10.083-.174,28.671,28.671,0,0,0-8.525,3.54,102.974,102.974,0,0,0-12.464,8.344c-4.132,3.228-8.3,7.341-8.587,12.57-.249,4.5,2.493,8.644,5.814,11.7,8.974,8.307,22.3,10.806,34.312,8.556,4.568-.854,9.024-2.324,13.641-2.835,4.73-.523,9.51,0,14.265-.224,9.659-.43,18.907-3.789,28.286-6.126a136.246,136.246,0,0,1,44.832-3.515.966.966,0,0,1-1.327-.679,27.533,27.533,0,0,1-1.14-9.585C462.1,446.463,462.471,439.035,463.194,431.22Z" transform="translate(-153.76 -226.486)" fill="#6c63ff"/>
    <path id="Path_1296" data-name="Path 1296" d="M730,424.571c9.5,2.162,32.356,3.116,42.09,2.792,4.443-.137,8.874-.536,13.317-.523,7.615,0,15.218,1.246,22.815.742,9.815-.673,19.456-4.281,29.246-3.353,4.811.461,9.441,1.994,14.028,3.527s9.585,3.266,12.813,6.992c2.991,3.452,4.082,8.1,5.073,12.563.555,2.493,1.109,5.066.623,7.565-.929,4.742-5.3,7.952-9.491,10.345-4.985,2.842-10.457,5.285-16.2,5.154a36.19,36.19,0,0,1-9.971-2.081c-9.3-2.923-18.814-6.232-28.536-5.5-6.8.523-13.592,3.029-20.278,1.676-3.932-.8-7.478-2.879-11.217-4.263-9.111-3.334-32.237-2.449-41.9-1.527.561-5.428.492-10.9,1.053-16.334.436-4.157.854-8.463-.48-12.426C732.15,427.544,731.87,426.254,730,424.571Z" transform="translate(-306.992 -223.794)" opacity="0.1"/>
    <path id="Path_1297" data-name="Path 1297" d="M731,426.571c9.5,2.162,32.356,3.116,42.09,2.792,4.443-.137,8.874-.536,13.317-.523,7.615,0,15.218,1.246,22.815.742,9.815-.673,19.456-4.281,29.246-3.353,4.811.461,9.441,1.994,14.028,3.527s9.585,3.265,12.813,6.992c2.991,3.452,4.082,8.1,5.073,12.563.555,2.493,1.109,5.066.623,7.565-.929,4.742-5.3,7.952-9.491,10.345-4.985,2.842-10.457,5.285-16.2,5.154a36.192,36.192,0,0,1-9.971-2.081c-9.3-2.923-18.814-6.232-28.536-5.5-6.8.523-13.592,3.029-20.278,1.676-3.932-.8-7.478-2.879-11.217-4.263-9.111-3.334-32.237-2.449-41.9-1.527.561-5.428.492-10.9,1.053-16.334.436-4.157.854-8.463-.48-12.426C733.15,429.544,732.87,428.254,731,426.571Z" transform="translate(-307.369 -224.548)" fill="#6c63ff"/>
    <path id="Path_1298" data-name="Path 1298" d="M566.9,272.6c-1.458-.38-2.019-2.225-3.334-2.966a3.219,3.219,0,0,0-3.907.947,6.742,6.742,0,0,0-1.359,4.051,15.318,15.318,0,0,0,9.6,14.782,62.438,62.438,0,0,1-1.5-17.312Z" transform="translate(-242.29 -165.471)" fill="#fbbebe"/>
    <path id="Path_1299" data-name="Path 1299" d="M719.073,272.6c1.458-.38,2.013-2.225,3.328-2.966a3.219,3.219,0,0,1,3.907.947,6.7,6.7,0,0,1,1.359,4.051,15.318,15.318,0,0,1-9.6,14.782,62.435,62.435,0,0,0,1.5-17.312Z" transform="translate(-302.496 -165.471)" fill="#fbbebe"/>
    <g id="Group_812" data-name="Group 812" transform="translate(354.103 245.315)" opacity="0.1">
      <path id="Path_1300" data-name="Path 1300" d="M622.172,496.34a48.457,48.457,0,0,1,1.714,13.336c0,7.833-1.539,14.67-3.833,18.34-.193,1.745-.411,3.477-.623,5.179,3.234-2.493,5.609-10.681,5.609-20.4C625.014,506.149,623.9,500.222,622.172,496.34Z" transform="translate(-619.43 -496.34)"/>
    </g>
    <g id="Group_813" data-name="Group 813" transform="translate(371.533 245.315)" opacity="0.1">
      <path id="Path_1301" data-name="Path 1301" d="M650.267,496.34a48.438,48.438,0,0,0-1.72,13.336c0,7.833,1.545,14.67,3.839,18.34.193,1.745.405,3.477.623,5.179-3.234-2.493-5.609-10.681-5.609-20.4C647.394,506.149,648.5,500.222,650.267,496.34Z" transform="translate(-647.4 -496.34)"/>
    </g>
    <path id="Path_1302" data-name="Path 1302" d="M655.959,236.131c-1.87,2.586-4.15,5.222-6.961,5.285-4.069.1-6.855-5.073-10.594-6.955-7.584-3.789-15.53,6.581-23.681,5.26-6.294-1.022-11.217-8.93-17.561-8.214-4.531.511-7.846,5.3-10.638,9.709q-3.241-4.792-6.475-9.6c-1.246-1.87-2.6-3.209-3.2-4.593-1.209,2.966,1.059,4.537,3.2,7.709s4.312,6.4,6.475,9.6c2.792-4.412,6.107-9.2,10.638-9.709,6.325-.717,11.267,7.192,17.561,8.214,8.1,1.321,16.066-9.049,23.681-5.26,3.739,1.87,6.531,7.054,10.594,6.955,2.811-.062,5.1-2.7,6.961-5.285a98.59,98.59,0,0,0,8.319-13.785c-.336-.386-.685-.76-1.041-1.122A99.5,99.5,0,0,1,655.959,236.131Z" transform="translate(-249.154 -148.53)" opacity="0.1"/>
  </g>
</svg>
